<svg xmlns="http://www.w3.org/2000/svg">
    <symbol id='rss' viewBox="0 0 36 36" xmlns="http://www.w3.org/2000/svg">
        <g opacity="0.8">
            <path fill-rule="evenodd" clip-rule="evenodd" d="M18 0C8.05887 0 0 8.05887 0 18C0 27.9411 8.05887 36 18 36C27.9411 36 36 27.9411 36 18C36 8.05887 27.9411 0 18 0ZM13.2002 25.2C11.8748 25.2 10.8002 24.1254 10.8002 22.8C10.8002 21.4746 11.8748 20.4 13.2002 20.4C14.5255 20.4 15.6001 21.4746 15.6001 22.8C15.6001 24.1254 14.5255 25.2 13.2002 25.2ZM27.6 25.2C27.6 15.9366 20.0635 8.4 10.8002 8.4V11.5998C18.2995 11.5998 24.4002 17.7006 24.4002 25.2H27.6ZM10.8 13.9998C16.9757 13.9998 22.0001 19.0242 22.0001 25.2H18.8003C18.8003 20.7888 15.2112 17.2002 10.8 17.2002V13.9998Z" />
        </g>

    </symbol>
    <symbol id='facebook' viewBox="0 0 36 36" xmlns="http://www.w3.org/2000/svg">
        <g opacity="0.8">
            <path fill-rule="evenodd" clip-rule="evenodd" d="M18 0C8.05887 0 0 8.05887 0 18C0 27.9411 8.05887 36 18 36C27.9411 36 36 27.9411 36 18C36 8.05887 27.9411 0 18 0ZM19.8762 18.7907V28.5836H15.8243V18.791H13.8V15.4163H15.8243V13.3902C15.8243 10.6371 16.9674 9 20.2149 9H22.9186V12.3751H21.2286C19.9644 12.3751 19.8808 12.8467 19.8808 13.7269L19.8762 15.416H22.9377L22.5794 18.7907H19.8762Z" />
        </g>
    </symbol>
    <symbol id='twitter' viewBox="0 0 36 36" xmlns="http://www.w3.org/2000/svg">
        <g opacity="0.8">
            <path fill-rule="evenodd" clip-rule="evenodd" d="M18 0C8.05887 0 0 8.05887 0 18C0 27.9411 8.05887 36 18 36C27.9411 36 36 27.9411 36 18C36 8.05887 27.9411 0 18 0ZM17.4987 15.2535L17.4609 14.6306C17.3476 13.0163 18.3422 11.5418 19.9161 10.9698C20.4952 10.7665 21.4773 10.741 22.1194 10.919C22.3712 10.9953 22.8497 11.2495 23.1896 11.4783L23.8066 11.8978L24.4865 11.6817C24.8642 11.5673 25.3678 11.3766 25.5944 11.2495C25.8085 11.1351 25.9973 11.0715 25.9973 11.1097C25.9973 11.3258 25.5315 12.063 25.1412 12.4697C24.6124 13.0417 24.7635 13.0926 25.8337 12.7113C26.4758 12.4952 26.4884 12.4952 26.3625 12.7367C26.2869 12.8638 25.8966 13.3087 25.4811 13.7154C24.7761 14.4145 24.7383 14.4908 24.7383 15.0755C24.7383 15.978 24.3102 17.8592 23.8821 18.8888C23.0889 20.8209 21.3892 22.8165 19.6894 23.8207C17.2972 25.2316 14.1118 25.5875 11.43 24.7613C10.5361 24.4817 9 23.7699 9 23.6427C9 23.6046 9.46585 23.5538 10.0324 23.5411C11.216 23.5156 12.3995 23.1852 13.4067 22.6004L14.0866 22.1937L13.306 21.9268C12.198 21.5454 11.2034 20.6684 10.9515 19.8421C10.876 19.5752 10.9012 19.5625 11.6063 19.5625L12.3365 19.5498L11.7196 19.2574C10.9893 18.8888 10.322 18.266 9.99466 17.6304C9.75544 17.1728 9.45326 16.0161 9.5414 15.9272C9.56658 15.889 9.83098 15.9653 10.1332 16.067C11.0019 16.3847 11.1152 16.3085 10.6116 15.7746C9.6673 14.8086 9.37772 13.3722 9.83098 12.0122L10.045 11.402L10.876 12.2282C12.5757 13.8934 14.5776 14.8848 16.8691 15.1772L17.4987 15.2535Z" />
        </g>
    </symbol>
    <symbol id='instagram' viewBox="0 0 36 36" xmlns="http://www.w3.org/2000/svg">
        <g opacity="0.8">
            <path fill-rule="evenodd" clip-rule="evenodd" d="M18 0C8.05887 0 0 8.05887 0 18C0 27.9411 8.05887 36 18 36C27.9411 36 36 27.9411 36 18C36 8.05887 27.9411 0 18 0ZM14.0425 8.458C15.0665 8.4114 15.3937 8.4 18.0009 8.4H17.9979C20.6059 8.4 20.9319 8.4114 21.9559 8.458C22.978 8.5048 23.676 8.6666 24.288 8.90401C24.92 9.14901 25.454 9.47701 25.988 10.011C26.522 10.5446 26.85 11.0802 27.096 11.7116C27.332 12.322 27.494 13.0196 27.542 14.0417C27.588 15.0657 27.6 15.3929 27.6 18.0001C27.6 20.6073 27.588 20.9337 27.542 21.9577C27.494 22.9793 27.332 23.6772 27.096 24.2878C26.85 24.919 26.522 25.4546 25.988 25.9882C25.4546 26.5222 24.9198 26.851 24.2886 27.0962C23.6778 27.3336 22.9793 27.4954 21.9573 27.5422C20.9333 27.5888 20.6071 27.6002 17.9997 27.6002C15.3927 27.6002 15.0657 27.5888 14.0417 27.5422C13.0198 27.4954 12.322 27.3336 11.7112 27.0962C11.0802 26.851 10.5446 26.5222 10.0112 25.9882C9.47741 25.4546 9.14941 24.919 8.90401 24.2876C8.6668 23.6772 8.505 22.9795 8.458 21.9575C8.4116 20.9335 8.4 20.6073 8.4 18.0001C8.4 15.3929 8.412 15.0655 8.4578 14.0415C8.5038 13.0198 8.6658 12.322 8.9038 11.7114C9.14981 11.0802 9.47781 10.5446 10.0118 10.011C10.5454 9.47721 11.081 9.14921 11.7124 8.90401C12.3228 8.6666 13.0204 8.5048 14.0425 8.458Z" />
            <path fill-rule="evenodd" clip-rule="evenodd" d="M17.1397 10.1294C17.307 10.1291 17.4868 10.1292 17.681 10.1293L18.0009 10.1294C20.5642 10.1294 20.868 10.1386 21.8802 10.1846C22.8162 10.2274 23.3242 10.3838 23.6626 10.5152C24.1106 10.6892 24.43 10.8972 24.7658 11.2332C25.1018 11.5692 25.3098 11.8892 25.4842 12.3372C25.6156 12.6752 25.7722 13.1832 25.8148 14.1192C25.8608 15.1312 25.8708 15.4352 25.8708 17.9972C25.8708 20.5593 25.8608 20.8633 25.8148 21.8753C25.772 22.8113 25.6156 23.3193 25.4842 23.6573C25.3102 24.1053 25.1018 24.4243 24.7658 24.7601C24.4298 25.0961 24.1108 25.3041 23.6626 25.4781C23.3246 25.6101 22.8162 25.7661 21.8802 25.8089C20.8682 25.8549 20.5642 25.8649 18.0009 25.8649C15.4375 25.8649 15.1337 25.8549 14.1217 25.8089C13.1857 25.7657 12.6777 25.6093 12.3391 25.4779C11.8911 25.3039 11.5711 25.0959 11.2351 24.7599C10.8991 24.4239 10.6911 24.1047 10.5167 23.6565C10.3853 23.3185 10.2287 22.8105 10.1861 21.8745C10.1401 20.8625 10.1309 20.5585 10.1309 17.9948C10.1309 15.4312 10.1401 15.1288 10.1861 14.1168C10.2289 13.1808 10.3853 12.6728 10.5167 12.3344C10.6907 11.8864 10.8991 11.5664 11.2351 11.2304C11.5711 10.8944 11.8911 10.6864 12.3391 10.512C12.6775 10.38 13.1857 10.224 14.1217 10.181C15.0073 10.141 15.3505 10.129 17.1397 10.127V10.1294ZM23.1254 11.7234C22.4894 11.7234 21.9734 12.2388 21.9734 12.875C21.9734 13.511 22.4894 14.027 23.1254 14.027C23.7614 14.027 24.2774 13.511 24.2774 12.875C24.2774 12.239 23.7614 11.723 23.1254 11.723V11.7234ZM13.0709 17.9994C13.0709 15.2768 15.2783 13.0694 18.0009 13.0694H18.0007C20.7234 13.0694 22.9302 15.2768 22.9302 17.9994C22.9302 20.7221 20.7236 22.9285 18.0009 22.9285C15.2783 22.9285 13.0709 20.7221 13.0709 17.9994Z" />
            <path d="M18.0008 14.8008C19.768 14.8008 21.2008 16.2334 21.2008 18.0008C21.2008 19.768 19.768 21.2008 18.0008 21.2008C16.2334 21.2008 14.8008 19.768 14.8008 18.0008C14.8008 16.2334 16.2334 14.8008 18.0008 14.8008V14.8008Z" />
        </g>
    </symbol>
    <symbol id='youtube' viewBox="0 0 36 36" xmlns="http://www.w3.org/2000/svg">
        <g opacity="0.8">
            <path fill-rule="evenodd" clip-rule="evenodd" d="M18 0C8.05887 0 0 8.05887 0 18C0 27.9411 8.05887 36 18 36C27.9411 36 36 27.9411 36 18C36 8.05887 27.9411 0 18 0ZM25.5012 11.812C26.3273 12.0387 26.978 12.7067 27.1988 13.5549C27.6 15.0923 27.6 18.3 27.6 18.3C27.6 18.3 27.6 21.5076 27.1988 23.0451C26.978 23.8933 26.3273 24.5613 25.5012 24.7881C24.004 25.2 18 25.2 18 25.2C18 25.2 11.996 25.2 10.4987 24.7881C9.67254 24.5613 9.02193 23.8933 8.80113 23.0451C8.4 21.5076 8.4 18.3 8.4 18.3C8.4 18.3 8.4 15.0923 8.80113 13.5549C9.02193 12.7067 9.67254 12.0387 10.4987 11.812C11.996 11.4 18 11.4 18 11.4C18 11.4 24.004 11.4 25.5012 11.812Z" />
            <path d="M16.2002 21.5996V15.5996L21.0002 18.5997L16.2002 21.5996Z" />
        </g>
    </symbol>


</svg>