<svg xmlns="http://www.w3.org/2000/svg">
    <symbol id="contact" data-name="Layer 1" xmlns="http://www.w3.org/2000/svg" viewBox="0 0 95 95">
        <path d="M74.06,79.38a3.83,3.83,0,0,1-1.83-.47h0L28,54.34a3.77,3.77,0,0,1-1.46-5.13L40,25.06a3.78,3.78,0,0,1,5.13-1.46L89.31,48.16a3.79,3.79,0,0,1,1.47,5.14L77.37,77.44a3.79,3.79,0,0,1-2.27,1.8A3.67,3.67,0,0,1,74.06,79.38Zm-.37-3.09a.76.76,0,0,0,.59.06.71.71,0,0,0,.46-.37L88.15,51.84a.76.76,0,0,0-.3-1.05L43.62,26.22a.76.76,0,0,0-.59-.07.8.8,0,0,0-.46.37L29.16,50.66a.78.78,0,0,0,.3,1.06Z" />
        <path d="M60.79,52.73a5.37,5.37,0,0,1-4.52-2.52l-15.51-25,2.55-1.58,15.51,25a2.34,2.34,0,0,0,2,1.1h0l29.44-.06v3l-29.44.06Z" />
        <path d="M19.68,81.9H17.74C12,81.39,8.1,75.46,6.81,72.4c-2.51-5.92-3-16.8-3.06-24.9s.55-19,3-24.82c1.32-3.14,5.26-9.07,11-9.57h.93c3.91,0,9.8,0,12.48,2.63a4.77,4.77,0,0,1,1.41,3.45c0,5.06-2.71,11.57-5.14,14-1.2,1.19-3.59,1.24-6.13,1.29a16,16,0,0,0-3.29.25h0s-2.1,2.8-2.1,12.77,1.68,12.34,1.86,12.56h0c.65.48,2.64.51,4.09.53,2.25,0,4.37,0,5.56,1.23,2.43,2.43,5.14,8.94,5.14,14a4.81,4.81,0,0,1-1.41,3.46C28.69,81.72,23.53,81.9,19.68,81.9Zm-1.74-3h.75c3,0,8.54,0,10.34-1.75a1.74,1.74,0,0,0,.53-1.33C29.56,71.41,27,65.66,25.3,64c-.4-.33-2.33-.35-3.48-.36-2.13,0-4.34-.06-5.77-1.07-1-.67-3.15-3.45-3.15-15,0-10.49,2.23-14,2.77-14.67.9-1.27,3-1.31,5.56-1.36,1.26,0,3.59-.07,4.09-.44,1.7-1.69,4.24-7.44,4.24-11.85A1.74,1.74,0,0,0,29,17.85c-1.8-1.79-7.35-1.76-10.34-1.75h-.75c-3.93.39-7.15,4.79-8.36,7.66C7.76,28.05,6.77,36.45,6.75,47.5S7.76,67,9.54,71.15C10.79,74.11,14,78.51,17.94,78.9Z" />
    </symbol>
    <symbol id="death-cert" data-name="Layer 1" xmlns="http://www.w3.org/2000/svg" viewBox="0 0 95 95">
        <path d="M36,25a2.12,2.12,0,0,1,1.11.82,3,3,0,0,1,.46,1.06A4.53,4.53,0,0,1,37.7,28a4.29,4.29,0,0,1-.53,2.2A2.36,2.36,0,0,1,35,31.41H32.18V24.9H35A3.24,3.24,0,0,1,36,25Zm-2.5,1v4.25h1.26a1.37,1.37,0,0,0,1.35-1,3.54,3.54,0,0,0,.2-1.24A3,3,0,0,0,36,26.56,1.33,1.33,0,0,0,34.76,26Z" />
        <path d="M43.53,26.05H40.09v1.38h3.16v1.13H40.09v1.68h3.6v1.17H38.76V24.9h4.77Zm-.85-3-1.34,1.32h-.91l.85-1.32Z" />
        <path d="M45.37,25.58a3,3,0,0,1,4.38.27,2.32,2.32,0,0,1,.45,1.22H48.84a1.81,1.81,0,0,0-.34-.71,1.34,1.34,0,0,0-1.07-.42,1.32,1.32,0,0,0-1.15.59,3,3,0,0,0-.42,1.7,2.59,2.59,0,0,0,.44,1.64,1.4,1.4,0,0,0,1.13.54A1.3,1.3,0,0,0,48.5,30a2.18,2.18,0,0,0,.33-.76h1.35a2.87,2.87,0,0,1-.89,1.73,2.57,2.57,0,0,1-1.84.67,2.77,2.77,0,0,1-2.19-.9,3.64,3.64,0,0,1-.79-2.48A3.6,3.6,0,0,1,45.37,25.58Z" />
        <path d="M56.1,26.05H52.65v1.38h3.17v1.13H52.65v1.68h3.61v1.17H51.32V24.9H56.1Zm-.85-3-1.34,1.32H53l.85-1.32Z" />
        <path d="M58.3,29.4a1.26,1.26,0,0,0,.25.67,1.46,1.46,0,0,0,1.16.4,2.46,2.46,0,0,0,.79-.11.75.75,0,0,0,.58-.75.54.54,0,0,0-.28-.5,3,3,0,0,0-.9-.31l-.71-.15a4.6,4.6,0,0,1-1.43-.5,1.58,1.58,0,0,1-.65-1.41,1.85,1.85,0,0,1,.64-1.45,2.72,2.72,0,0,1,1.89-.58,2.94,2.94,0,0,1,1.78.54,1.94,1.94,0,0,1,.77,1.59H60.88a.93.93,0,0,0-.52-.84,1.8,1.8,0,0,0-.81-.16,1.54,1.54,0,0,0-.86.21.67.67,0,0,0-.33.59.56.56,0,0,0,.32.52,3.75,3.75,0,0,0,.87.27l1.14.27a3,3,0,0,1,1.12.47,1.6,1.6,0,0,1,.59,1.33A1.89,1.89,0,0,1,61.71,31a2.93,2.93,0,0,1-2,.59,3.21,3.21,0,0,1-2-.58A1.93,1.93,0,0,1,57,29.4Z" />
        <path d="M80.4,85H14.6A3.61,3.61,0,0,1,11,81.4V13.6A3.61,3.61,0,0,1,14.6,10H80.4A3.61,3.61,0,0,1,84,13.6V81.4A3.61,3.61,0,0,1,80.4,85ZM14.6,13a.6.6,0,0,0-.6.6V81.4a.6.6,0,0,0,.6.6H80.4a.6.6,0,0,0,.6-.6V13.6a.6.6,0,0,0-.6-.6Z" />
        <path d="M39.16,43.23H20.37a1.5,1.5,0,1,1,0-3H39.16a1.5,1.5,0,0,1,0,3Z" />
        <path d="M33.39,49.32H20.09a1.5,1.5,0,1,1,0-3h13.3a1.5,1.5,0,0,1,0,3Z" />
        <path d="M45.54,56.05H20.09a1.5,1.5,0,0,1,0-3H45.54a1.5,1.5,0,1,1,0,3Z" />
        <path d="M41.14,62.79h-21a1.5,1.5,0,1,1,0-3H41.14a1.5,1.5,0,0,1,0,3Z" />
    </symbol>
    <symbol id="document" data-name="Layer 1" xmlns="http://www.w3.org/2000/svg" viewBox="0 0 95 95">
        <path d="M79.5,14.5v66h-64v-66h64m.9-3H14.6a2.1,2.1,0,0,0-2.1,2.1V81.4a2.1,2.1,0,0,0,2.1,2.1H80.4a2.1,2.1,0,0,0,2.1-2.1V13.6a2.1,2.1,0,0,0-2.1-2.1Z" />
        <path d="M64.44,22.14H28.7a1.5,1.5,0,0,1,0-3H64.44a1.5,1.5,0,0,1,0,3Z" />
        <path d="M36.09,34.6H19.85a1.5,1.5,0,0,1,0-3H36.09a1.5,1.5,0,0,1,0,3Z" />
        <path d="M31.1,41.77H19.6a1.5,1.5,0,0,1,0-3H31.1a1.5,1.5,0,0,1,0,3Z" />
        <path d="M41.6,48.93h-22a1.5,1.5,0,0,1,0-3h22a1.5,1.5,0,0,1,0,3Z" />
        <path d="M37.8,56.1H19.6a1.5,1.5,0,0,1,0-3H37.8a1.5,1.5,0,0,1,0,3Z" />
    </symbol>

    <symbol id="documents" data-name="Layer 1" xmlns="http://www.w3.org/2000/svg" viewBox="0 0 95 95">
        <path d="M57.3,30.42a1.49,1.49,0,0,1-1.5-1.5V16a1.5,1.5,0,0,1,3,0V27.41l14.25-.12h0a1.5,1.5,0,0,1,0,3l-15.76.13Z" />
        <path d="M70.91,85H14a3.59,3.59,0,0,1-3.65-3.53V18.07A3.59,3.59,0,0,1,14,14.54H57.54a1.49,1.49,0,0,1,1,.34L74,27.63a1.48,1.48,0,0,1,.55,1.16V81.47A3.59,3.59,0,0,1,70.91,85ZM14,17.54a.61.61,0,0,0-.65.53v63.4A.61.61,0,0,0,14,82H70.91a.61.61,0,0,0,.65-.53v-52L57,17.54Z" />
        <path d="M80.93,80.46H73.06v-3h7.87a.64.64,0,0,0,.69-.53V13.53a.64.64,0,0,0-.69-.53H23.05a.62.62,0,0,0-.68.53v1.91h-3V13.53A3.61,3.61,0,0,1,23.05,10H80.93a3.62,3.62,0,0,1,3.69,3.53v63.4A3.62,3.62,0,0,1,80.93,80.46Z" />
        <path d="M44.87,37.55H19.69a1.5,1.5,0,1,1,0-3H44.87a1.5,1.5,0,0,1,0,3Z" />
        <path d="M53.18,43.87H19.69a1.5,1.5,0,0,1,0-3H53.18a1.5,1.5,0,0,1,0,3Z" />
        <path d="M53.18,50.19H19.69a1.5,1.5,0,1,1,0-3H53.18a1.5,1.5,0,1,1,0,3Z" />
        <path d="M53.18,56.51H19.69a1.5,1.5,0,0,1,0-3H53.18a1.5,1.5,0,0,1,0,3Z" />
        <path d="M34.84,62.83H19.59a1.5,1.5,0,0,1,0-3H34.84a1.5,1.5,0,0,1,0,3Z" />
    </symbol>
    <symbol id="id-card" data-name="Layer 1" xmlns="http://www.w3.org/2000/svg" viewBox="0 0 95 95">
        <path d="M90.59,14.5v66H4.41v-66H90.59m.9-3h-88a2.1,2.1,0,0,0-2.1,2.11V81.39a2.1,2.1,0,0,0,2.1,2.11h88a2.1,2.1,0,0,0,2.1-2.11V13.61a2.1,2.1,0,0,0-2.1-2.11Z" />
        <path d="M79.45,21.64H18.24a1.5,1.5,0,1,1,0-3H79.45a1.5,1.5,0,0,1,0,3Z" />
        <path d="M79.45,42.84H52.26a1.5,1.5,0,1,1,0-3H79.45a1.5,1.5,0,0,1,0,3Z" />
        <path d="M72.31,52.4H52.26a1.5,1.5,0,0,1,0-3H72.31a1.5,1.5,0,0,1,0,3Z" />
        <path d="M78,62H52.26a1.5,1.5,0,0,1,0-3H78a1.5,1.5,0,0,1,0,3Z" />
        <path d="M70.94,71.51H52.26a1.5,1.5,0,0,1,0-3H70.94a1.5,1.5,0,0,1,0,3Z" />
        <path d="M60.05,30.4H37.65a1.5,1.5,0,0,1,0-3h22.4a1.5,1.5,0,0,1,0,3Z" />
        <path d="M36.33,71.32h-21a2,2,0,0,1-2-2V61.24a3.78,3.78,0,0,1,3.78-3.77H34.57a3.78,3.78,0,0,1,3.78,3.77v8.07A2,2,0,0,1,36.33,71.32Zm-20-3h19V61.24a.77.77,0,0,0-.78-.77H17.13a.77.77,0,0,0-.78.77Z" />
        <path d="M25.85,56.75a6.27,6.27,0,1,1,6.27-6.27A6.27,6.27,0,0,1,25.85,56.75Zm0-9.54a3.27,3.27,0,1,0,3.27,3.27A3.27,3.27,0,0,0,25.85,47.21Z" />
    </symbol>
    <symbol id="marriage-cert" data-name="Layer 1" xmlns="http://www.w3.org/2000/svg" viewBox="0 0 95 95">
        <path d="M27.2,34.65a7,7,0,1,1,7-7A7,7,0,0,1,27.2,34.65Zm0-10.94a4,4,0,1,0,4,4A4,4,0,0,0,27.2,23.71Z" />
        <path d="M22.16,83.16h0a4.31,4.31,0,0,1-4.47-4.38V57.26a4.84,4.84,0,0,1-2.39,3.14,4.31,4.31,0,0,1-3.74.17c-1.86-.8-2.78-2.78-2.41-5.17l3.56-16.22c.83-3.73,2.64-4.49,4-4.49H27v3H16.69c-.3,0-.76.64-1.07,2.06l-.1.63L12.05,56c-.05.37-.14,1.51.66,1.86a1.27,1.27,0,0,0,1.13-.07,1.83,1.83,0,0,0,.91-1.32l3.06-14.72,1.41.06a1.58,1.58,0,0,1,1.43,1.57V78.78a1.34,1.34,0,0,0,1.5,1.38,1.37,1.37,0,0,0,.83-.42,1.69,1.69,0,0,0,.54-1.13V62c0-1.57.87-2.71,2.06-2.71h1.69v3h-.75V78.61a4.65,4.65,0,0,1-1.42,3.26A4.21,4.21,0,0,1,22.16,83.16ZM20.49,43.59l0,.07A.64.64,0,0,0,20.49,43.59Z" />
        <path d="M31.46,83.16a4.21,4.21,0,0,1-2.94-1.29,4.65,4.65,0,0,1-1.42-3.26V62.33h-.75v-3H28c1.2,0,2.07,1.14,2.07,2.71V78.61a1.72,1.72,0,0,0,.53,1.13,1.12,1.12,0,0,0,.84.42A1.34,1.34,0,0,0,33,78.78V42l1.43-.2a1.57,1.57,0,0,1,1.68,1.29L38.85,56.4a1.88,1.88,0,0,0,.93,1.35,1.24,1.24,0,0,0,1.12.07c.8-.35.72-1.49.64-2L38,39.67c-.3-1.34-.76-2-1-2H26.59v-3H36.93c1.37,0,3.19.76,4,4.41l.13.79L44.49,55.3c.39,2.49-.54,4.47-2.4,5.27a4.29,4.29,0,0,1-3.73-.17A4.79,4.79,0,0,1,36,57.25V78.78a4.31,4.31,0,0,1-4.47,4.38Z" />
        <path d="M69,22.76l-2.81-1a2.62,2.62,0,0,0,.15-.88,1.9,1.9,0,1,0-3.73,0,2.91,2.91,0,0,0,.16.91l-2.83,1a5.57,5.57,0,0,1-.33-1.89,4.88,4.88,0,1,1,9.73,0A5.67,5.67,0,0,1,69,22.76Z" />
        <path d="M77.41,82.11H53l-.34-1c-2.24-6.87-2.51-13.06-.83-18.4.25-.78.54-1.55.85-2.36a55.65,55.65,0,0,0,1.83-5.53l-.76,1.62c-2.07,4.17-5.09,3.55-6.3,3.09a4.42,4.42,0,0,1-2.93-5.06l.06-.23,5.76-16.33c.11-.27.18-.5.25-.73.37-1.18,1.05-3.39,3.83-3.39H76c2.78,0,3.46,2.21,3.83,3.39a6.59,6.59,0,0,0,.23.67l5.84,16.62A4.42,4.42,0,0,1,83,59.49c-1.21.46-4.24,1.08-6.3-3.06l-.77-1.65a55.32,55.32,0,0,0,1.83,5.52c.31.82.6,1.59.85,2.37C80.26,68,80,74.2,77.75,81.07Zm-22.23-3h20c1.74-5.85,1.91-11.07.5-15.54-.23-.7-.49-1.4-.79-2.21a57.87,57.87,0,0,1-2-6.1,65,65,0,0,1-1.75-10.17,1.63,1.63,0,0,1,3.1-.85l5.1,10.89c1.06,2.12,2,1.75,2.52,1.56A1.47,1.47,0,0,0,83,55.07l-5.72-16.2c-.09-.22-.19-.53-.28-.84-.4-1.28-.51-1.28-1-1.28H54.41c-.46,0-.57,0-1,1.28-.1.31-.2.62-.31.9l-5.7,16.14a1.47,1.47,0,0,0,1.07,1.62c.51.19,1.47.56,2.53-1.59l5.09-10.86a1.64,1.64,0,0,1,3.11.85,63.78,63.78,0,0,1-1.76,10.17,61.1,61.1,0,0,1-2,6.11c-.3.78-.57,1.49-.8,2.2C53.27,68,53.44,73.26,55.18,79.11Zm3.66-33.59Z" />
        <path d="M78.2,28.33h-3c0-7.44-4.82-13.49-10.73-13.49S53.73,20.89,53.73,28.33h-3c0-9.09,6.16-16.49,13.74-16.49S78.2,19.24,78.2,28.33Z" />
        <path d="M64.47,33.71a7,7,0,1,1,7-7A7,7,0,0,1,64.47,33.71Zm0-10.94a4,4,0,1,0,4,4A4,4,0,0,0,64.47,22.77Z" />
    </symbol>
    <symbol id="passport" data-name="Layer 1" xmlns="http://www.w3.org/2000/svg" viewBox="0 0 95 95">
        <path d="M27.14,70.58a2.59,2.59,0,0,1-1.68.49h-1.4v2.41H22.67v-6.7h2.88a2.33,2.33,0,0,1,1.59.52,2,2,0,0,1,.59,1.6A2.1,2.1,0,0,1,27.14,70.58Zm-1.07-2.42a1.16,1.16,0,0,0-.74-.22H24.06v2h1.27a1.06,1.06,0,0,0,.74-.24,1,1,0,0,0,.27-.76A.93.93,0,0,0,26.07,68.16Z" />
        <path d="M30.08,66.78h1.58L34,73.48H32.51l-.44-1.38H29.6l-.45,1.38H27.69ZM30,70.94H31.7l-.85-2.63Z" />
        <path d="M35.89,71.41a1.29,1.29,0,0,0,.26.68,1.47,1.47,0,0,0,1.19.42,2.62,2.62,0,0,0,.82-.11.78.78,0,0,0,.6-.78.56.56,0,0,0-.3-.51,3.28,3.28,0,0,0-.92-.32l-.73-.15a4.49,4.49,0,0,1-1.47-.52,1.64,1.64,0,0,1-.68-1.45,1.92,1.92,0,0,1,.67-1.49,2.8,2.8,0,0,1,1.94-.6,3,3,0,0,1,1.83.56,2,2,0,0,1,.79,1.63H38.55a1,1,0,0,0-.54-.86,1.86,1.86,0,0,0-.83-.16,1.65,1.65,0,0,0-.89.21.7.7,0,0,0-.33.61.58.58,0,0,0,.33.54,4,4,0,0,0,.89.28l1.17.27a3,3,0,0,1,1.16.49,1.63,1.63,0,0,1,.6,1.37A1.92,1.92,0,0,1,39.4,73a3,3,0,0,1-2,.61,3.28,3.28,0,0,1-2.08-.6,2,2,0,0,1-.75-1.64Z" />
        <path d="M42.1,71.41a1.38,1.38,0,0,0,.25.68,1.47,1.47,0,0,0,1.19.42,2.69,2.69,0,0,0,.83-.11.77.77,0,0,0,.59-.78.56.56,0,0,0-.29-.51,3.25,3.25,0,0,0-.93-.32L43,70.64a4.31,4.31,0,0,1-1.47-.52,1.64,1.64,0,0,1-.68-1.45,1.91,1.91,0,0,1,.66-1.49,2.83,2.83,0,0,1,1.95-.6,3,3,0,0,1,1.83.56,2,2,0,0,1,.79,1.63H44.76a1,1,0,0,0-.54-.86,1.94,1.94,0,0,0-.84-.16,1.61,1.61,0,0,0-.88.21.7.7,0,0,0-.33.61.57.57,0,0,0,.32.54,4.25,4.25,0,0,0,.89.28l1.18.27a3.08,3.08,0,0,1,1.16.49,1.65,1.65,0,0,1,.59,1.37A1.89,1.89,0,0,1,45.6,73a3,3,0,0,1-2,.61,3.26,3.26,0,0,1-2.08-.6,2,2,0,0,1-.76-1.64Z" />
        <path d="M51.79,70.58a2.59,2.59,0,0,1-1.68.49H48.72v2.41H47.33v-6.7H50.2a2.31,2.31,0,0,1,1.59.52,2,2,0,0,1,.59,1.6A2.1,2.1,0,0,1,51.79,70.58Zm-1.07-2.42a1.15,1.15,0,0,0-.74-.22H48.72v2H50a1,1,0,0,0,.74-.24,1,1,0,0,0,.27-.76A.93.93,0,0,0,50.72,68.16Z" />
        <path d="M58.66,72.88a3.48,3.48,0,0,1-4.39,0,3.61,3.61,0,0,1-1-2.76,3.56,3.56,0,0,1,1-2.77,3.48,3.48,0,0,1,4.39,0,3.59,3.59,0,0,1,1,2.77A3.64,3.64,0,0,1,58.66,72.88Zm-.88-1a2.71,2.71,0,0,0,.49-1.74,2.76,2.76,0,0,0-.49-1.75,1.58,1.58,0,0,0-1.32-.61,1.6,1.6,0,0,0-1.32.61,3.3,3.3,0,0,0,0,3.49,1.61,1.61,0,0,0,1.32.62A1.59,1.59,0,0,0,57.78,71.86Z" />
        <path d="M65,67a1.63,1.63,0,0,1,.63.47A2.12,2.12,0,0,1,66,68a1.76,1.76,0,0,1,.13.71,2,2,0,0,1-.24.93,1.37,1.37,0,0,1-.8.66,1.24,1.24,0,0,1,.66.53,2.14,2.14,0,0,1,.19,1v.45a3,3,0,0,0,0,.63.55.55,0,0,0,.26.38v.17H64.68q-.06-.23-.09-.36a5.42,5.42,0,0,1-.06-.58v-.62a1.27,1.27,0,0,0-.22-.86,1.12,1.12,0,0,0-.79-.21H62.14v2.63H60.77v-6.7H64A2.88,2.88,0,0,1,65,67Zm-2.89,1v1.8h1.51a1.66,1.66,0,0,0,.67-.11.76.76,0,0,0,.39-.75.84.84,0,0,0-.38-.82,1.36,1.36,0,0,0-.65-.12Z" />
        <path d="M72.33,66.78V68h-2v5.52H68.91V68h-2V66.78Z" />
        <path d="M79.77,14.5v66H15.23v-66H79.77m.9-3H14.33a2.1,2.1,0,0,0-2.1,2.1V81.4a2.1,2.1,0,0,0,2.1,2.1H80.67a2.1,2.1,0,0,0,2.1-2.1V13.6a2.1,2.1,0,0,0-2.1-2.1Z" />
        <rect x="46.87" y="30.47" width="2" height="27.52" />
        <rect x="33.86" y="43.23" width="27.65" height="2" />
        <path d="M47.87,58.33A14.1,14.1,0,1,1,62,44.23,14.12,14.12,0,0,1,47.87,58.33Zm0-26.2A12.1,12.1,0,1,0,60,44.23,12.12,12.12,0,0,0,47.87,32.13Z" />
        <path d="M47.87,58.33c-4.62,0-8.24-6.19-8.24-14.1s3.62-14.1,8.24-14.1,8.24,6.19,8.24,14.1S52.49,58.33,47.87,58.33Zm0-26.2c-3.38,0-6.24,5.54-6.24,12.1s2.86,12.1,6.24,12.1,6.24-5.54,6.24-12.1S51.25,32.13,47.87,32.13Z" />
        <path d="M47.88,40.91a22.34,22.34,0,0,1-6.94-1,14.16,14.16,0,0,1-4.47-2.29L37.71,36a12.27,12.27,0,0,0,3.84,2,21.74,21.74,0,0,0,12.63,0A12.26,12.26,0,0,0,58,36l1.24,1.57a14,14,0,0,1-4.48,2.29A22.3,22.3,0,0,1,47.88,40.91Z" />
        <path d="M38,53l-1.17-1.62a15,15,0,0,1,4.27-2.06,24.07,24.07,0,0,1,13.46,0,14.39,14.39,0,0,1,4.29,2.07L57.71,53A12.74,12.74,0,0,0,54,51.19a22.19,22.19,0,0,0-12.28,0A13,13,0,0,0,38,53Z" />
    </symbol>
</svg>