<svg xmlns="http://www.w3.org/2000/svg">
    <style>
            .cls-1{fill:none;stroke:#231f20;stroke-miterlimit:10;stroke-width:2px;}
            .cls-2{font-size:9.05px;fill:#231f20;font-family:Helvetica-Bold, Helvetica;font-weight:700;}
            .cls-3{letter-spacing:-0.07em;}
            #passport{fill:red}
    </style>

    <symbol id="drop-down" viewBox="0 0 24 24">
        <path d="M0 0h24v24H0V0z" fill="none" />
        <path d="M7.41 8.59L12 13.17l4.59-4.58L18 10l-6 6-6-6 1.41-1.41z" />
    </symbol>
    <symbol id='hamburger' xmlns="http://www.w3.org/2000/svg" viewBox="0 0 24 24">
        <path d="M0 0h24v24H0V0z" fill="none" />
        <path d="M3 18h18v-2H3v2zm0-5h18v-2H3v2zm0-7v2h18V6H3z" />
    </symbol>

    <symbol id="close" xmlns="http://www.w3.org/2000/svg" viewBox="0 0 24 24">
        <path d="M0 0h24v24H0V0z" fill="none" />
        <path d="M19 6.41L17.59 5 12 10.59 6.41 5 5 6.41 10.59 12 5 17.59 6.41 19 12 13.41 17.59 19 19 17.59 13.41 12 19 6.41z" />
    </symbol>
    <symbol id='search' viewBox="0 0 24 24">
        <path d="M0 0h24v24H0V0z" fill="none" />
        <path d="M15.5 14h-.79l-.28-.27C15.41 12.59 16 11.11 16 9.5 16 5.91 13.09 3 9.5 3S3 5.91 3 9.5 5.91 16 9.5 16c1.61 0 3.09-.59 4.23-1.57l.27.28v.79l5 4.99L20.49 19l-4.99-5zm-6 0C7.01 14 5 11.99 5 9.5S7.01 5 9.5 5 14 7.01 14 9.5 11.99 14 9.5 14z" />
    </symbol>
    <symbol id='contact' viewBox="0 0 101 72" fill="none" xmlns="http://www.w3.org/2000/svg">
        <path d="M90.7232 37.9691L46.4889 13.3991C45.3929 12.7903 44.0109 13.1853 43.4022 14.2813L29.9858 38.4353C29.377 39.5313 29.772 40.9132 30.868 41.522L75.1023 66.092C76.1983 66.7007 77.5802 66.3058 78.189 65.2098L91.6054 41.0558C92.2141 39.9598 91.8192 38.5778 90.7232 37.9691Z" stroke="#684A40" stroke-width="3" stroke-miterlimit="10" />
        <path d="M44.1826 12.8902L59.6926 37.8902C60.0364 38.442 60.5153 38.897 61.084 39.2119C61.6527 39.5269 62.2925 39.6916 62.9426 39.6902H92.3926" stroke="#684A40" stroke-width="3" stroke-miterlimit="10" />
        <path d="M16.5426 36.0002C16.5426 48.4302 19.0226 49.7702 19.0226 49.7702C21.1026 51.2902 27.0226 49.8702 28.5026 51.3802C30.6426 53.5202 33.2126 59.7002 33.2126 64.3202C33.2126 69.2402 24.3826 68.9002 20.0126 68.9002C15.2426 68.4802 11.6226 63.3702 10.3426 60.3202C9.90258 59.2602 7.43258 53.8602 7.39258 36.0002C7.39258 18.1402 9.90258 12.7302 10.3426 11.6802C11.6226 8.63022 15.2426 3.52022 20.0126 3.10022C24.3826 3.10022 33.2126 2.75022 33.2126 7.67022C33.2126 12.2902 30.6426 18.4802 28.5026 20.6102C26.9926 22.1202 19.9026 20.8402 19.0226 22.2202C19.0226 22.2202 16.5426 25.0002 16.5426 36.0002Z" stroke="#684A40" stroke-width="3" stroke-miterlimit="10" />
    </symbol>

    <symbol id='id-card' viewBox="0 0 101 72" fill="none" xmlns="http://www.w3.org/2000/svg">
        <path d="M94.015 1.5H6.055a.61.61 0 0 0-.61.61v67.78c0 .337.273.61.61.61h87.96a.61.61 0 0 0 .61-.61V2.11a.61.61 0 0 0-.61-.61Z" fill="#fff" />
        <path d="M93.135 3v66H6.945V3h86.19Zm.89-3H6.045a2.11 2.11 0 0 0-2.1 2.11V69.9a2.1 2.1 0 0 0 2.1 2.1h88a2.11 2.11 0 0 0 2.11-2.1V2.11A2.12 2.12 0 0 0 94.045 0h-.02Z" fill="#684A40" />
        <path d="M20.785 8.64h61.2m-27.19 21.2h27.19m-27.19 9.56h20.05m-20.05 9.56h25.7m-25.7 9.55h18.68M40.185 17.4h22.4" stroke="#684A40" stroke-width="3" stroke-miterlimit="10" stroke-linecap="round" />
        <path d="M19.665 47.47h17.44a2.28 2.28 0 0 1 2.28 2.28v8.07a.52.52 0 0 1-.52.52h-20.92a.52.52 0 0 1-.52-.52v-8.08a2.28 2.28 0 0 1 2.24-2.27Z" stroke="#684A40" stroke-width="3" stroke-miterlimit="10" />
        <path d="M28.385 43.75a4.77 4.77 0 1 0 0-9.54 4.77 4.77 0 0 0 0 9.54Z" fill="#fff" stroke="#684A40" stroke-width="3" stroke-miterlimit="10" />
    </symbol>

    <symbol id='passport' viewBox="0 0 101 74" fill="none" xmlns="http://www.w3.org/2000/svg">
        <path d="M29.6898 60.1C29.2059 60.458 28.6103 60.6317 28.0098 60.59H26.6098V62.98H25.2198V56.28H28.0998C28.6759 56.2505 29.2425 56.4358 29.6898 56.8C29.9 57.0067 30.0619 57.2574 30.1639 57.534C30.2659 57.8106 30.3055 58.1063 30.2798 58.4C30.3136 58.7094 30.2782 59.0224 30.1761 59.3164C30.0741 59.6104 29.908 59.8781 29.6898 60.1V60.1ZM28.6198 57.69C28.4088 57.5269 28.1461 57.4453 27.8798 57.46H26.6098V59.46H27.8798C28.0136 59.4701 28.1481 59.4532 28.2752 59.4102C28.4024 59.3673 28.5196 59.2992 28.6198 59.21C28.7151 59.109 28.7884 58.9893 28.8348 58.8584C28.8813 58.7276 28.9001 58.5885 28.8898 58.45C28.9078 58.311 28.8928 58.1697 28.8459 58.0377C28.7989 57.9056 28.7215 57.7865 28.6198 57.69V57.69Z" fill="#684A40" />
        <path d="M32.6298 56.3H34.2098L36.5798 63H35.0598L34.6198 61.62H32.1498L31.6998 62.98H30.2398L32.6298 56.3ZM32.5398 60.47H34.2498L33.3998 57.83L32.5398 60.47Z" fill="#684A40" />
        <path d="M38.3998 60.98C38.4197 61.2299 38.5099 61.4691 38.6598 61.67C38.8166 61.8205 39.0043 61.9351 39.2097 62.0059C39.4152 62.0766 39.6336 62.1019 39.8498 62.08C40.1273 62.087 40.404 62.0499 40.6698 61.97C40.8442 61.9287 40.9991 61.8286 41.1084 61.6866C41.2176 61.5445 41.2746 61.3692 41.2698 61.19C41.2724 61.0855 41.2457 60.9823 41.1927 60.8921C41.1397 60.802 41.0625 60.7285 40.9698 60.68C40.6789 60.5264 40.3647 60.4216 40.0398 60.37L39.3198 60.21C38.8032 60.1237 38.3057 59.9477 37.8498 59.69C37.6221 59.5288 37.4398 59.3116 37.3207 59.0593C37.2015 58.807 37.1496 58.5283 37.1698 58.25C37.1636 57.966 37.2204 57.6841 37.3363 57.4247C37.4522 57.1653 37.6241 56.9349 37.8398 56.75C38.3886 56.3143 39.0809 56.1002 39.7798 56.15C40.4364 56.1302 41.0806 56.3309 41.6098 56.72C41.8591 56.9094 42.0605 57.1546 42.1977 57.436C42.3349 57.7173 42.4041 58.027 42.3998 58.34H41.0998C41.093 58.1632 41.0395 57.9914 40.9446 57.8421C40.8498 57.6927 40.717 57.5712 40.5598 57.49C40.3011 57.3666 40.0162 57.3082 39.7298 57.32C39.4178 57.3025 39.1078 57.3792 38.8398 57.54C38.7352 57.6027 38.6493 57.6924 38.5912 57.7998C38.5332 57.9071 38.505 58.0281 38.5098 58.15C38.5086 58.2606 38.539 58.3693 38.5974 58.4632C38.6559 58.5571 38.74 58.6323 38.8398 58.68C39.1246 58.8077 39.4233 58.9017 39.7298 58.96L40.8998 59.24C41.316 59.3164 41.7113 59.48 42.0598 59.72C42.2613 59.8844 42.4208 60.0944 42.5251 60.3326C42.6294 60.5708 42.6756 60.8304 42.6598 61.09C42.6642 61.3806 42.6026 61.6684 42.4796 61.9316C42.3566 62.1949 42.1755 62.4269 41.9498 62.61C41.3779 63.0466 40.6681 63.2631 39.9498 63.22C39.2086 63.2612 38.4753 63.0496 37.8698 62.62C37.6251 62.4245 37.4298 62.1742 37.2995 61.8893C37.1692 61.6045 37.1077 61.293 37.1198 60.98H38.3998Z" fill="#684A40" />
        <path d="M44.6498 60.98C44.6717 61.2278 44.7579 61.4657 44.8998 61.67C45.0566 61.8205 45.2443 61.9351 45.4497 62.0058C45.6552 62.0766 45.8736 62.1019 46.0898 62.08C46.3705 62.0869 46.6506 62.0498 46.9198 61.97C47.0924 61.9267 47.245 61.8258 47.3523 61.684C47.4596 61.5421 47.5152 61.3678 47.5098 61.19C47.5134 61.0865 47.4882 60.984 47.437 60.894C47.3858 60.8039 47.3106 60.7299 47.2198 60.68C46.9289 60.5264 46.6147 60.4216 46.2898 60.37L45.5698 60.21C45.0523 60.1275 44.5541 59.9513 44.0998 59.69C43.8721 59.5288 43.6898 59.3116 43.5707 59.0593C43.4516 58.807 43.3996 58.5283 43.4198 58.25C43.4137 57.967 43.4697 57.686 43.5837 57.4269C43.6977 57.1678 43.867 56.9367 44.0798 56.75C44.6317 56.3128 45.3276 56.0986 46.0298 56.15C46.6858 56.1348 47.3286 56.335 47.8598 56.72C48.1091 56.9094 48.3105 57.1546 48.4477 57.436C48.5849 57.7173 48.6541 58.027 48.6498 58.34H47.3098C47.3031 58.1632 47.2495 57.9914 47.1546 57.8421C47.0598 57.6927 46.927 57.5712 46.7698 57.49C46.5076 57.3665 46.2194 57.3082 45.9298 57.32C45.621 57.3027 45.3142 57.3794 45.0498 57.54C44.9451 57.6027 44.8593 57.6924 44.8012 57.7998C44.7432 57.9071 44.7151 58.0281 44.7198 58.15C44.7164 58.2598 44.7448 58.3682 44.8016 58.4622C44.8584 58.5563 44.9411 58.6319 45.0398 58.68C45.3253 58.8057 45.6238 58.8996 45.9298 58.96L47.1098 59.24C47.5253 59.3189 47.9201 59.4823 48.2698 59.72C48.4676 59.887 48.6239 60.0977 48.7263 60.3355C48.8287 60.5732 48.8744 60.8315 48.8598 61.09C48.8665 61.3809 48.8059 61.6694 48.6827 61.9331C48.5596 62.1967 48.3772 62.4284 48.1498 62.61C47.5779 63.0466 46.8681 63.2631 46.1498 63.22C45.4084 63.2628 44.6746 63.0511 44.0698 62.62C43.8233 62.4255 43.626 62.1757 43.494 61.8908C43.362 61.6058 43.2989 61.2938 43.3098 60.98H44.6498Z" fill="#684A40" />
        <path d="M54.3398 60.1C53.8559 60.458 53.2603 60.6317 52.6598 60.59H51.2698V62.98H49.8798V56.28H52.7498C53.3262 56.2486 53.8934 56.4341 54.3398 56.8C54.55 57.0067 54.7119 57.2574 54.8139 57.534C54.9159 57.8106 54.9555 58.1063 54.9298 58.4C54.9636 58.7094 54.9282 59.0224 54.8261 59.3164C54.7241 59.6104 54.558 59.8781 54.3398 60.1V60.1ZM53.2698 57.69C53.0597 57.5253 52.7963 57.4434 52.5298 57.46H51.2698V59.46H52.5298C52.6636 59.4701 52.7981 59.4532 52.9252 59.4102C53.0524 59.3673 53.1696 59.2992 53.2698 59.21C53.3651 59.109 53.4384 58.9893 53.4848 58.8584C53.5313 58.7276 53.5501 58.5885 53.5398 58.45C53.5578 58.311 53.5428 58.1697 53.4959 58.0377C53.4489 57.9056 53.3715 57.7865 53.2698 57.69V57.69Z" fill="#684A40" />
        <path d="M61.2098 62.4C60.5894 62.9043 59.8143 63.1796 59.0148 63.1796C58.2153 63.1796 57.4402 62.9043 56.8198 62.4C56.4691 62.0357 56.1989 61.6017 56.0266 61.1262C55.8543 60.6508 55.7839 60.1444 55.8198 59.64C55.7781 59.1351 55.8458 58.6271 56.0184 58.1508C56.191 57.6745 56.4643 57.241 56.8198 56.88C57.4402 56.3757 58.2153 56.1004 59.0148 56.1004C59.8143 56.1004 60.5894 56.3757 61.2098 56.88C61.5637 57.2421 61.836 57.6758 62.0085 58.1518C62.1809 58.6278 62.2496 59.1353 62.2098 59.64C62.2439 60.1443 62.1726 60.6501 62.0004 61.1253C61.8282 61.6005 61.559 62.0346 61.2098 62.4V62.4ZM60.3298 61.4C60.6507 60.8764 60.8206 60.2742 60.8206 59.66C60.8206 59.0458 60.6507 58.4437 60.3298 57.92C60.1752 57.7188 59.9747 57.5576 59.7451 57.4497C59.5155 57.3419 59.2634 57.2905 59.0098 57.3C58.7565 57.2922 58.505 57.3442 58.2756 57.452C58.0462 57.5597 57.8455 57.7201 57.6898 57.92C57.3634 58.4417 57.1903 59.0446 57.1903 59.66C57.1903 60.2754 57.3634 60.8784 57.6898 61.4C57.8455 61.5999 58.0462 61.7603 58.2756 61.868C58.505 61.9758 58.7565 62.0278 59.0098 62.02C59.2651 62.0272 59.5183 61.9727 59.748 61.8613C59.9778 61.7499 60.1774 61.5848 60.3298 61.38V61.4Z" fill="#684A40" />
        <path d="M67.5798 56.47C67.8229 56.5766 68.0384 56.7373 68.2098 56.94C68.348 57.1086 68.4593 57.2975 68.5398 57.5C68.6307 57.7255 68.6749 57.967 68.6698 58.21C68.6682 58.5383 68.5858 58.8611 68.4298 59.15C68.2563 59.4612 67.9699 59.6939 67.6298 59.8C67.9052 59.8938 68.1388 60.0814 68.2898 60.33C68.4301 60.644 68.4952 60.9864 68.4798 61.33V61.78C68.4577 61.9861 68.4577 62.1939 68.4798 62.4C68.4931 62.4784 68.5233 62.5529 68.5681 62.6185C68.613 62.6841 68.6716 62.7392 68.7398 62.78V62.98H67.1898C67.1498 62.8267 67.1198 62.7067 67.0998 62.62C67.0694 62.4279 67.0494 62.2343 67.0398 62.04V61.42C67.0723 61.1162 66.9942 60.8109 66.8198 60.56C66.5919 60.3939 66.3101 60.319 66.0298 60.35H64.6598V62.98H63.2898V56.28H66.4898C66.8616 56.2777 67.2308 56.342 67.5798 56.47V56.47ZM64.6898 57.47V59.27H66.1898C66.4219 59.2859 66.6546 59.2482 66.8698 59.16C67.0036 59.0898 67.1127 58.9802 67.1825 58.8462C67.2522 58.7121 67.2792 58.5599 67.2598 58.41C67.2812 58.2513 67.2568 58.0898 67.1895 57.9445C67.1222 57.7993 67.0147 57.6762 66.8798 57.59C66.6763 57.4972 66.4531 57.4559 66.2298 57.47H64.6898Z" fill="#684A40" />
        <path d="M74.8698 56.3V57.49H72.8698V62.98H71.4598V57.49H69.4598V56.3H74.8698Z" fill="#684A40" />
        <path d="M82.3198 3.98001V69.98H17.7798V3.98001H82.3198V3.98001ZM83.2198 0.980011H16.8798C16.6032 0.980008 16.3293 1.03466 16.0739 1.14082C15.8184 1.24697 15.5865 1.40255 15.3914 1.59862C15.1962 1.79468 15.0417 2.02737 14.9368 2.2833C14.8318 2.53924 14.7785 2.81339 14.7798 3.09001V70.92C14.7798 71.477 15.0011 72.0111 15.3949 72.4049C15.7887 72.7988 16.3229 73.02 16.8798 73.02H83.2198C83.7768 73.02 84.3109 72.7988 84.7048 72.4049C85.0986 72.0111 85.3198 71.477 85.3198 70.92V3.13001C85.3265 2.85006 85.2771 2.5716 85.1746 2.31101C85.072 2.05043 84.9184 1.81299 84.7227 1.61266C84.527 1.41233 84.2933 1.25316 84.0352 1.14451C83.7771 1.03586 83.4999 0.979932 83.2198 0.980011V0.980011Z" fill="#684A40" />
        <path d="M50.4298 19.99V47.51" stroke="#684A40" stroke-width="2" stroke-miterlimit="10" />
        <path d="M64.0698 33.75H36.4198" stroke="#684A40" stroke-width="2" stroke-miterlimit="10" />
        <path d="M50.4298 46.85C57.6648 46.85 63.5298 40.9849 63.5298 33.75C63.5298 26.5151 57.6648 20.65 50.4298 20.65C43.1949 20.65 37.3298 26.5151 37.3298 33.75C37.3298 40.9849 43.1949 46.85 50.4298 46.85Z" stroke="#684A40" stroke-width="2" stroke-miterlimit="10" />
        <path d="M50.4298 46.85C54.4284 46.85 57.6698 40.9849 57.6698 33.75C57.6698 26.5151 54.4284 20.65 50.4298 20.65C46.4313 20.65 43.1898 26.5151 43.1898 33.75C43.1898 40.9849 46.4313 46.85 50.4298 46.85Z" stroke="#684A40" stroke-width="2" stroke-miterlimit="10" />
        <path d="M39.6398 26.31C40.8896 27.2581 42.2983 27.9759 43.7998 28.43C48.1124 29.7635 52.7272 29.7635 57.0398 28.43C58.5445 27.976 59.9565 27.2582 61.2098 26.31" stroke="#684A40" stroke-width="2" stroke-miterlimit="10" />
        <path d="M60.8498 41.69C59.6302 40.8337 58.2791 40.1818 56.8498 39.76C52.6461 38.5199 48.1736 38.5199 43.9698 39.76C42.5423 40.1864 41.192 40.8379 39.9698 41.69" stroke="#684A40" stroke-width="2" stroke-miterlimit="10" />
    </symbol>
    <symbol id='documents' viewBox="0 0 101 76" fill="none" xmlns="http://www.w3.org/2000/svg">
        <path d="M75.6101 19.2955L59.8401 19.4255V6.54547" stroke="#684A40" stroke-width="3" stroke-linecap="round" stroke-linejoin="round" />
        <path d="M75.6101 19.2855V71.9755C75.5867 72.5228 75.3493 73.039 74.9491 73.4131C74.5488 73.7871 74.0178 73.9891 73.4701 73.9755H16.5801C16.0315 73.9892 15.4993 73.7875 15.0974 73.4137C14.6956 73.0399 14.4561 72.5237 14.4301 71.9755V8.57548C14.4561 8.02729 14.6956 7.51104 15.0974 7.13724C15.4993 6.76344 16.0315 6.5618 16.5801 6.57548H60.0901L75.6101 19.2855Z" stroke="#684A40" stroke-width="3" stroke-linecap="round" stroke-linejoin="round" />
        <path d="M23.4201 5.94548V4.02548C23.4486 3.47104 23.6945 2.95018 24.1044 2.5758C24.5144 2.20142 25.0554 2.00369 25.6101 2.02548H83.4901C84.0438 2.00376 84.5837 2.20179 84.9921 2.57643C85.4004 2.95106 85.6442 3.47192 85.6701 4.02548V67.4355C85.6442 67.989 85.4004 68.5099 84.9921 68.8845C84.5837 69.2592 84.0438 69.4572 83.4901 69.4355H75.6101" stroke="#684A40" stroke-width="3" stroke-miterlimit="10" />
        <path d="M22.2401 26.5555H47.4201" stroke="#684A40" stroke-width="3" stroke-miterlimit="10" stroke-linecap="round" />
        <path d="M22.2401 32.8755H55.7301" stroke="#684A40" stroke-width="3" stroke-miterlimit="10" stroke-linecap="round" />
        <path d="M22.2401 39.1955H55.7301" stroke="#684A40" stroke-width="3" stroke-miterlimit="10" stroke-linecap="round" />
        <path d="M22.2401 45.5155H55.7301" stroke="#684A40" stroke-width="3" stroke-miterlimit="10" stroke-linecap="round" />
        <path d="M22.1401 51.8355H37.3901" stroke="#684A40" stroke-width="3" stroke-miterlimit="10" stroke-linecap="round" />
    </symbol>
    <symbol id='marriage-cert' viewBox="0 0 101 72" fill="none" xmlns="http://www.w3.org/2000/svg">
        <path d="M29.7346 21.6509C32.7556 21.6509 35.2046 19.2019 35.2046 16.1809C35.2046 13.1599 32.7556 10.7109 29.7346 10.7109C26.7137 10.7109 24.2646 13.1599 24.2646 16.1809C24.2646 19.2019 26.7137 21.6509 29.7346 21.6509Z" stroke="#261D1C" stroke-width="3" stroke-miterlimit="10" />
        <path d="M29.5649 24.6914H19.2249C17.6849 24.6914 17.0149 26.5014 16.6949 27.9314L16.5749 28.6514L13.1349 44.1414C12.9049 45.6214 13.2849 47.1414 14.6649 47.7014C15.098 47.8636 15.5623 47.9255 16.0228 47.8825C16.4833 47.8394 16.9281 47.6926 17.3236 47.4529C17.7192 47.2133 18.0553 46.887 18.3067 46.4988C18.558 46.1106 18.7181 45.6704 18.7749 45.2114L21.5549 31.8314C21.5601 31.8184 21.5691 31.8073 21.5807 31.7994C21.5922 31.7916 21.6059 31.7874 21.6199 31.7874C21.6339 31.7874 21.6476 31.7916 21.6592 31.7994C21.6708 31.8073 21.6797 31.8184 21.6849 31.8314V67.2714C21.6788 67.6616 21.7531 68.0488 21.9033 68.409C22.0535 68.7691 22.2763 69.0944 22.5578 69.3647C22.8393 69.6349 23.1734 69.8442 23.5394 69.9796C23.9054 70.1149 24.2953 70.1734 24.6849 70.1514C25.4477 70.0847 26.1606 69.7442 26.6918 69.1927C27.2231 68.6413 27.5368 67.9162 27.5749 67.1514V50.5414C27.5749 49.8814 27.8249 49.3414 28.1349 49.3414H29.8249" stroke="#261D1C" stroke-width="3" stroke-miterlimit="10" />
        <path d="M29.1352 24.6914H39.4752C41.0152 24.6914 41.6852 26.5014 42.0052 27.9314L42.1252 28.6514L45.5652 44.1414C45.7952 45.6214 45.4152 47.1414 44.0352 47.7014C43.6021 47.8636 43.1378 47.9255 42.6773 47.8825C42.2168 47.8394 41.7721 47.6926 41.3765 47.4529C40.9809 47.2133 40.6448 46.887 40.3935 46.4988C40.1421 46.1106 39.982 45.6704 39.9252 45.2114L37.1452 31.8314C37.1452 31.7514 37.0052 31.7614 37.0052 31.8314V67.2714C37.0128 67.662 36.9395 68.0499 36.7898 68.4107C36.6402 68.7716 36.4174 69.0975 36.1356 69.3681C35.8538 69.6386 35.5191 69.8479 35.1524 69.9827C34.7858 70.1175 34.3952 70.1749 34.0052 70.1514C33.2424 70.0847 32.5295 69.7442 31.9983 69.1927C31.4671 68.6413 31.1534 67.9162 31.1152 67.1514V50.5414C31.1152 49.8814 30.8652 49.3414 30.5552 49.3414H28.8652" stroke="#261D1C" stroke-width="3" stroke-miterlimit="10" />
        <path d="M67.0045 13.102C68.8602 13.102 70.3645 11.4186 70.3645 9.34203C70.3645 7.26544 68.8602 5.58203 67.0045 5.58203C65.1489 5.58203 63.6445 7.26544 63.6445 9.34203C63.6445 11.4186 65.1489 13.102 67.0045 13.102Z" stroke="#261D1C" stroke-width="3" stroke-miterlimit="10" />
        <path d="M67.7653 69.1217H78.8653C81.5253 60.9517 80.8653 55.3217 79.6853 51.6317C79.0153 49.5117 78.0053 47.4717 76.9153 43.3817C76.0823 40.1258 75.5105 36.8086 75.2053 33.4617C75.1981 33.4293 75.2036 33.3953 75.2207 33.3667C75.2378 33.3382 75.2651 33.3173 75.2971 33.3083C75.3292 33.2994 75.3634 33.303 75.3928 33.3185C75.4222 33.3341 75.4446 33.3602 75.4553 33.3917L80.5553 44.2817C81.5553 46.2817 82.9753 47.3617 84.9653 46.6017C85.6613 46.3878 86.2523 45.9215 86.6223 45.2943C86.9923 44.6672 87.1146 43.9244 86.9653 43.2117L81.2053 26.8817C80.6853 25.5917 80.6153 23.7617 78.5453 23.7617H56.9553C54.8853 23.7617 54.8053 25.5917 54.2853 26.8817L48.5253 43.2117C48.3783 43.9242 48.5016 44.666 48.8713 45.2926C49.241 45.9192 49.8305 46.3858 50.5253 46.6017C52.5253 47.3617 53.9453 46.2817 54.9353 44.2817L60.0353 33.3917C60.051 33.3656 60.0747 33.3454 60.1029 33.334C60.1311 33.3226 60.1623 33.3207 60.1917 33.3286C60.2211 33.3365 60.2471 33.3538 60.2658 33.3778C60.2845 33.4018 60.2948 33.4313 60.2953 33.4617C59.9852 36.808 59.4134 40.1248 58.5853 43.3817C57.4853 47.4717 56.4753 49.5117 55.8053 51.6317C54.6453 55.3217 53.9753 60.9517 56.6253 69.1217H67.7653Z" stroke="#261D1C" stroke-width="3" stroke-miterlimit="10" />
        <path d="M54.7646 16.8418C54.7646 8.5618 60.2446 1.8418 66.9946 1.8418C73.7446 1.8418 79.2247 8.5518 79.2247 16.8418" stroke="#261D1C" stroke-width="3" stroke-miterlimit="10" />
        <path d="M67.0052 20.7213C70.0262 20.7213 72.4752 18.2722 72.4752 15.2512C72.4752 12.2303 70.0262 9.78125 67.0052 9.78125C63.9842 9.78125 61.5352 12.2303 61.5352 15.2512C61.5352 18.2722 63.9842 20.7213 67.0052 20.7213Z" fill="#F8F3F1" stroke="#261D1C" stroke-width="3" stroke-miterlimit="10" />
    </symbol>
    <symbol id='death-cert' viewBox="0 0 102 73" fill="none" xmlns="http://www.w3.org/2000/svg">
        <g clip-path="url(#clip0_566_1630)">
            <path d="M39.0502 14.0403C39.5021 14.1862 39.8926 14.4782 40.1602 14.8703C40.3848 15.1858 40.5445 15.5427 40.6302 15.9203C40.708 16.2717 40.7483 16.6304 40.7502 16.9903C40.7767 17.757 40.5972 18.5167 40.2303 19.1903C40.0167 19.5789 39.698 19.8994 39.3106 20.1151C38.9233 20.3309 38.483 20.4332 38.0403 20.4103H35.2402V13.9003H38.0002C38.3556 13.8881 38.7105 13.9354 39.0502 14.0403ZM36.5602 15.0403V19.2903H37.8102C38.1083 19.3019 38.4019 19.2152 38.6459 19.0436C38.8898 18.8719 39.0705 18.6248 39.1602 18.3403C39.3086 17.9441 39.3799 17.5233 39.3702 17.1003C39.3969 16.5724 39.2903 16.0462 39.0602 15.5703C38.918 15.3786 38.7271 15.2285 38.5073 15.1353C38.2876 15.0421 38.0469 15.0093 37.8102 15.0403H36.5602Z" fill="#261D1C" />
            <path d="M46.5796 15.0508H43.1396V16.4308H46.2996V17.5608H43.1396V19.2408H46.7396V20.4108H41.8096V13.9008H46.5796V15.0508ZM45.7396 12.0508L44.3896 13.3708H43.4796L44.3296 12.0508H45.7396Z" fill="#261D1C" />
            <path d="M48.4301 14.5794C48.7286 14.2978 49.0817 14.0804 49.4676 13.9408C49.8535 13.8011 50.264 13.7421 50.6736 13.7674C51.0832 13.7927 51.4832 13.9018 51.849 14.0879C52.2148 14.274 52.5385 14.5332 52.8001 14.8494C53.0618 15.2056 53.2178 15.6285 53.2501 16.0694H51.8901C51.8279 15.8133 51.7158 15.572 51.5601 15.3594C51.4221 15.2142 51.2537 15.1012 51.067 15.0286C50.8803 14.956 50.6799 14.9255 50.4801 14.9394C50.2542 14.9328 50.0303 14.9834 49.8292 15.0866C49.6282 15.1897 49.4564 15.3421 49.3301 15.5294C49.0241 16.0417 48.8779 16.6336 48.9101 17.2294C48.8663 17.8116 49.0253 18.391 49.3601 18.8694C49.491 19.042 49.6604 19.1816 49.8549 19.2771C50.0494 19.3726 50.2634 19.4213 50.4801 19.4194C50.6828 19.4308 50.8854 19.3942 51.0714 19.3125C51.2573 19.2308 51.4213 19.1064 51.5501 18.9494C51.7114 18.7204 51.8269 18.4623 51.8901 18.1894H53.2401C53.1456 18.8517 52.8281 19.4619 52.3401 19.9194C51.8392 20.3768 51.1778 20.6176 50.5001 20.5894C50.0928 20.6097 49.686 20.5396 49.3091 20.384C48.9321 20.2284 48.5944 19.9911 48.3201 19.6894C47.7548 18.9907 47.4696 18.1067 47.5201 17.2094C47.4873 16.7324 47.5511 16.2537 47.7074 15.8018C47.8638 15.3499 48.1095 14.9342 48.4301 14.5794Z" fill="#261D1C" />
            <path d="M59.1499 15.0508H55.7099V16.4308H58.8699V17.5608H55.7099V19.2408H59.3099V20.4108H54.3799V13.9008H59.1499V15.0508ZM58.2999 12.0508L56.9999 13.3808H56.0899L56.9399 12.0608L58.2999 12.0508Z" fill="#261D1C" />
            <path d="M61.35 18.4006C61.3711 18.6425 61.4575 18.874 61.6 19.0706C61.7535 19.2163 61.9365 19.3275 62.1366 19.3965C62.3367 19.4655 62.5493 19.4908 62.76 19.4706C63.0308 19.477 63.3009 19.4399 63.56 19.3606C63.7282 19.3215 63.8779 19.2255 63.9835 19.0889C64.0892 18.9522 64.1445 18.7833 64.14 18.6106C64.1417 18.5088 64.1156 18.4084 64.0645 18.3203C64.0134 18.2322 63.9392 18.1597 63.85 18.1106C63.5684 17.96 63.2646 17.8554 62.95 17.8006L62.25 17.6506C61.7485 17.5659 61.265 17.3969 60.82 17.1506C60.5983 16.9919 60.4212 16.7788 60.3056 16.5319C60.19 16.285 60.1399 16.0125 60.16 15.7406C60.1526 15.4666 60.2062 15.1944 60.3168 14.9436C60.4275 14.6928 60.5925 14.4698 60.8 14.2906C61.3349 13.867 62.0095 13.66 62.69 13.7106C63.3263 13.6918 63.9514 13.8814 64.47 14.2506C64.7115 14.439 64.9065 14.6803 65.0401 14.956C65.1736 15.2316 65.2419 15.5343 65.24 15.8406H63.94C63.9325 15.6665 63.8796 15.4975 63.7866 15.3502C63.6937 15.2028 63.5638 15.0823 63.41 15.0006C63.156 14.8852 62.8787 14.8305 62.6 14.8406C62.2989 14.8249 61.9999 14.8979 61.74 15.0506C61.6402 15.1129 61.5582 15.2 61.5021 15.3034C61.446 15.4068 61.4177 15.523 61.42 15.6406C61.4138 15.7483 61.44 15.8554 61.4953 15.9481C61.5505 16.0408 61.6323 16.1148 61.73 16.1606C62.0079 16.2856 62.3001 16.3763 62.6 16.4306L63.74 16.7006C64.1464 16.7787 64.5316 16.9423 64.87 17.1806C65.0659 17.3398 65.2208 17.5437 65.3217 17.7751C65.4226 18.0065 65.4666 18.2587 65.45 18.5106C65.4537 18.7933 65.3935 19.0732 65.2741 19.3294C65.1546 19.5857 64.9789 19.8117 64.76 19.9906C64.2015 20.4142 63.5096 20.6235 62.81 20.5806C62.0976 20.6134 61.3943 20.4094 60.81 20.0006C60.5684 19.8118 60.3753 19.5683 60.2466 19.29C60.1179 19.0118 60.0574 18.7069 60.07 18.4006H61.35Z" fill="#261D1C" />
            <path d="M17.6498 2H83.4498C83.7812 2 84.0498 2.26863 84.0498 2.6V70.4C84.0498 70.7314 83.7812 71 83.4498 71H17.6498C17.3184 71 17.0498 70.7314 17.0498 70.4V2.6C17.0498 2.26863 17.3184 2 17.6498 2Z" stroke="#261D1C" stroke-width="3" stroke-miterlimit="10" />
            <path d="M23.4199 30.7305H42.2099" stroke="#261D1C" stroke-width="3" stroke-miterlimit="10" stroke-linecap="round" />
            <path d="M23.1396 36.8203H36.4396" stroke="#261D1C" stroke-width="3" stroke-miterlimit="10" stroke-linecap="round" />
            <path d="M23.1396 43.5508H48.5896" stroke="#261D1C" stroke-width="3" stroke-miterlimit="10" stroke-linecap="round" />
            <path d="M23.1396 50.2891H44.1896" stroke="#261D1C" stroke-width="3" stroke-miterlimit="10" stroke-linecap="round" />
        </g>
        <defs>
            <clipPath id="clip0_566_1630">
                <rect width="101" height="72" fill="white" transform="translate(0.5 0.5)" />
            </clipPath>
        </defs>
    </symbol>
    <symbol id='driving-license' viewBox="0 0 101 73" fill="none" xmlns="http://www.w3.org/2000/svg">
        <g clip-path="url(#clip0_566_976)">
            <path d="M72.1674 9.16992H2.3091C1.97551 9.16992 1.70508 9.44303 1.70508 9.77992V43.3199C1.70508 43.6568 1.97551 43.9299 2.3091 43.9299H72.1674C72.501 43.9299 72.7715 43.6568 72.7715 43.3199V9.77992C72.7715 9.44303 72.501 9.16992 72.1674 9.16992Z" fill="#F8F3F1" />
            <path d="M71.2861 10.6699V42.4299H3.19034V10.6699H71.2861ZM72.1674 7.66992H2.29916C1.74676 7.67257 1.21787 7.89603 0.828191 8.29144C0.438508 8.68686 0.219744 9.22203 0.21975 9.77991V43.3199C0.218446 43.5965 0.271269 43.8707 0.375185 44.1266C0.479101 44.3826 0.632063 44.6152 0.825284 44.8113C1.0185 45.0074 1.24818 45.1629 1.50111 45.2691C1.75405 45.3753 2.02525 45.4299 2.29916 45.4299H72.1674C72.4421 45.4313 72.7144 45.3776 72.9685 45.272C73.2226 45.1664 73.4534 45.0111 73.6477 44.8149C73.842 44.6187 73.9958 44.3855 74.1003 44.1289C74.2049 43.8723 74.258 43.5974 74.2567 43.3199V9.77991C74.2567 9.2203 74.0366 8.68364 73.6448 8.28793C73.2529 7.89223 72.7215 7.66992 72.1674 7.66992Z" fill="#261D1C" />
            <path d="M35.124 21.1602H64.4932" stroke="#261D1C" stroke-width="3" stroke-miterlimit="10" stroke-linecap="round" />
            <path d="M35.124 31.9395H56.4628" stroke="#261D1C" stroke-width="3" stroke-miterlimit="10" stroke-linecap="round" />
            <path d="M35.124 26.5508H50.6107" stroke="#261D1C" stroke-width="3" stroke-miterlimit="10" stroke-linecap="round" />
            <path d="M12.1021 27.9102H25.0836C25.6823 27.9102 26.2566 28.1504 26.68 28.578C27.1034 29.0055 27.3412 29.5855 27.3412 30.1902V34.4102C27.3412 34.5481 27.287 34.6803 27.1904 34.7779C27.0938 34.8754 26.9629 34.9302 26.8263 34.9302H10.3792C10.2426 34.9302 10.1116 34.8754 10.0151 34.7779C9.91851 34.6803 9.86426 34.5481 9.86426 34.4102V30.1802C9.86684 29.5806 10.1031 29.0063 10.522 28.5814C10.9408 28.1566 11.5085 27.9154 12.1021 27.9102V27.9102Z" stroke="#261D1C" stroke-width="3" stroke-miterlimit="10" />
            <path d="M18.5977 25.7797C20.6758 25.7797 22.3605 24.0784 22.3605 21.9797C22.3605 19.881 20.6758 18.1797 18.5977 18.1797C16.5196 18.1797 14.835 19.881 14.835 21.9797C14.835 24.0784 16.5196 25.7797 18.5977 25.7797Z" fill="#F8F3F1" stroke="#261D1C" stroke-width="3" stroke-miterlimit="10" />
            <path d="M33.7285 56.7698H28.0447C27.7951 56.7698 27.5478 56.7202 27.3172 56.6237C27.0865 56.5272 26.8769 56.3858 26.7004 56.2075C26.5239 56.0292 26.3838 55.8175 26.2883 55.5846C26.1927 55.3517 26.1436 55.102 26.1436 54.8498V41.3298C26.1435 40.8197 26.3435 40.3303 26.6998 39.9686C27.0561 39.607 27.5396 39.4025 28.0447 39.3998H38.6299L41.5015 29.3998C41.8364 28.2292 42.5391 27.2001 43.5035 26.4678C44.4679 25.7355 45.6419 25.3397 46.8486 25.3399H71.6134C71.8687 25.3389 72.1174 25.4225 72.3212 25.5778C72.5251 25.7331 72.6729 25.9516 72.7422 26.1998L76.3465 39.4098L88.9913 39.3598C98.2298 39.3598 98.9923 50.2498 98.8933 54.8098C98.8933 55.3403 98.6846 55.849 98.3132 56.224C97.9418 56.5991 97.4381 56.8098 96.9129 56.8098H87.1198" fill="#F8F3F1" />
            <path d="M33.7285 56.7698H28.0447C27.7951 56.7698 27.5478 56.7202 27.3172 56.6237C27.0865 56.5272 26.8769 56.3858 26.7004 56.2075C26.5239 56.0292 26.3838 55.8175 26.2883 55.5846C26.1927 55.3517 26.1436 55.102 26.1436 54.8498V41.3298C26.1435 40.8197 26.3435 40.3303 26.6998 39.9686C27.0561 39.607 27.5396 39.4025 28.0447 39.3998H38.6299L41.5015 29.3998C41.8364 28.2292 42.5391 27.2001 43.5035 26.4678C44.4679 25.7355 45.6419 25.3397 46.8486 25.3399H71.6134C71.8687 25.3389 72.1174 25.4225 72.3212 25.5778C72.5251 25.7331 72.6729 25.9516 72.7422 26.1998L76.3465 39.4098L88.9913 39.3598C98.2298 39.3598 98.9923 50.2498 98.8933 54.8098C98.8933 55.3403 98.6846 55.849 98.3132 56.224C97.9418 56.5991 97.4381 56.8098 96.9129 56.8098H87.1198" stroke="#261D1C" stroke-width="3" stroke-miterlimit="10" />
            <path d="M69.6919 37.9499L68.5334 31.0899C68.4822 30.8075 68.3339 30.5523 68.1147 30.3694C67.8956 30.1865 67.6196 30.0875 67.3353 30.0899H59.5226C59.1996 30.0899 58.8898 30.2194 58.6614 30.4501C58.433 30.6808 58.3047 30.9936 58.3047 31.3199V38.1699C58.3047 38.4961 58.433 38.809 58.6614 39.0396C58.8898 39.2703 59.1996 39.3999 59.5226 39.3999H68.4938C68.6722 39.3999 68.8484 39.3602 69.0099 39.2839C69.1715 39.2075 69.3145 39.0962 69.4288 38.9579C69.5431 38.8196 69.6259 38.6577 69.6713 38.4835C69.7168 38.3093 69.7238 38.1271 69.6919 37.9499V37.9499Z" stroke="#261D1C" stroke-width="3" stroke-miterlimit="10" />
            <path d="M75.8809 56.7695H44.957" stroke="#261D1C" stroke-width="3" stroke-miterlimit="10" />
            <path d="M81.5049 65.3298C84.8736 65.3298 87.6045 62.5718 87.6045 59.1698C87.6045 55.7677 84.8736 53.0098 81.5049 53.0098C78.1362 53.0098 75.4053 55.7677 75.4053 59.1698C75.4053 62.5718 78.1362 65.3298 81.5049 65.3298Z" stroke="#261D1C" stroke-width="3" stroke-miterlimit="10" />
            <path d="M39.3428 65.3298C42.7115 65.3298 45.4424 62.5718 45.4424 59.1698C45.4424 55.7677 42.7115 53.0098 39.3428 53.0098C35.9741 53.0098 33.2432 55.7677 33.2432 59.1698C33.2432 62.5718 35.9741 65.3298 39.3428 65.3298Z" stroke="#261D1C" stroke-width="3" stroke-miterlimit="10" />
        </g>
        <defs>
            <clipPath id="clip0_566_976">
                <rect width="101" height="72" fill="white" transform="translate(0 0.5)" />
            </clipPath>
        </defs>
    </symbol>

    <symbol id='vehicle-regist' viewBox="0 0 101 72" fill="none" xmlns="http://www.w3.org/2000/svg">
        <g clip-path="url(#clip0_566_1785)">
            <path d="M78.4785 9.06445H4.21535C3.86072 9.06445 3.57324 9.33756 3.57324 9.67445V43.2145C3.57324 43.5513 3.86072 43.8245 4.21535 43.8245H78.4785C78.8331 43.8245 79.1206 43.5513 79.1206 43.2145V9.67445C79.1206 9.33756 78.8331 9.06445 78.4785 9.06445Z" fill="#F8F3F1" />
            <path d="M77.5415 10.5645V42.3245H5.15206V10.5645H77.5415ZM78.4784 7.56445H4.20468C3.61745 7.5671 3.05522 7.79056 2.64096 8.18597C2.22671 8.58139 1.99416 9.11656 1.99417 9.67444V43.2144C1.99278 43.4911 2.04893 43.7652 2.15939 44.0211C2.26986 44.2771 2.43247 44.5098 2.63788 44.7058C2.84328 44.9019 3.08744 45.0575 3.35633 45.1636C3.62521 45.2698 3.9135 45.3245 4.20468 45.3245H78.4784C79.0674 45.3245 79.6324 45.1022 80.0489 44.7065C80.4654 44.3107 80.6994 43.7741 80.6994 43.2144V9.67444C80.6967 9.11564 80.4618 8.5805 80.0458 8.18536C79.6299 7.79023 79.0666 7.56708 78.4784 7.56445Z" fill="#261D1C" />
            <path d="M15.8675 22.1548C16.4023 23.352 16.6779 24.6392 16.6779 25.9398C16.6779 27.2403 16.4023 28.5276 15.8675 29.7248C15.542 30.1367 15.12 30.4711 14.6349 30.7013C14.1499 30.9316 13.6151 31.0515 13.0728 31.0515C12.5306 31.0515 11.9958 30.9316 11.5107 30.7013C11.0257 30.4711 10.6036 30.1367 10.2781 29.7248C9.75029 28.5259 9.47852 27.2393 9.47852 25.9398C9.47852 24.6403 9.75029 23.3537 10.2781 22.1548C10.6036 21.7428 11.0257 21.4085 11.5107 21.1783C11.9958 20.948 12.5306 20.8281 13.0728 20.8281C13.6151 20.8281 14.1499 20.948 14.6349 21.1783C15.12 21.4085 15.542 21.7428 15.8675 22.1548ZM11.8676 28.5548C11.9225 28.8184 12.0745 29.0549 12.2963 29.2217C12.5182 29.3885 12.7954 29.4746 13.0781 29.4648C13.3601 29.4764 13.6369 29.3906 13.8575 29.2233C14.0781 29.0561 14.2275 28.8186 14.2781 28.5548C14.6571 26.8199 14.6571 25.0296 14.2781 23.2948C14.2185 23.0393 14.0649 22.8123 13.8449 22.6547C13.625 22.497 13.3531 22.4191 13.0781 22.4348C12.8022 22.4207 12.5299 22.499 12.3087 22.6562C12.0874 22.8134 11.9313 23.0394 11.8676 23.2948C11.4745 25.0283 11.4745 26.8213 11.8676 28.5548Z" fill="#261D1C" />
            <path d="M24.0678 22.1548C24.5955 23.3537 24.8673 24.6403 24.8673 25.9398C24.8673 27.2393 24.5955 28.5259 24.0678 29.7248C23.7422 30.1367 23.3202 30.4711 22.8351 30.7013C22.3501 30.9316 21.8153 31.0515 21.273 31.0515C20.7308 31.0515 20.196 30.9316 19.7109 30.7013C19.2258 30.4711 18.8039 30.1367 18.4783 29.7248C17.9505 28.5259 17.6787 27.2393 17.6787 25.9398C17.6787 24.6403 17.9505 23.3537 18.4783 22.1548C18.8039 21.7428 19.2258 21.4085 19.7109 21.1783C20.196 20.948 20.7308 20.8281 21.273 20.8281C21.8153 20.8281 22.3501 20.948 22.8351 21.1783C23.3202 21.4085 23.7422 21.7428 24.0678 22.1548ZM20.0678 28.5548C20.1206 28.8194 20.2721 29.0571 20.4944 29.2242C20.7168 29.3913 20.995 29.4767 21.2783 29.4648C21.5585 29.4739 21.8328 29.387 22.0512 29.22C22.2695 29.0529 22.4174 28.8168 22.4678 28.5548C22.8468 26.8199 22.8468 25.0296 22.4678 23.2948C22.4104 23.0401 22.2589 22.8133 22.0407 22.6555C21.8225 22.4978 21.552 22.4195 21.2783 22.4348C21.002 22.4187 20.7286 22.4963 20.5069 22.6538C20.2852 22.8113 20.1296 23.0385 20.0678 23.2948C19.6747 25.0283 19.6747 26.8213 20.0678 28.5548Z" fill="#261D1C" />
            <path d="M32.268 22.1548C32.7957 23.3537 33.0675 24.6403 33.0675 25.9398C33.0675 27.2393 32.7957 28.5259 32.268 29.7248C31.9424 30.1367 31.5204 30.4711 31.0353 30.7013C30.5503 30.9316 30.0155 31.0515 29.4732 31.0515C28.931 31.0515 28.3962 30.9316 27.9111 30.7013C27.426 30.4711 27.0041 30.1367 26.6785 29.7248C26.1437 28.5276 25.8682 27.2403 25.8682 25.9398C25.8682 24.6392 26.1437 23.352 26.6785 22.1548C27.0041 21.7428 27.426 21.4085 27.9111 21.1783C28.3962 20.948 28.931 20.8281 29.4732 20.8281C30.0155 20.8281 30.5503 20.948 31.0353 21.1783C31.5204 21.4085 31.9424 21.7428 32.268 22.1548ZM28.2574 28.5548C28.3123 28.8184 28.4643 29.0549 28.6862 29.2217C28.9081 29.3885 29.1852 29.4746 29.468 29.4648C29.7499 29.4764 30.0268 29.3906 30.2474 29.2233C30.468 29.0561 30.6174 28.8186 30.668 28.5548C31.047 26.8199 31.047 25.0296 30.668 23.2948C30.6083 23.0393 30.4548 22.8123 30.2348 22.6547C30.0149 22.497 29.743 22.4191 29.468 22.4348C29.1921 22.4207 28.9198 22.499 28.6985 22.6562C28.4773 22.8134 28.3212 23.0394 28.2574 23.2948C27.8644 25.0283 27.8644 26.8213 28.2574 28.5548Z" fill="#261D1C" />
            <path d="M44.5521 22.1548C45.0869 23.352 45.3624 24.6392 45.3624 25.9398C45.3624 27.2403 45.0869 28.5276 44.5521 29.7248C44.2266 30.1367 43.8046 30.4711 43.3195 30.7013C42.8344 30.9316 42.2996 31.0515 41.7574 31.0515C41.2151 31.0515 40.6803 30.9316 40.1953 30.7013C39.7102 30.4711 39.2882 30.1367 38.9626 29.7248C38.4349 28.5259 38.1631 27.2393 38.1631 25.9398C38.1631 24.6403 38.4349 23.3537 38.9626 22.1548C39.2882 21.7428 39.7102 21.4085 40.1953 21.1783C40.6803 20.948 41.2151 20.8281 41.7574 20.8281C42.2996 20.8281 42.8344 20.948 43.3195 21.1783C43.8046 21.4085 44.2266 21.7428 44.5521 22.1548ZM40.5521 28.5548C40.607 28.8184 40.759 29.0549 40.9809 29.2217C41.2027 29.3885 41.4799 29.4746 41.7627 29.4648C42.0446 29.4764 42.3215 29.3906 42.5421 29.2233C42.7627 29.0561 42.9121 28.8186 42.9627 28.5548C43.3417 26.8199 43.3417 25.0296 42.9627 23.2948C42.903 23.0393 42.7495 22.8123 42.5295 22.6547C42.3096 22.497 42.0377 22.4191 41.7627 22.4348C41.4868 22.4207 41.2145 22.499 40.9932 22.6562C40.772 22.8134 40.6159 23.0394 40.5521 23.2948C40.1591 25.0283 40.1591 26.8213 40.5521 28.5548Z" fill="#261D1C" />
            <path d="M52.7523 22.1548C53.2801 23.3537 53.5519 24.6403 53.5519 25.9398C53.5519 27.2393 53.2801 28.5259 52.7523 29.7248C52.4268 30.1367 52.0048 30.4711 51.5197 30.7013C51.0346 30.9316 50.4998 31.0515 49.9576 31.0515C49.4153 31.0515 48.8805 30.9316 48.3955 30.7013C47.9104 30.4711 47.4884 30.1367 47.1629 29.7248C46.6351 28.5259 46.3633 27.2393 46.3633 25.9398C46.3633 24.6403 46.6351 23.3537 47.1629 22.1548C47.4884 21.7428 47.9104 21.4085 48.3955 21.1783C48.8805 20.948 49.4153 20.8281 49.9576 20.8281C50.4998 20.8281 51.0346 20.948 51.5197 21.1783C52.0048 21.4085 52.4268 21.7428 52.7523 22.1548ZM48.7418 28.5548C48.7967 28.8184 48.9487 29.0549 49.1706 29.2217C49.3924 29.3885 49.6696 29.4746 49.9523 29.4648C50.2343 29.4764 50.5112 29.3906 50.7318 29.2233C50.9523 29.0561 51.1017 28.8186 51.1523 28.5548C51.5314 26.8199 51.5314 25.0296 51.1523 23.2948C51.0927 23.0393 50.9391 22.8123 50.7192 22.6547C50.4992 22.497 50.2273 22.4191 49.9523 22.4348C49.6765 22.4207 49.4041 22.499 49.1829 22.6562C48.9617 22.8134 48.8055 23.0394 48.7418 23.2948C48.3488 25.0283 48.3488 26.8213 48.7418 28.5548Z" fill="#261D1C" />
            <path d="M65.0365 22.1548C65.5713 23.352 65.8468 24.6392 65.8468 25.9398C65.8468 27.2403 65.5713 28.5276 65.0365 29.7248C64.7109 30.1367 64.2889 30.4711 63.8039 30.7013C63.3188 30.9316 62.784 31.0515 62.2418 31.0515C61.6995 31.0515 61.1647 30.9316 60.6797 30.7013C60.1946 30.4711 59.7726 30.1367 59.447 29.7248C58.9193 28.5259 58.6475 27.2393 58.6475 25.9398C58.6475 24.6403 58.9193 23.3537 59.447 22.1548C59.7726 21.7428 60.1946 21.4085 60.6797 21.1783C61.1647 20.948 61.6995 20.8281 62.2418 20.8281C62.784 20.8281 63.3188 20.948 63.8039 21.1783C64.2889 21.4085 64.7109 21.7428 65.0365 22.1548ZM61.0365 28.5548C61.0914 28.8184 61.2434 29.0549 61.4653 29.2217C61.6871 29.3885 61.9643 29.4746 62.247 29.4648C62.529 29.4764 62.8059 29.3906 63.0265 29.2233C63.247 29.0561 63.3965 28.8186 63.447 28.5548C63.8261 26.8199 63.8261 25.0296 63.447 23.2948C63.3874 23.0393 63.2338 22.8123 63.0139 22.6547C62.794 22.497 62.522 22.4191 62.247 22.4348C61.9712 22.4207 61.6988 22.499 61.4776 22.6562C61.2564 22.8134 61.1002 23.0394 61.0365 23.2948C60.6435 25.0283 60.6435 26.8213 61.0365 28.5548Z" fill="#261D1C" />
            <path d="M73.2367 22.1548C73.7645 23.3537 74.0363 24.6403 74.0363 25.9398C74.0363 27.2393 73.7645 28.5259 73.2367 29.7248C72.9111 30.1367 72.4891 30.4711 72.0041 30.7013C71.519 30.9316 70.9842 31.0515 70.442 31.0515C69.8997 31.0515 69.3649 30.9316 68.8799 30.7013C68.3948 30.4711 67.9728 30.1367 67.6472 29.7248C67.1194 28.5259 66.8477 27.2393 66.8477 25.9398C66.8477 24.6403 67.1194 23.3537 67.6472 22.1548C67.9728 21.7428 68.3948 21.4085 68.8799 21.1783C69.3649 20.948 69.8997 20.8281 70.442 20.8281C70.9842 20.8281 71.519 20.948 72.0041 21.1783C72.4891 21.4085 72.9111 21.7428 73.2367 22.1548ZM69.2367 28.5548C69.2896 28.8194 69.4411 29.0571 69.6634 29.2242C69.8857 29.3913 70.164 29.4767 70.4472 29.4648C70.7274 29.4739 71.0017 29.387 71.2201 29.22C71.4385 29.0529 71.5863 28.8168 71.6367 28.5548C72.0158 26.8199 72.0158 25.0296 71.6367 23.2948C71.5793 23.0401 71.4278 22.8133 71.2096 22.6555C70.9914 22.4978 70.7209 22.4195 70.4472 22.4348C70.1709 22.4187 69.8975 22.4963 69.6758 22.6538C69.4542 22.8113 69.2985 23.0385 69.2367 23.2948C68.8437 25.0283 68.8437 26.8213 69.2367 28.5548Z" fill="#261D1C" />
            <path d="M30.4049 55.8453H24.3628C23.8268 55.8453 23.3128 55.6431 22.9337 55.283C22.5547 54.9229 22.3418 54.4345 22.3418 53.9253V40.4353C22.3418 39.9235 22.5558 39.4326 22.9368 39.0706C23.3178 38.7087 23.8346 38.5053 24.3734 38.5053H35.626L38.6786 28.5053C39.0316 27.333 39.7777 26.3021 40.8037 25.5693C41.8296 24.8365 43.0793 24.4419 44.3628 24.4453H70.6786C70.9487 24.4449 71.2115 24.5289 71.4264 24.6843C71.6413 24.8397 71.7966 25.0579 71.8681 25.3053L75.7102 38.5153L89.1523 38.4653C98.9734 38.4653 99.7734 49.3553 99.6786 53.9153C99.6786 54.4458 99.4568 54.9545 99.062 55.3296C98.6672 55.7046 98.1317 55.9153 97.5734 55.9153H87.1839" fill="#F8F3F1" />
            <path d="M30.4049 55.8453H24.3628C23.8268 55.8453 23.3128 55.6431 22.9337 55.283C22.5547 54.9229 22.3418 54.4345 22.3418 53.9253V40.4353C22.3418 39.9235 22.5558 39.4326 22.9368 39.0706C23.3178 38.7087 23.8346 38.5053 24.3734 38.5053H35.626L38.6786 28.5053C39.0316 27.333 39.7777 26.3021 40.8037 25.5693C41.8296 24.8365 43.0793 24.4419 44.3628 24.4453H70.6786C70.9487 24.4449 71.2115 24.5289 71.4264 24.6843C71.6413 24.8397 71.7966 25.0579 71.8681 25.3053L75.7102 38.5153L89.1523 38.4653C98.9734 38.4653 99.7734 49.3553 99.6786 53.9153C99.6786 54.4458 99.4568 54.9545 99.062 55.3296C98.6672 55.7046 98.1317 55.9153 97.5734 55.9153H87.1839" stroke="#261D1C" stroke-width="3" stroke-miterlimit="10" />
            <path d="M68.6473 37.0241L67.4052 30.1641C67.3507 29.8817 67.1931 29.6266 66.9601 29.4436C66.7271 29.2607 66.4337 29.1618 66.1315 29.1641H57.8262C57.4846 29.1667 57.158 29.2975 56.9175 29.5279C56.6769 29.7583 56.542 30.0696 56.542 30.3941V37.2441C56.542 37.5686 56.6769 37.8799 56.9175 38.1103C57.158 38.3407 57.4846 38.4715 57.8262 38.4741H67.3736C67.5632 38.4741 67.7505 38.4345 67.9223 38.3581C68.094 38.2817 68.246 38.1705 68.3675 38.0322C68.489 37.8939 68.577 37.7319 68.6254 37.5577C68.6737 37.3835 68.6812 37.2013 68.6473 37.0241Z" stroke="#261D1C" stroke-width="3" stroke-miterlimit="10" />
            <path d="M75.2262 55.875H42.3525" stroke="#261D1C" stroke-width="3" stroke-miterlimit="10" />
            <path d="M81.2049 64.4352C84.786 64.4352 87.6891 61.6773 87.6891 58.2752C87.6891 54.8732 84.786 52.1152 81.2049 52.1152C77.6238 52.1152 74.7207 54.8732 74.7207 58.2752C74.7207 61.6773 77.6238 64.4352 81.2049 64.4352Z" stroke="#261D1C" stroke-width="3" stroke-miterlimit="10" />
            <path d="M36.3836 64.4352C39.9648 64.4352 42.8678 61.6773 42.8678 58.2752C42.8678 54.8732 39.9648 52.1152 36.3836 52.1152C32.8025 52.1152 29.8994 54.8732 29.8994 58.2752C29.8994 61.6773 32.8025 64.4352 36.3836 64.4352Z" stroke="#261D1C" stroke-width="3" stroke-miterlimit="10" />
        </g>
        <defs>
            <clipPath id="clip0_566_1785">
                <rect width="101" height="72" fill="white" />
            </clipPath>
        </defs>
    </symbol>

    <symbol id='document' viewBox="0 0 101 73" fill="none" xmlns="http://www.w3.org/2000/svg">
        <g clip-path="url(#clip0_566_1010)">
            <path d="M17.1498 2H82.9498C83.2812 2 83.5498 2.26863 83.5498 2.6V70.4C83.5498 70.7314 83.2812 71 82.9498 71H17.1498C16.8184 71 16.5498 70.7314 16.5498 70.4V2.6C16.5498 2.26863 16.8184 2 17.1498 2Z" stroke="#261D1C" stroke-width="3" stroke-miterlimit="10" />
            <path d="M31.25 9.64062H66.99" stroke="#261D1C" stroke-width="3" stroke-miterlimit="10" stroke-linecap="round" />
            <path d="M22.3994 22.0996H38.6394" stroke="#261D1C" stroke-width="3" stroke-miterlimit="10" stroke-linecap="round" />
            <path d="M22.1494 29.2695H33.6494" stroke="#261D1C" stroke-width="3" stroke-miterlimit="10" stroke-linecap="round" />
            <path d="M22.1494 36.4297H44.1494" stroke="#261D1C" stroke-width="3" stroke-miterlimit="10" stroke-linecap="round" />
            <path d="M22.1494 43.5996H40.3494" stroke="#261D1C" stroke-width="3" stroke-miterlimit="10" stroke-linecap="round" />
        </g>
        <defs>
            <clipPath id="clip0_566_1010">
                <rect width="101" height="72" fill="white" transform="translate(0 0.5)" />
            </clipPath>
        </defs>
    </symbol>


</svg>