<svg viewBox="0 0 71 71" fill="none" xmlns="http://www.w3.org/2000/svg">
    <g clip-path="url(#clip0_293_2436)">
        <path d="M35.273 70.7672C30.5125 70.7672 25.8946 69.8344 21.5451 67.9947C13.0888 64.4101 6.35711 57.6784 2.77253 49.2221C0.932789 44.8735 0 40.2547 0 35.4942C0 30.7337 0.932789 26.1197 2.77253 21.7728C6.35786 13.318 13.0895 6.58813 21.5451 3.00496C25.894 1.16521 30.5127 0.232422 35.273 0.232422C40.0333 0.232422 44.6475 1.16521 48.9944 3.00496C57.4486 6.58875 64.1784 13.3186 67.7622 21.7728C69.602 26.1197 70.5348 30.7365 70.5348 35.4942C70.5348 40.2519 69.602 44.8726 67.7622 49.2221C64.1792 57.6778 57.4493 64.4095 48.9944 67.9947C44.6475 69.8344 40.031 70.7672 35.273 70.7672ZM2.70879 43.6301C6.35431 58.2181 19.5712 69.0544 35.273 69.0544C43.316 69.0544 50.7061 66.2091 56.4918 61.4716C56.4552 61.4906 56.4144 61.5002 56.3731 61.4997V61.4997C56.3206 61.499 56.2694 61.4841 56.2248 61.4564C56.0982 61.386 56.0193 61.1756 55.9901 60.8272C55.862 59.5448 56.5306 58.1116 57.0852 57.2491C57.0079 57.317 56.9245 57.3878 56.8423 57.4549C56.4382 57.7845 56.3228 57.8121 56.2461 57.8121C56.2201 57.8125 56.1941 57.8076 56.17 57.7978C56.1458 57.7879 56.1239 57.7733 56.1055 57.7547C56.0871 57.7362 56.0727 57.7141 56.0631 57.6898C56.0535 57.6656 56.0489 57.6396 56.0496 57.6135C56.0496 57.3207 56.0847 56.5594 56.1206 56.2969C56.1234 56.2761 56.1336 56.1517 56.1448 56.0203C56.1827 55.5654 56.2248 55.0743 56.2613 54.8014L56.2509 54.7978L56.2843 54.6557L56.3225 54.465C56.3354 54.3957 56.3422 54.3254 56.343 54.255C56.2732 54.272 56.2051 54.2953 56.1394 54.3246C56.0193 54.3732 55.8831 54.4282 55.7463 54.4282C55.7101 54.4284 55.674 54.4244 55.6388 54.4162C55.2805 54.3406 55.0606 54.0711 55.0508 53.6945C55.0387 53.227 55.3782 52.6503 55.967 52.495C56.0153 52.4818 56.0605 52.4703 56.1027 52.4593C56.3062 52.4071 56.4183 52.3782 56.5239 52.2872C56.6081 52.2153 56.6081 51.7559 56.6081 51.3505C56.6081 51.0593 56.6081 50.6965 56.6272 50.2927C56.6637 49.5385 56.7855 48.8787 56.9377 48.6119C57.1377 48.2497 57.2239 48.1419 57.3505 48.0981C57.3787 48.0876 57.4086 48.0822 57.4387 48.0821C57.674 48.0821 57.8236 48.3971 57.8599 48.5515C57.8969 48.7004 57.9362 48.8804 57.9744 49.0544C58.0258 49.2889 58.0789 49.5318 58.1277 49.7042L58.2659 49.7865C58.4546 49.8988 58.6497 50.0153 58.7326 50.0153H58.7376L58.7401 50.0133C58.8261 49.9375 58.8965 49.6374 58.8353 49.0216C58.7982 48.6656 58.7375 48.3124 58.6537 47.9644V47.9596C58.481 47.2113 58.3476 46.6767 58.2504 46.2861C58.0104 45.3227 57.973 45.1734 58.1044 44.8159C58.1693 44.6275 58.5144 44.1639 58.8232 43.8011C59.5098 42.9953 59.719 42.9953 59.7976 42.9953C59.8388 42.9944 59.8795 43.0047 59.9155 43.025C59.9514 43.0453 59.9812 43.0749 60.0017 43.1107C60.1081 43.2833 60.0088 43.5723 59.7743 44.1409C59.7232 44.2647 59.6749 44.3818 59.6479 44.4618C59.4795 45.0063 59.4365 45.9349 59.5337 46.5888C59.865 46.3016 60.1466 46.2339 60.3381 46.2339C60.4581 46.2329 60.5766 46.261 60.6835 46.3156C61.0603 46.4978 61.3776 46.964 61.5775 47.6286C61.7 48.0004 61.7269 49.0244 61.4422 49.4582L61.4394 49.4622C61.2541 49.7278 60.9606 49.8682 60.5906 49.8682C60.3527 49.864 60.1179 49.8147 59.8984 49.723C59.9515 50.4292 59.7167 51.312 59.4444 51.7329L59.4424 51.7357C59.2964 51.9522 59.1026 52.0617 58.8665 52.0617C58.5773 52.0617 58.2243 51.8932 57.7394 51.522C57.6389 51.9272 57.6097 52.4613 57.5909 52.8033L57.5791 53.0159C57.5476 53.5833 57.5083 54.2892 57.4022 55.0025C57.3822 55.1656 57.3724 55.286 57.3673 55.3818C57.5035 55.2184 57.6311 55.048 57.7495 54.8713C58.0095 54.4979 58.1213 54.3462 58.283 54.3462C58.3112 54.3462 58.3391 54.3519 58.365 54.3631L58.3689 54.3645L58.3729 54.3665C59.0748 54.7107 59.063 56.5847 58.8704 57.0536C58.6944 57.4731 58.4835 57.7374 58.2973 57.9704C58.2151 58.0732 58.1376 58.1703 58.0693 58.2731L58.066 58.2779C58.0193 58.3427 57.9671 58.4138 57.9124 58.4888C57.6577 58.8361 57.341 59.2685 57.2053 59.576C57.1685 59.6582 57.1292 59.7405 57.0877 59.8287C56.961 60.094 56.8299 60.3684 56.7898 60.6009V60.6048V60.6087C56.7673 60.7087 56.7336 60.8909 56.7111 61.0465C56.6855 61.2112 56.6408 61.3314 56.5769 61.407C64.0485 55.2465 68.8219 45.9172 68.8219 35.4942C68.8219 16.9957 53.7715 1.94525 35.273 1.94525C16.7672 1.94525 1.71283 16.9957 1.71283 35.4942C1.71085 38.103 2.01334 40.7031 2.61417 43.2418L3.37736 42.2784L4.5404 43.2331L3.62473 44.3588L2.70879 43.6301ZM35.5735 64.8299C31.9925 64.8299 28.6494 63.4621 26.1599 60.9788C23.7311 58.5563 22.3514 55.2764 22.3184 51.8461V51.8461V51.5091C22.3523 48.082 23.732 44.8055 26.1599 42.3865C28.65 39.904 31.9931 38.5368 35.5735 38.5368C37.4935 38.5368 39.0443 38.7971 40.4539 39.3559C41.782 39.8824 43.0023 40.6863 44.294 41.8856L44.2979 41.8895L46.2182 43.9264L46.0141 44.1895L43.6347 42.8725C42.1156 42.0209 40.7307 41.6576 39.0016 41.6576C33.4459 41.6576 29.0928 46.0522 29.0858 51.6644V51.6776C29.0858 57.2898 33.4414 61.6858 39.0016 61.6858C40.7583 61.6858 42.1431 61.3295 43.6324 60.4944L46.0121 59.166L46.2168 59.4286L44.2957 61.4657L44.2917 61.4694C43.0001 62.6737 41.7809 63.4809 40.4516 64.0094C39.0432 64.569 37.4924 64.8299 35.5709 64.8299H35.5735ZM23.4975 51.6776C23.4975 58.3908 28.8019 63.6497 35.5735 63.6497C37.5825 63.6497 39.06 63.3883 40.3842 62.7728C39.9266 62.8311 39.4655 62.8584 39.0042 62.8545C36.0104 62.8545 33.2151 61.699 31.1336 59.6007C29.0925 57.5419 27.9514 54.7949 27.9107 51.8461V51.5091C27.9528 48.565 29.0939 45.8206 31.135 43.7646C33.2173 41.6671 36.0123 40.5122 39.0056 40.5122C39.4709 40.5085 39.936 40.5356 40.3977 40.5934C39.0679 39.9779 37.5876 39.717 35.5749 39.717C28.8019 39.717 23.4975 44.9706 23.4975 51.6776V51.6776ZM14.8058 61.4795L14.9342 60.698L13.7268 60.4894L13.9871 59.1576L15.5783 59.3912L15.4284 60.1977L16.6414 60.3594L16.3951 61.6836L14.8058 61.4795ZM54.5097 61.1793C54.485 61.1448 52.0183 57.723 51.8596 57.0166C51.7192 56.3747 51.7035 55.94 51.8035 55.5618L51.9015 55.192L52.1081 55.5141C52.2485 55.7342 52.5186 56.1088 52.8303 56.5423C53.8311 57.9345 54.6675 59.1256 54.7653 59.615V59.6178C54.7714 59.6518 54.781 59.6956 54.7933 59.7464C54.8621 60.0654 54.9899 60.659 54.8043 61.1411L54.692 61.4303L54.5097 61.1793ZM19.7396 60.5093C19.3364 60.5093 18.9433 60.4998 18.4881 60.4891C18.2938 60.4843 18.0894 60.4796 17.8704 60.4751C17.8572 60.4751 17.8443 60.4768 17.8314 60.4768C17.4969 60.4768 17.3914 60.1336 17.3568 60.021C16.4864 57.0446 13.6456 54.3592 11.4776 52.9628C11.4063 52.915 11.1862 52.7342 11.0823 52.5135C10.9556 52.2574 11.1252 52.0421 11.2617 51.8677C11.4173 51.6711 11.4782 51.5703 11.41 51.4465L11.408 51.4431C11.3167 51.2685 10.7689 50.9335 10.6557 50.8877C10.5048 50.8359 10.3511 50.792 10.1955 50.7563C9.87852 50.6794 9.64939 50.6235 9.42841 50.279C9.29532 50.0645 9.31609 49.8207 9.33687 49.6051C9.35428 49.4119 9.37085 49.2294 9.28577 49.082C9.26583 49.0474 9.16587 48.9696 9.08921 48.9696C9.07945 48.9689 9.06968 48.971 9.06114 48.9758C8.95163 49.0502 8.94011 49.2215 8.92411 49.5997C8.92214 49.6455 8.92018 49.6935 8.91765 49.7438V49.7472C8.89126 50.1434 8.64669 50.2843 8.42655 50.2843C8.33544 50.283 8.24559 50.263 8.1626 50.2253C7.75602 50.0431 7.42047 49.789 6.99928 49.0828L6.9976 49.08C6.83809 48.7918 6.74044 48.4736 6.71091 48.1455C6.66009 47.6401 6.93161 47.0999 7.38706 46.8008L7.39267 46.7972C7.62882 46.6568 7.73271 46.6461 7.96605 46.6374L8.03821 46.6346H8.04551C8.22297 46.639 8.39903 46.6673 8.56891 46.7188C8.64107 46.2446 8.38527 45.8315 8.21371 45.6156L8.21034 45.6111C8.06152 45.4103 7.76107 45.1284 7.53981 44.9226C7.43226 44.8224 7.34719 44.7426 7.29889 44.6907C7.12368 44.509 6.96812 44.3282 6.98159 44.1179C6.99423 43.9255 7.14249 43.7834 7.27025 43.6812C7.34073 43.6234 7.35252 43.5383 7.34494 43.5144C7.2607 43.3055 7.08858 43.1691 6.89006 43.0113C6.70782 42.8666 6.51941 42.717 6.37817 42.4935C6.32426 42.407 6.30685 42.325 6.32623 42.2469C6.35431 42.1285 6.45427 42.0714 6.53373 42.0257C6.5708 42.0061 6.60571 41.9826 6.63791 41.9558C6.72748 41.8735 6.76707 41.7247 6.72214 41.6438C6.68227 41.5764 6.54974 41.4663 6.43265 41.3692C6.27204 41.2361 6.10581 41.0982 6.01932 40.9536L6.0123 40.9421L6.00725 40.9298C6.0036 40.9208 5.99854 40.9109 5.99265 40.8994C5.95345 40.8348 5.93908 40.7582 5.95221 40.6838C5.96429 40.6242 6.00051 40.5869 6.04235 40.5434C6.14315 40.4386 6.31163 40.2626 6.17151 39.9313C6.10188 39.7847 5.98844 39.6069 5.84074 39.5789C5.36873 39.5345 4.97029 39.4991 4.64822 39.4708C3.36472 39.3584 3.05978 39.3304 2.84807 39.1619L2.84414 39.1588L2.84077 39.1557C2.56896 38.9151 2.12952 38.4678 2.23959 38.1777C2.26542 38.1095 2.34152 37.9949 2.55969 37.9949H2.56475C2.82027 38.0025 3.9659 38.1072 4.80237 38.1831C5.16066 38.2159 5.49902 38.2465 5.54254 38.2488H5.54647H5.55321C6.47561 38.3218 7.22504 39.1405 7.39043 39.8574V39.8613C7.46091 40.2014 7.36712 40.5293 7.26182 40.8744C7.30394 40.8972 7.3514 40.9194 7.40054 40.9424C7.57968 41.0266 7.78269 41.1218 7.87367 41.3116C7.93525 41.4291 7.96879 41.5592 7.97166 41.6918C7.97644 41.7923 7.91972 41.933 7.79308 42.2197C7.765 42.2846 7.72822 42.3666 7.70688 42.4208C7.80824 42.5451 8.01434 42.7501 8.21455 42.9492C8.44845 43.1814 8.69021 43.4218 8.82471 43.5911L8.82724 43.5947C8.83397 43.6037 8.84071 43.6121 8.84745 43.6203C8.8889 43.667 8.91948 43.7224 8.93703 43.7823C9.03951 44.1923 8.83229 44.5045 8.72671 44.6592C8.86121 44.8499 9.1611 45.1927 9.36888 45.4322C9.51517 45.6007 9.63058 45.7324 9.68225 45.8009L9.72408 45.8596C9.92064 46.1337 10.1405 46.4442 10.1658 46.8362C10.1894 47.0841 10.1851 47.3509 10.0007 47.6224C9.98185 47.6533 9.95124 47.703 9.93917 47.7297V47.7319L9.94282 47.7398C9.95321 47.7631 10.0301 47.7993 10.0922 47.8285C10.2719 47.9127 10.5432 48.0405 10.7462 48.4221L10.7481 48.4258C10.8484 48.6265 10.8324 48.8997 10.8164 49.1637C10.8077 49.3117 10.7956 49.5141 10.8268 49.5764C10.8908 49.6888 11.2578 49.8657 11.5259 49.9954C11.9471 50.199 12.3829 50.4095 12.5435 50.6777C12.689 50.9124 12.6423 51.2208 12.5997 51.492C12.5699 51.6886 12.5359 51.9132 12.6064 51.9823C12.945 52.2948 13.3426 52.5826 13.7635 52.8875C14.5065 53.4255 15.3486 54.0351 16.2716 55.0378C17.3257 56.1829 18.2733 57.6172 19.1677 59.4207C19.7104 59.5479 20.5761 59.7742 20.8007 59.8453L20.8086 59.8478L20.8162 59.8509C20.9875 59.9242 21.0953 60.0971 21.0672 60.253C21.0478 60.3594 20.9566 60.4776 20.7583 60.486C20.42 60.502 20.096 60.5093 19.7396 60.5093ZM41.1491 54.1724L36.0168 55.8415L39.1302 51.4827L35.9388 47.2608L41.0292 48.6422L44.31 44.29L44.2227 49.6716L49.2017 51.2401L44.2227 53.0212L44.31 58.3225L41.1491 54.1724ZM43.0692 54.7666L43.0391 52.1813L45.4991 51.3176L43.0391 50.5645L43.0695 47.8535L41.497 49.9856L38.9283 49.308L40.5889 51.478L39.0182 53.612L41.5605 52.8081L43.0692 54.7666ZM11.3872 56.9329C11.2462 56.935 11.1061 56.9097 10.9747 56.8585L10.9245 56.838L10.8964 56.7917C10.8812 56.7675 10.8121 56.6409 10.9525 56.5148C10.9935 56.4803 11.0369 56.449 11.0826 56.421C11.1397 56.3865 11.1931 56.3462 11.242 56.3008C11.1707 56.2056 11.0003 56.1804 10.8046 56.1514C10.5549 56.1144 10.2711 56.0725 10.072 55.8586L10.0439 55.8288L10.033 55.7901C9.99449 55.6556 10.102 55.5581 10.2264 55.4453C10.2624 55.4127 10.3199 55.361 10.3561 55.32C10.2792 55.2737 10.136 55.2639 9.99673 55.2552C9.76424 55.2397 9.50057 55.2223 9.31581 55.0451L9.29953 55.0294L9.28801 55.01C9.2703 54.9802 9.25905 54.9469 9.25498 54.9124C9.25092 54.8779 9.25414 54.843 9.26443 54.8098C9.29756 54.6975 9.40174 54.595 9.5733 54.5083C9.76592 54.4052 10.1034 54.2853 10.4249 54.2853C10.7116 54.2853 10.9436 54.3805 11.0963 54.5602C11.4015 54.9132 11.2395 55.1583 11.1499 55.2745C11.2415 55.3234 11.3774 55.3551 11.5102 55.3869C11.7511 55.443 12.024 55.5076 12.2007 55.6994L12.2046 55.7039C12.3792 55.9074 12.4531 56.0928 12.4312 56.2711C12.411 56.4356 12.3096 56.5839 12.1299 56.7119C11.9465 56.8487 11.6618 56.9334 11.3861 56.9334L11.3872 56.9329ZM52.9746 55.1103L53.1993 53.6342L54.6678 53.8588L54.4151 55.3352L52.9746 55.1103ZM16.6652 53.7684L16.8618 53.0004L15.6797 52.6991L16.0478 51.396L17.6115 51.761L17.3922 52.5472L18.5909 52.8238L18.2517 54.1188L16.6652 53.7684ZM49.5585 54.0267C49.4211 54.0232 49.2868 53.9846 49.1685 53.9144C48.993 53.8158 48.8877 53.6524 48.8619 53.441C48.783 52.7772 49.5159 51.7792 49.7604 51.5529L49.7851 51.5299L49.8413 51.5091C50.012 51.4459 50.2456 51.3597 50.5475 51.3597C50.5994 51.3597 50.6519 51.3623 50.7047 51.3673C51.0268 50.7996 51.4629 50.6766 51.7785 50.6766C52.0469 50.6766 52.2937 50.7642 52.4656 50.8451C52.4565 50.834 52.4457 50.8246 52.4336 50.817C52.3704 50.781 52.2833 50.7426 52.1915 50.7019C51.7886 50.5235 51.1327 50.2335 51.2767 49.5206C51.0358 49.4285 50.7609 49.2754 50.6241 48.9938C50.5295 48.7986 50.5152 48.5681 50.5812 48.307C50.4833 48.27 50.3975 48.2069 50.3331 48.1244C50.2687 48.042 50.2283 47.9434 50.2162 47.8395C50.1989 47.7137 50.2219 47.5856 50.2821 47.4738C50.3423 47.362 50.4364 47.2721 50.5509 47.2172C50.5537 47.0808 50.5663 46.9221 50.6199 46.7795C50.7154 46.5268 50.9134 46.3914 51.1922 46.3914C51.6297 46.3914 51.9705 46.8441 52.0405 47.2057C52.7725 47.4584 52.7222 48.0986 52.6969 48.4148C52.7512 48.4391 52.7992 48.4754 52.8373 48.5209C52.946 48.6501 52.9805 48.8439 52.9752 49.0797C53.0422 49.0181 53.1179 48.9668 53.1998 48.9272C53.2299 48.9124 53.2588 48.8954 53.2863 48.8761C53.3374 48.7919 53.3301 48.6234 53.3026 48.5841L53.299 48.5805L53.2942 48.5749C53.0976 48.3396 53.0134 48.0489 53.0656 47.7774C53.1027 47.5851 53.224 47.3161 53.5882 47.1018C53.5936 47.0684 53.5962 47.0346 53.596 47.0007C53.6 46.8758 53.605 46.7045 53.7746 46.5256C53.8507 46.4458 53.9422 46.3822 54.0435 46.3388C54.1449 46.2953 54.254 46.2729 54.3643 46.2729C54.5314 46.2725 54.6942 46.3261 54.8284 46.4257C55.0014 46.5506 54.9747 46.7486 54.957 46.8794C54.9357 47.0378 54.9447 47.0426 54.9947 47.0617C55.2123 47.1403 55.3546 47.2681 55.4158 47.4419C55.5262 47.7476 55.3597 48.1009 55.1609 48.437L55.1575 48.4429L55.1536 48.4482C55.1081 48.5131 55.0811 48.6361 55.0929 48.6816C55.3937 48.7585 55.5605 48.9904 55.5307 49.2973C55.4981 49.632 55.2266 50.0139 54.8919 50.1116C54.8602 50.7313 54.6156 51.0329 54.147 51.0329C54.1228 51.0329 54.0998 51.0329 54.0782 51.0329C54.0808 51.1745 54.0337 51.3125 53.9451 51.4229C53.812 51.5838 53.5871 51.6725 53.3113 51.6725C53.2768 51.6725 53.2422 51.6725 53.208 51.6683C52.9188 52.386 52.5226 52.5247 52.0708 52.5478C52.0778 52.7862 52.0146 52.9861 51.881 53.1439C51.6698 53.3932 51.2938 53.5199 50.7631 53.5199C50.5759 53.5184 50.3889 53.5056 50.2032 53.4814C50.1308 53.749 49.9112 54.0267 49.5597 54.0267H49.5585ZM53.1209 49.9024C53.2458 50.0514 53.332 50.2289 53.372 50.4191C53.3753 50.3068 53.3692 50.1734 53.3649 50.0821C53.363 50.0411 53.361 49.9993 53.3593 49.9575C53.2775 49.9517 53.197 49.9332 53.1209 49.9024V49.9024ZM52.9028 49.7109V49.7087V49.7109ZM50.2383 51.084C49.8452 51.084 49.5167 50.8945 49.3117 50.5505C49.1562 50.2832 49.148 49.9771 49.2895 49.7314C49.3525 49.6204 49.444 49.5281 49.5545 49.4642C49.665 49.4003 49.7906 49.367 49.9182 49.3678C49.9777 49.368 50.0369 49.3748 50.0949 49.388C50.4537 49.4636 51.0173 49.8199 51.2023 50.1655C51.2896 50.3287 51.2719 50.4525 51.2422 50.5275C51.1116 50.8408 50.6705 51.0843 50.2369 51.0843L50.2383 51.084ZM19.6189 50.4199C19.2819 50.4199 19.0197 50.2905 18.8765 50.0549L18.8714 50.0465L18.8672 50.0372C18.8111 49.9168 18.8074 49.805 18.8537 49.7053C18.943 49.513 19.1842 49.4459 19.4395 49.3745C19.8421 49.2622 20.0069 49.1847 19.985 48.993C19.9622 48.8123 19.954 48.6302 19.9606 48.4482L19.3184 48.7445L17.5812 47.3006C17.3523 47.3211 17.1373 47.3315 16.9407 47.3315C14.9575 47.3315 14.5646 46.2974 13.9702 44.7319C13.686 43.9836 13.364 43.1356 12.7999 42.1767L12.5191 41.6994L13.018 41.94C14.0334 42.43 14.8505 43.5655 15.5713 44.5674C16.1233 45.3348 16.6476 46.0632 17.0679 46.1831L15.2175 42.7661H15.1745C14.8129 42.7661 14.4043 42.5977 13.993 42.2756C13.6184 41.9836 13.2494 41.5736 12.9259 41.0932C12.2473 40.0843 11.6259 38.4863 12.1077 37.3025L12.1678 37.1545L12.3189 37.2067C12.8338 37.3856 13.2323 38.3487 13.6948 39.4637C14.0598 40.3451 14.4363 41.2566 14.8435 41.6587L14.8466 41.6615L14.8494 41.6646C14.8823 41.6999 14.9244 41.7253 14.9709 41.7382C14.9711 41.7361 14.9711 41.734 14.9709 41.732L13.9421 38.4644C13.4109 37.9741 12.6626 37.2289 12.1476 36.3138C11.488 35.1426 11.3735 33.995 11.8073 32.9028L11.9129 32.6369L12.0942 32.8581C12.9172 33.862 13.46 35.2395 13.8877 36.5014V36.4764C13.8714 36.0415 13.8542 35.5925 13.8526 35.2906C13.8214 35.2432 13.7849 35.1881 13.7436 35.1266C13.3954 34.6044 12.7474 33.6323 12.3677 32.5172C11.8943 31.1212 11.9962 29.9441 12.6707 29.0189L12.7923 28.8521L12.9327 29.0048C13.6976 29.8458 13.7416 30.9984 13.7843 32.1109C13.8017 32.5658 13.8186 33.0069 13.8843 33.4082C13.8899 33.3094 13.8957 33.2114 13.9017 33.1142C13.9404 32.4726 13.9772 31.8664 13.9233 31.1447C13.8391 30.826 13.7296 30.4857 13.6144 30.1257C13.0641 28.4258 12.3829 26.3109 13.8944 24.6613L14.069 24.4706L14.1729 24.7073C14.3333 25.0723 14.4234 25.5677 14.4711 26.1363C14.4563 25.466 14.4748 24.7744 14.5933 24.1247C14.8058 22.9569 15.3073 22.101 16.1261 21.508L16.3362 21.3561L16.3898 21.6088C16.8287 23.6813 16.1593 25.8807 15.6213 27.6483C15.537 27.9291 15.4559 28.1917 15.3817 28.448C15.2607 28.89 15.1636 29.3985 15.1318 29.8163C15.2756 29.3699 15.4629 28.758 15.6465 28.1577C16.0907 26.7063 16.6436 24.9005 16.982 24.0862L17.2049 23.5493L17.3035 24.1221C17.5281 25.434 17.4689 26.6007 17.1125 27.7943C16.7298 29.0776 15.9958 30.4515 14.8042 32.1157C14.7867 32.2496 14.7693 32.3813 14.7522 32.5116C14.6478 33.3015 14.5492 34.0484 14.5453 34.9L14.5554 34.9135C14.559 34.9062 14.563 34.8978 14.5672 34.888C14.7752 34.3508 14.9434 33.7648 15.106 33.1998C15.5272 31.7364 15.961 30.2235 17.1513 29.1433L17.4321 28.8877V29.2682C17.4321 31.022 16.9761 33.6261 14.8101 36.1007V38.1628C14.8095 38.1793 14.8122 38.1957 14.818 38.211C14.8238 38.2264 14.8327 38.2405 14.844 38.2524C14.8517 38.2232 14.8552 38.193 14.8544 38.1628C14.8544 36.1313 15.5499 35.2842 16.2865 34.387C16.5246 34.097 16.7708 33.7974 16.9952 33.4506L17.2035 33.1288L17.2998 33.5C17.6418 34.8197 16.9306 36.1762 16.2429 37.4873C15.8936 38.1533 15.5325 38.8421 15.3093 39.5213C15.3652 40.0853 15.4907 40.6403 15.683 41.1735C15.6269 39.4949 16.1323 38.3409 16.6257 37.2191C16.987 36.3955 17.3276 35.6186 17.468 34.6389L17.5579 34.0001L17.7918 34.6013C18.2043 35.6621 18.3138 36.6718 18.1268 37.6875C17.9633 38.5753 17.5992 39.361 17.2083 40.1542C16.6585 41.2892 16.3822 42.8498 16.4718 43.305C16.6433 44.1395 17.3142 45.2163 17.8328 45.8301C17.5485 44.8756 17.3456 43.8987 17.2263 42.9099C17.0996 41.8213 17.0645 40.424 17.6177 39.9509L17.8142 39.7824L17.8878 40.0318C18.0232 40.49 18.1655 40.9286 18.3034 41.3515C18.893 43.1722 19.4058 44.7468 18.9908 46.6806L19.9665 48.3497C20.0356 47.5334 20.5 47.2914 20.9212 47.0732C21.1529 46.953 21.3721 46.839 21.5246 46.6323L21.5794 46.4605C21.439 46.3077 21.2643 46.1483 21.0666 45.9671C20.5893 45.5294 19.9946 44.9844 19.5658 44.2276C19.0604 43.3378 18.8852 42.3402 19.0261 41.1785L19.0612 40.8899L19.294 41.0637C20.7713 42.1652 20.9833 43.1351 21.188 44.0729C21.2767 44.479 21.3604 44.8622 21.5417 45.2649L21.5434 45.2688C21.5709 45.3327 21.6058 45.393 21.6476 45.4485C21.6712 45.1017 21.6038 44.7078 21.5429 44.3509C21.5316 44.2855 21.5207 44.2217 21.5106 44.16C21.3702 43.3266 20.8123 42.6184 20.2215 41.8687C19.3608 40.7764 18.4707 39.6471 18.8563 38.0407L18.8582 38.0323L18.861 38.0244C18.9231 37.8469 19.0382 37.5167 19.3277 37.5167C19.4998 37.5167 19.6742 37.6408 19.8831 37.8256C21.0344 38.8862 21.2947 40.3033 21.5038 41.4419C21.6198 42.0717 21.722 42.6274 21.9551 42.8914C22.0921 42.5595 21.8756 41.9319 21.6479 41.2723C21.2918 40.2401 20.8881 39.0704 21.4283 38.1654C21.4641 38.1022 21.516 38.0498 21.5787 38.0132C21.6414 37.9767 21.7126 37.9575 21.7852 37.9576C21.9172 37.9576 22.055 38.0182 22.173 38.1286L22.1783 38.1336V35.1707C22.1783 34.952 22.3869 34.7827 22.5664 34.7827H24.4443V35.4998H22.9429V38.3302H22.3757C22.7875 38.7587 23.0838 39.2208 23.2644 39.7165V39.2001L27.8382 39.0426L29.0265 39.8686L28.3125 40.3856L27.5456 39.7549L23.3441 39.9644C23.4807 40.4604 23.5112 40.9796 23.4337 41.4882C23.3189 42.2975 22.9693 43.1385 22.3667 44.0578C22.3687 44.3908 22.3883 44.6943 22.4077 44.9883C22.4257 45.2621 22.4442 45.5446 22.447 45.8433C22.4926 45.8044 22.5281 45.7549 22.5503 45.6993C22.6658 45.4075 22.7486 44.9131 22.8362 44.3908C23.0007 43.408 23.1872 42.2936 23.6836 41.6727L23.6999 41.6528C24.1447 41.101 24.6546 40.5122 25.0758 40.5122C25.1277 40.5118 25.1791 40.5232 25.2259 40.5455C25.2728 40.5679 25.3139 40.6007 25.3462 40.6414C25.4172 40.7279 25.6334 40.9901 25.3566 42.4104C25.16 43.4355 24.2404 44.6177 23.5005 45.5679C23.0266 46.1763 22.4897 46.866 22.5178 47.1066C22.6158 47.917 22.5276 48.3373 22.442 48.7439C22.4139 48.879 22.3858 49.0064 22.3673 49.1474L22.3468 49.2926H21.5086V49.1241C21.5086 48.9719 21.5586 48.7655 21.6114 48.5465C21.6476 48.3977 21.7099 48.1391 21.7105 48.0178C21.5215 48.0677 21.4348 48.3654 21.3208 48.8284C21.2132 49.2653 21.0916 49.7606 20.7513 50.0204C20.42 50.2669 19.9867 50.4194 19.6189 50.4194V50.4199ZM14.5183 27.2909C14.5234 27.8491 14.5099 28.4368 14.4964 29.0177C14.4905 29.2741 14.4849 29.5232 14.481 29.7618C14.5472 29.3407 14.5548 28.8507 14.5548 28.4014C14.5548 28.0546 14.5377 27.6831 14.5183 27.2909ZM12.0431 48.4575L12.8383 47.2122L14.0766 48.0624L13.2814 49.278L12.0431 48.4575ZM55.8047 47.2947V45.7585H48.585V45.0057H49.7843L48.694 43.3653H50.4992L48.439 40.8573L50.2838 39.2568C50.1036 39.0937 49.8815 38.6837 49.6099 37.6978C49.5954 37.6391 49.5733 37.5825 49.5442 37.5294C49.4575 37.6195 49.3196 37.9244 49.2674 38.1923C49.1506 38.782 48.9866 39.377 48.8161 39.8209C48.5761 40.4493 48.3438 40.7419 48.0861 40.7419C47.9339 40.7419 47.8196 40.5984 47.65 40.1927C47.5039 39.8293 47.3784 39.4579 47.274 39.0805C46.9826 38.055 46.8085 37.0414 46.8085 36.3689C46.8085 34.9728 46.6349 34.0627 46.4667 33.1827C46.4072 32.8699 46.3508 32.5745 46.3025 32.2606C46.2696 32.0713 46.2823 31.9632 46.346 31.8874C46.3659 31.8636 46.3908 31.8444 46.419 31.8314C46.4471 31.8183 46.4778 31.8117 46.5089 31.8119C46.6467 31.8119 46.8155 31.8914 47.4855 32.8657C47.901 33.4801 48.0645 34.7304 48.047 36.0224C48.1352 35.7696 48.2284 35.515 48.3205 35.2642C48.694 34.2447 49.0787 33.1906 49.0834 32.3378C49.0646 32.2089 49.0189 32.2022 48.9467 32.2022C48.8535 32.2022 48.7282 32.2362 48.6069 32.269C48.4716 32.3055 48.3318 32.3434 48.206 32.3434C48.1411 32.3449 48.0767 32.3325 48.017 32.3072L48.0122 32.305C47.8291 32.2165 47.7837 32.0975 47.778 32.0132C47.7618 31.7813 48.0218 31.608 48.2113 31.4817L49.5872 30.591C49.6882 30.5212 49.807 30.4817 49.9297 30.477C50.0746 30.477 50.194 30.5461 50.249 30.6615C50.304 30.7769 50.2821 30.9097 50.1928 31.0212C50.1707 31.0493 50.1462 31.0807 50.1207 31.1127C49.9443 31.3334 49.7441 31.5839 49.8399 31.8959V31.8992C50.1235 32.9002 49.7158 34.0512 49.2435 35.3838C48.9908 36.0971 48.7294 36.8344 48.5483 37.6203C48.5459 37.6323 48.5447 37.6444 48.5449 37.6566C48.5634 37.633 48.5856 37.6004 48.6114 37.5611C48.7094 37.4092 48.7942 37.1961 48.8841 36.9683C49.0924 36.4421 49.3286 35.8452 49.8539 35.7862C49.87 35.7842 49.8861 35.7832 49.9022 35.7831C50.039 35.7831 50.1648 35.8533 50.2762 35.9912C50.7042 36.5216 50.9061 38.0651 50.9002 38.721L50.944 38.6831L51.0807 38.8452C51.0658 38.721 51.0554 38.5759 51.0473 38.4094C51.0226 37.9098 51.0226 37.23 51.0226 36.5081C51.0226 34.8315 50.9181 33.2229 50.7137 31.7274C50.6834 31.539 50.7379 31.4278 50.789 31.3677C50.8186 31.3331 50.8556 31.3054 50.8972 31.2868C50.9388 31.2682 50.984 31.259 51.0296 31.2599C51.3174 31.2599 51.7181 31.6097 51.9649 32.3912C52.1721 33.0406 52.1115 33.9299 51.9748 35.2072C52.4569 33.8875 52.9682 31.9877 52.759 30.7629C52.7413 30.6753 52.6632 30.5596 52.2011 30.5596C52.1384 30.5596 52.0786 30.5613 52.0208 30.5629C51.9722 30.5629 51.9262 30.5657 51.8852 30.5657C51.58 30.5657 51.5058 30.3782 51.4904 30.3206C51.4483 30.1634 51.539 29.9882 51.7167 29.8837L53.1448 28.9739C53.2366 28.9092 53.3453 28.8728 53.4576 28.8692C53.5955 28.8692 53.712 28.9343 53.7693 29.0436C53.7951 29.0936 53.8065 29.1497 53.8022 29.2058C53.7979 29.2619 53.778 29.3157 53.7449 29.3611L53.7168 29.4005C53.5222 29.6759 53.3015 29.9884 53.3956 30.2616C53.5037 30.591 53.5514 30.9785 53.5595 31.3848C53.58 31.3553 53.6024 31.3271 53.6266 31.3006C53.7887 31.1254 54.0198 31.0366 54.3104 31.0366C54.4096 31.0342 54.5082 31.0524 54.6 31.0901C54.6919 31.1277 54.7749 31.184 54.8439 31.2554C55.2931 31.7145 55.2667 32.7921 55.2401 33.9333C55.2333 34.2157 55.2266 34.5013 55.2286 34.7712C55.3473 34.188 55.5094 33.5803 55.6697 32.9842C56.0802 31.4516 56.5045 29.8674 56.0771 28.9796C55.9465 28.7111 55.6947 28.6547 55.5065 28.6547C55.3313 28.6587 55.1584 28.6954 54.9966 28.7628C54.9533 28.7799 54.9071 28.7888 54.8604 28.7889C54.7859 28.7898 54.713 28.7663 54.653 28.722C54.593 28.6777 54.5491 28.615 54.528 28.5435C54.5089 28.4781 54.4687 28.2492 54.763 28.06L56.8437 26.711L56.847 26.7091C56.9257 26.667 57.0137 26.6457 57.1028 26.647C57.2668 26.647 57.3901 26.7071 57.4398 26.8121C57.4594 26.8526 57.4959 26.9593 57.401 27.0817C56.9375 27.7371 56.7639 28.2984 56.8852 28.7501C57.2657 30.0758 56.9507 31.4115 56.5859 32.9581C56.2841 34.2371 55.9502 35.6537 55.9235 37.355C56.0985 36.6937 56.3082 36.0401 56.5132 35.3993C57.1261 33.4882 57.7051 31.6833 57.3878 29.852L57.3853 29.8377V29.823C57.3853 29.3957 57.5602 29.3319 57.6644 29.3319C57.7624 29.3319 57.9006 29.3934 58.0014 29.6874C58.3788 30.7412 58.481 31.8102 58.3131 32.9536C58.164 33.9689 57.8332 34.9152 57.483 35.9168C56.8316 37.7801 56.1583 39.7075 56.746 42.1175C56.7844 42.1615 56.8106 42.215 56.8217 42.2724C56.8328 42.3298 56.8284 42.3891 56.8091 42.4443C56.7916 42.5044 56.757 42.558 56.7095 42.5987C56.6621 42.6394 56.6038 42.6655 56.5418 42.6737L56.2703 42.7498C56.248 42.7561 56.2249 42.7592 56.2018 42.7591V42.7591C56.0266 42.7591 55.8996 42.587 55.855 42.4261C55.7792 42.1728 55.703 41.9201 55.6264 41.668C54.8267 39.024 54.0678 36.5157 54.1127 33.7137C54.1126 33.7158 54.1126 33.718 54.1127 33.7202C54.0172 34.1722 53.9184 34.6395 53.564 34.6395C53.5385 34.6394 53.513 34.6366 53.4879 34.6313L53.3124 34.5937L53.361 34.421C53.4436 34.127 53.4189 33.6963 53.386 33.2664C53.3725 33.3425 53.3579 33.4169 53.345 33.4891C53.1673 34.3837 52.93 35.2655 52.6349 36.1285C52.8177 35.853 53.0463 35.6335 53.393 35.581C53.41 35.5786 53.427 35.5773 53.4441 35.5773C53.5938 35.5773 53.7305 35.6672 53.8507 35.8443C54.3095 36.5202 54.5482 38.5399 54.2562 39.2753L54.0899 39.694L53.9409 39.2689C53.7985 38.864 53.6174 38.6629 53.4422 38.4686C53.1844 38.183 52.9401 37.9124 52.955 37.141C52.7469 37.4375 52.4496 37.9862 52.4181 38.103C52.3999 38.2358 52.237 38.5677 52.1185 38.7643C51.9155 39.1012 51.7125 39.3014 51.5134 39.3618L54.3733 42.7465L53.6199 43.3642H55.6467L54.5766 45.0046H56.5898V47.2936L55.8047 47.2947ZM53.8016 45.0057L54.4193 44.0373H49.9502L50.568 45.0057H53.8016ZM52.3729 43.3653L52.8783 42.9694L52.3797 42.8709L52.3583 43.3653H52.3729ZM51.6086 43.3653L51.6678 42.7195L50.8687 42.5482L51.5707 43.3648L51.6086 43.3653ZM50.7101 42.364L50.682 41.4885L49.8716 41.3872L50.7101 42.364ZM52.782 42.1091L51.3848 40.4839L51.4558 41.8252L52.782 42.1091ZM50.6623 40.6838L50.6185 40.0464L49.9809 40.5962L50.6623 40.6838ZM63.1233 47.1833C63.0233 47.1833 62.8706 47.1397 62.7041 46.9325C62.127 46.235 61.7154 45.7622 61.415 45.4162C60.729 44.6283 60.6237 44.5073 60.5875 44.0193C60.5156 43.1208 60.7475 42.2975 61.1176 41.3369C61.1948 41.1266 61.3083 40.8857 61.5037 40.8857C61.6191 40.8857 61.7415 40.9795 61.7564 41.1886C61.8718 42.587 62.0327 44.1004 62.3497 44.7025L62.3514 44.7056C62.3795 44.7617 62.4093 44.822 62.441 44.8864C62.6434 45.2969 62.9206 45.8593 63.3347 46.4903C63.456 46.6722 63.4821 46.8688 63.4038 47.0151C63.3773 47.0662 63.3372 47.109 63.2879 47.1387C63.2386 47.1684 63.182 47.1839 63.1244 47.1835L63.1233 47.1833ZM4.10685 43.8955L4.61986 43.2892L3.67135 42.503L4.54685 41.4894L5.8194 42.4839L5.27888 43.0935L6.26923 43.8421L5.39119 44.8735L4.10685 43.8955ZM64.1928 42.4528C64.0047 42.4528 63.8028 42.2663 63.4628 41.9372L63.4232 41.8993C63.0284 41.5103 62.676 41.0805 62.3719 40.6172C61.9479 39.9571 61.8403 39.4753 62.0518 39.1852C62.172 39.0167 62.3545 38.8527 62.6072 38.6275C62.6746 38.5675 62.7476 38.5023 62.8265 38.431C62.9338 38.3336 62.738 37.9595 62.6086 37.7119C62.4165 37.3446 62.2354 36.9975 62.4483 36.7757L62.4508 36.7735C62.4768 36.7491 62.5076 36.7303 62.5411 36.7182C62.5747 36.7061 62.6103 36.7009 62.6459 36.703C62.7225 36.7025 62.7978 36.7218 62.8647 36.7592L62.8706 36.7628L62.8765 36.767C63.0756 36.9108 63.5549 37.3848 63.7517 37.5813C64.1204 37.95 64.6421 38.7283 64.4753 39.2512C64.3981 39.5174 64.1631 39.767 63.9915 39.9495C63.9419 39.9992 63.895 40.0516 63.8511 40.1065L63.8483 40.1107L63.8452 40.1149C63.7422 40.2457 63.6588 40.4709 63.7048 40.6796V40.6835V40.6877C63.7194 40.7759 63.8952 41.0752 64.0235 41.2939C64.384 41.908 64.5115 42.1568 64.4116 42.3256C64.3898 42.3645 64.3579 42.3969 64.3194 42.4192C64.2808 42.4416 64.2369 42.4532 64.1923 42.4528H64.1928ZM65.0703 41.1297L65.8003 40.5962L65.129 39.6586L66.3153 38.8162L67.1934 40.0234L66.4773 40.5541L67.1479 41.4672L65.9643 42.3376L65.0703 41.1297ZM45.2411 41.2077C45.1694 41.2067 45.0993 41.1859 45.0386 41.1476L45.0341 41.1448C44.8727 41.039 44.8005 40.8697 44.7306 40.706C44.6219 40.4504 44.5357 40.2486 44.1331 40.2486C43.9298 40.2486 43.7714 40.0548 43.7512 39.874C43.7316 39.6974 43.8374 39.5516 44.0149 39.5115L44.2996 39.448V39.366C44.0239 39.1097 43.8102 39.0751 43.6538 39.0751C43.5263 39.0796 43.3995 39.0964 43.2753 39.1251C43.1302 39.1583 42.9823 39.1771 42.8336 39.1813C42.7914 39.1813 42.7492 39.1791 42.7072 39.1745C42.6792 39.1745 42.6494 39.1762 42.6202 39.1762C42.0558 39.1762 41.5504 38.9499 41.1584 38.5214C40.6325 37.9463 40.3424 37.0152 40.4199 36.149C40.4252 36.0827 40.4716 35.8629 40.8307 35.8629C41.349 35.8629 42.4107 36.3312 42.6603 36.9723C42.6814 36.9703 42.7022 36.9695 42.7227 36.9695C42.8757 36.9698 43.024 37.0218 43.1439 37.1169C43.1405 37.1073 43.1371 37.0978 43.1343 37.0888C43.0857 36.9293 43.1099 36.7432 43.1978 36.5674C42.7485 36.2908 42.4043 36.0058 42.6376 35.3291C42.3849 35.1716 42.2608 34.8422 42.315 34.4393C42.3678 34.0478 42.5859 33.653 42.9131 33.5755C42.8706 33.3531 42.9144 33.1228 43.0355 32.9314C43.1022 32.8259 43.1946 32.7391 43.3041 32.6791C43.4136 32.6191 43.5365 32.588 43.6614 32.5886C44.1758 32.5886 44.4414 33.099 44.4992 33.6688C44.5185 33.6661 44.5379 33.6647 44.5574 33.6648C44.7177 33.6648 44.855 33.7583 44.9241 33.915C45.0108 34.1116 44.9926 34.4244 44.7556 34.6841L44.7528 34.6872L44.75 34.69C44.7293 34.712 44.7134 34.7382 44.7034 34.7667C44.6934 34.7952 44.6894 34.8255 44.6919 34.8557C44.6958 34.886 44.7076 34.8941 44.7135 34.8975C45.0766 35.0972 45.1804 35.4159 45.1223 35.6433C45.0735 35.834 44.9173 35.9648 44.7141 35.9929C44.6787 36.0746 44.6815 36.2737 44.7407 36.4242C44.7441 36.2697 44.7845 36.1476 44.8626 36.0535C44.9352 35.9689 45.034 35.9111 45.1434 35.8893C45.1108 35.5824 45.126 35.1174 45.4612 34.9043C45.5546 34.8336 45.6679 34.7943 45.785 34.7919C45.913 34.7919 46.0217 34.8433 46.1138 34.8925C46.515 35.0705 46.5513 35.442 46.5546 35.6818C46.8596 36.0269 46.8433 36.4427 46.5055 36.7805L46.4937 36.7923L46.4516 36.8204C46.4215 36.8403 46.3878 36.8628 46.3586 36.8833C46.499 37.0276 46.5378 37.23 46.4667 37.4541C46.3845 37.715 46.1346 38.0112 45.888 38.0983C45.888 38.1443 45.9094 38.1895 45.9484 38.2667C46.0046 38.3737 46.0784 38.5194 46.0574 38.7244L46.0551 38.7449C46.0551 38.7449 46.0467 38.7685 46.0458 38.7705C46.1167 38.7619 46.1881 38.7578 46.2595 38.7581C46.5465 38.7581 46.7548 39.0754 46.7548 39.5123C46.7548 39.7847 46.6706 40.0396 46.5209 40.2311C46.3904 40.3968 46.1444 40.5942 45.7145 40.5942C45.6845 40.5942 45.6541 40.5942 45.6233 40.5911C45.6415 40.7899 45.6064 40.9561 45.5194 41.0685C45.4873 41.1119 45.4455 41.1473 45.3974 41.1717C45.3492 41.1961 45.2959 41.2088 45.2419 41.2089L45.2411 41.2077ZM45.0726 39.3287C45.0655 39.3568 45.0616 39.3856 45.0608 39.4146C45.1917 39.4112 45.2411 39.3652 45.3079 39.2694C45.2273 39.2791 45.1482 39.299 45.0726 39.3287V39.3287ZM44.4192 37.533C44.4564 37.587 44.4903 37.6433 44.5206 37.7015C44.5228 37.6973 44.5254 37.6933 44.5279 37.6894C44.5634 37.6365 44.6179 37.5994 44.6801 37.5858L44.7017 37.5673C44.7233 37.5512 44.7423 37.5317 44.7579 37.5097C44.7601 37.5016 44.7539 37.4597 44.6983 37.3797L44.6947 37.3741C44.647 37.3013 44.616 37.219 44.6037 37.1329C44.5669 37.1458 44.5282 37.1527 44.4891 37.1534C44.4804 37.2045 44.4692 37.2539 44.4585 37.303C44.44 37.3787 44.4268 37.4555 44.4192 37.533V37.533ZM58.8101 39.2576L59.5249 38.7963L58.8696 37.8416L60.0318 37.0416L60.9236 38.2459L60.1955 38.766L60.8781 39.6926L59.6707 40.5369L58.8101 39.2576ZM26.7313 38.9086V36.4225L28.4756 35.21H30.1851V35.9165H29.4185L29.7555 36.2035H31.2383C31.2147 36.1799 31.1911 36.1549 31.1676 36.1291C30.7014 35.6124 30.28 34.6159 30.36 33.525C30.1694 33.3948 29.9886 33.251 29.8189 33.0945C29.847 33.2613 29.9349 33.4528 30.0211 33.6401C30.1896 34.0077 30.4002 34.4651 30.002 34.713C29.9491 34.7449 29.8883 34.7615 29.8265 34.7608C29.6504 34.7608 29.4575 34.6403 29.2969 34.4297C29.1057 34.1795 28.7059 33.4542 29.0613 32.0792L27.9477 30.3018L28.6216 29.5403L29.715 31.3219C29.8198 31.3155 29.9293 31.3124 30.0421 31.3124H30.134C29.7268 30.4582 28.9768 29.6959 28.4349 29.3384L28.3338 29.2716L28.365 29.1542C28.5848 28.3273 29.4514 27.7503 30.4709 27.7503C30.8077 27.7508 31.1413 27.8157 31.4537 27.9415V21.8635C31.4537 21.3676 31.6255 20.9492 31.951 20.6535C32.2499 20.3879 32.6372 20.2433 33.0371 20.2481C33.2629 20.248 33.4865 20.2932 33.6947 20.3809V19.6455C33.6947 19.1044 33.8674 18.6476 34.1939 18.3238C34.4904 18.0355 34.8877 17.8742 35.3012 17.8742C35.7148 17.8742 36.112 18.0355 36.4085 18.3238C36.7351 18.6476 36.9078 19.1044 36.9078 19.6455V20.3871C37.1206 20.2952 37.3499 20.2479 37.5817 20.2481C37.9958 20.2481 38.3828 20.3921 38.6717 20.6535C38.9983 20.9492 39.1709 21.3676 39.1709 21.8635V27.577C39.6261 27.3067 40.1455 27.1637 40.6749 27.1628C41.39 27.1628 41.9828 27.424 42.3293 27.869C42.3574 27.4582 42.3689 27.0095 42.3689 26.4954C42.3689 26.1975 42.5842 26.0619 42.7847 26.0619C42.8707 26.0591 42.9548 26.0873 43.0217 26.1413L43.3643 26.3449C43.4808 26.3974 43.6451 26.5608 43.5931 26.8804L43.3039 28.5118C43.2758 28.6617 43.4106 28.8347 43.5802 29.0537C43.9337 29.5097 44.4678 30.1987 44.0014 31.4632C43.9612 31.5727 43.8543 31.8641 43.6178 31.8641C43.2918 31.8641 43.1057 31.3334 42.8204 30.1454C42.8111 30.1681 42.8016 30.1906 42.7923 30.2131C42.72 30.3788 42.6564 30.5483 42.6019 30.7207C42.8886 31.348 43.2388 32.602 42.6623 33.2285C42.4888 33.4116 42.3209 33.5037 42.1608 33.5037C41.9011 33.5037 41.7458 33.2706 41.7458 33.0451C41.7458 32.9533 41.7677 32.8107 41.7952 32.6301C41.8261 32.4271 41.8609 32.1969 41.8713 31.9961C41.8713 31.9731 41.8733 31.9517 41.8738 31.9315C41.859 31.9672 41.8458 32.0026 41.8314 32.0354C41.7065 32.3443 41.5667 32.6877 41.3805 32.8929C41.3922 33.0216 41.4127 33.1493 41.442 33.2751C41.4701 33.4082 41.4937 33.5233 41.4937 33.6227C41.4937 34.0518 41.4052 34.2899 41.3271 34.5002C41.3008 34.571 41.276 34.6378 41.2564 34.7077C41.0149 35.54 40.5544 35.8359 40.2048 35.8359C40.0363 35.8359 39.949 35.7621 39.9058 35.7003C39.7761 35.5147 39.8777 35.2384 40.0181 34.8562C40.058 34.7473 40.0992 34.6347 40.1377 34.5176V34.5134C40.2315 34.2508 40.2677 34.04 40.2461 33.8956C40.1464 34.0038 40.042 34.1436 39.9398 34.2801C39.8148 34.4485 39.687 34.6192 39.5537 34.7532C39.4807 34.986 39.4804 35.3212 39.4801 35.6756C39.4801 36.0791 39.4801 36.4966 39.3678 36.8268C39.2274 37.2418 38.9342 37.4522 38.494 37.4522C38.3011 37.4522 38.2053 37.3659 38.159 37.2938C38.0062 37.0546 38.1871 36.6614 38.3985 36.2063C38.4855 36.0179 38.5757 35.823 38.6271 35.6635C38.6494 35.6009 38.6638 35.5357 38.67 35.4695C38.4055 35.7076 38.2733 35.9016 38.0986 36.1583C37.9259 36.4185 37.7384 36.6687 37.537 36.9074C37.1467 37.3629 36.3779 37.7928 35.9545 37.7928C35.864 37.796 35.7747 37.7721 35.6978 37.7242C35.4959 37.5931 35.4451 37.4291 35.4384 37.3146C35.4229 37.0456 35.6296 36.7311 36.0533 36.3801C36.4821 36.0218 37.031 35.6613 37.5154 35.3431C37.7089 35.2159 37.924 35.0747 38.1051 34.9475C38.0509 34.9725 37.9956 34.9978 37.94 35.0227C37.8613 35.0595 37.7785 35.107 37.6906 35.1581C37.466 35.2884 37.2321 35.4232 36.9886 35.4232C36.8607 35.424 36.7362 35.3821 36.6348 35.3041C36.5855 35.2697 36.5458 35.2232 36.5193 35.1692C36.4929 35.1152 36.4807 35.0553 36.4838 34.9952C36.4992 34.7425 36.7862 34.4651 37.414 34.0987C37.7353 33.9088 38.164 33.7993 38.5897 33.7993C38.7821 33.7959 38.9738 33.8244 39.1569 33.8836L39.3731 33.6612C39.296 33.6896 39.2149 33.7058 39.1328 33.7092C39.0828 33.7187 39.0344 33.7281 38.9876 33.7373C38.8278 33.7696 38.6768 33.7999 38.5307 33.7999C38.4216 33.8023 38.3131 33.7818 38.2124 33.7398C38.1117 33.6977 38.0209 33.635 37.9459 33.5556C37.8363 33.4461 37.8055 33.3054 37.8616 33.1701C37.9767 32.8918 38.4563 32.6801 38.8382 32.5523C39.306 32.3948 39.8255 32.2968 40.1936 32.2968C40.3806 32.2968 40.5238 32.321 40.6288 32.3707C40.7302 32.3109 40.9225 32.0556 41.0885 31.797C40.9968 31.8744 40.9 31.9455 40.7987 32.0099C40.54 32.173 40.2411 32.2613 39.9353 32.2648C39.5983 32.2648 39.3414 32.1413 39.2504 31.9343C39.1614 31.7378 39.1802 31.5308 39.3066 31.3374C39.4363 31.1366 39.6758 30.96 39.9631 30.8103L40.0097 30.6783C40.1824 30.1895 40.3556 29.7798 40.5362 29.4384C40.4465 29.5244 40.3274 29.5731 40.2031 29.5746C39.8238 29.5746 39.5379 29.2887 39.5379 28.9096C39.5379 28.6946 39.6654 28.5059 39.8564 28.4011C39.3333 28.6263 38.8642 28.9605 38.4805 29.3814L38.1879 29.7009V21.8635C38.1879 21.4111 37.8664 21.2089 37.5477 21.2089C37.229 21.2089 36.9075 21.4111 36.9075 21.8635V26.4446H35.993V19.6455C35.993 19.0707 35.6372 18.809 35.3067 18.809C34.9762 18.809 34.6216 19.0707 34.6216 19.6455V26.4446H33.695V21.8595C33.693 21.4103 33.3723 21.2089 33.0548 21.2089C32.7372 21.2089 32.4145 21.4111 32.4145 21.8635V29.9149L32.111 29.5072C31.7538 29.0276 31.1931 28.7524 30.5723 28.7524C30.1758 28.7524 29.8161 28.8712 29.5845 29.0703C29.8672 29.2354 30.0792 29.437 30.2766 29.6961C30.2957 29.303 30.5633 29.0301 30.941 29.0301C31.3386 29.0301 31.6059 29.3159 31.6059 29.7413C31.6059 30.1269 31.3251 30.4065 30.941 30.4065C30.8628 30.4068 30.7852 30.3941 30.7113 30.3689C30.7767 30.4812 30.8449 30.6006 30.9176 30.728C31.0185 30.9044 31.1325 31.1043 31.2591 31.3194L31.3352 31.4483C31.7926 31.5502 32.1857 31.7108 32.3741 31.9357C32.4248 31.9928 32.4619 32.0605 32.4827 32.134C32.5035 32.2074 32.5073 32.2846 32.494 32.3597L32.4859 32.4044L32.4561 32.4389C32.2447 32.684 31.7991 32.8244 31.2333 32.8244C31.0807 32.8242 30.9282 32.814 30.777 32.7938C30.8557 32.8632 30.9491 32.9139 31.0502 32.9421C31.1513 32.9216 31.2667 32.8949 31.3871 32.8671C31.7923 32.7742 32.2969 32.6582 32.7383 32.6582C33.328 32.6582 33.693 32.8682 33.8275 33.2818L33.8539 33.363L33.8039 33.4323C33.5908 33.7286 32.8422 34.0728 32.1967 34.0728C32.1655 34.0728 32.1349 34.0728 32.1046 34.0706C32.2549 34.1982 32.4258 34.2995 32.61 34.3702C33.0362 33.89 33.5551 33.6469 34.1543 33.6469C34.7535 33.6469 35.3005 33.8937 35.6574 34.1006L35.7416 34.1495V34.2464C35.7416 34.8989 34.9953 34.8989 34.7142 34.8989C34.6072 34.8989 34.4986 34.8955 34.3938 34.8919C34.2947 34.8885 34.2012 34.8854 34.1131 34.8854C33.9317 34.8854 33.8384 34.9014 33.791 34.9163C33.9314 35.0121 34.1279 35.0539 34.4186 35.0539C34.5261 35.0539 34.6398 35.0486 34.7496 35.0435C34.8594 35.0385 34.9779 35.0329 35.0905 35.0329C35.5678 35.0329 36.1294 35.1351 36.2476 35.9314L36.2575 35.9968L36.2198 36.053C36.0657 36.2776 35.804 36.3972 35.4637 36.3972C35.1233 36.3972 34.6977 36.2731 34.2776 36.0628C34.4239 36.2214 34.5351 36.3953 34.5491 36.5901C34.5609 36.7563 34.5008 36.9156 34.3703 37.063L34.352 37.0835L34.3281 37.0972C34.2682 37.1311 34.2004 37.1483 34.1316 37.1472C33.7666 37.1472 33.3333 36.7196 33.107 36.4646C32.7512 36.0634 32.4612 35.5942 32.3045 35.164C32.0798 35.0458 31.8406 34.9113 31.6424 34.7405C31.6935 34.8464 31.7943 34.9834 31.9411 35.1685C32.2253 35.5262 32.5791 35.9715 32.232 36.359C32.1866 36.4124 32.13 36.4551 32.0662 36.4842C32.0025 36.5133 31.9331 36.5281 31.8631 36.5275C31.689 36.5275 31.5025 36.4433 31.3161 36.2784V36.9105H29.3727L28.5087 36.1243L27.481 36.7982V38.9089L26.7313 38.9086ZM42.2431 28.7395C41.6922 29.1887 41.3726 29.8099 41.1199 30.3869C41.3806 30.3172 41.6463 30.2674 41.9146 30.2381C42.0592 29.747 42.1685 29.2462 42.2417 28.7395H42.2431ZM40.2071 28.3138C40.4946 28.3138 40.7566 28.598 40.7566 28.9099C40.7567 28.9762 40.7486 29.0422 40.7324 29.1065C40.954 28.7569 41.1893 28.498 41.4513 28.3116C41.2884 28.2273 41.0845 28.1835 40.8495 28.1835C40.5715 28.188 40.2963 28.2392 40.0352 28.3349C40.091 28.3212 40.1482 28.3141 40.2057 28.3138H40.2071ZM30.6936 38.8738V37.116H32.2099V37.7765H31.4127V38.8738H30.6936ZM28.1061 38.8738V37.1506H29.1939V37.9146H28.8704V38.8732L28.1061 38.8738ZM24.8601 38.8738V37.5777H25.9479V38.3305H25.623V38.8732L24.8601 38.8738ZM23.1967 38.8738V37.5777H24.2716V38.3305H23.9363V38.8732L23.1967 38.8738ZM23.1967 37.3376V35.7876H24.3654V36.4596H23.9018V37.3376H23.1967ZM24.4659 37.118L25.1145 28.3716H26.2346V27.6054V27.595C26.3335 26.8045 26.2234 26.5886 25.9653 26.382C25.7334 26.6563 25.8466 26.9958 26.0529 27.4942C26.0833 27.5675 26.1147 27.6435 26.1431 27.7188L25.8685 27.8999C24.5636 26.6299 24.6094 25.7844 25.0255 24.1558L25.1524 23.6588L25.3451 24.1345C25.5818 24.7194 25.9002 25.0212 26.2082 25.3138C26.6378 25.721 27.0439 26.1057 27.0439 27.121V28.3733H28.1409L27.0337 29.7413L28.2131 31.0013L27.0548 32.257L28.7311 34.2087H25.3532L25.1373 37.1197L24.4659 37.118ZM27.2485 33.5351L26.6168 32.7635L26.0347 33.5343L27.2485 33.5351ZM25.4257 33.2504L26.1726 32.2853L25.5444 31.6476L25.4257 33.2504ZM26.605 31.7521L27.0402 31.2846H26.1316L26.605 31.7521ZM26.9481 30.614L26.6044 30.2403L26.231 30.614H26.9481ZM25.6461 30.2602L26.1734 29.7329L25.7241 29.1904L25.6461 30.2602ZM26.605 29.1901L26.7212 29.045H26.48L26.605 29.1901ZM7.34522 36.4261C7.04758 36.4115 6.74601 36.4073 6.45427 36.4031C5.82867 36.3947 5.182 36.3857 4.51849 36.2737C3.98724 36.1875 3.28779 35.7525 2.98144 35.4849C2.81016 35.34 2.73463 35.1505 2.78882 35.0017C2.8301 34.8894 2.93427 34.8211 3.06708 34.8211C3.1039 34.8215 3.14055 34.8261 3.17631 34.8349H3.18108H3.18558C3.26392 34.8582 3.34731 34.8891 3.43548 34.9219C3.60704 34.9851 3.80051 35.0573 3.96028 35.071H3.96618C4.32671 35.1146 4.62716 35.1238 4.9453 35.1337C5.31728 35.1399 5.6887 35.1653 6.05807 35.2098C6.51548 35.262 7.23122 35.6854 7.50106 36.1731L7.64735 36.4379L7.34522 36.4261ZM19.1752 35.6293V33.751C19.1752 32.7492 19.8261 32.2929 20.4309 32.2929C20.9599 32.2929 21.5224 32.6579 21.5224 33.3355V33.6078H20.7811V33.3355C20.7811 33.1577 20.6 33.0384 20.4307 33.0384C20.2156 33.0384 19.9859 33.2257 19.9859 33.751V35.6293H19.1752ZM67.0482 35.5169C66.7691 35.5169 65.3969 35.1177 64.71 34.9065C64.096 34.7178 62.6347 34.2539 62.3295 34.0248L62.2969 33.9995C61.8777 33.671 61.5155 33.3874 61.3405 32.9887L61.1926 32.6517L61.545 32.7613C61.7825 32.8351 62.2088 32.9463 62.7021 33.0752C64.3658 33.5098 65.7765 33.894 66.1912 34.195L66.1946 34.1975C66.2227 34.2191 66.2637 34.2472 66.3108 34.2798C66.5765 34.4634 67.0707 34.8046 67.2341 35.2945L67.2863 35.4515L67.1302 35.5077C67.1035 35.515 67.0758 35.5175 67.0482 35.5153V35.5169ZM22.271 34.3688V33.3341C22.271 32.5442 22.8216 32.1845 23.3329 32.1845C23.8285 32.1845 24.2034 32.4934 24.2034 32.9064V33.2136H23.4494V32.9991C23.4494 32.9508 23.3832 32.9067 23.309 32.9067C23.1608 32.9067 23.0687 33.0704 23.0687 33.3341V34.3688H22.271ZM67.9464 33.7884C67.8198 33.7884 67.6463 33.7213 67.416 33.5831C66.3072 32.9426 65.4932 31.6139 65.1135 30.6722C65.1267 30.7766 65.1391 30.8889 65.147 30.9984C65.1703 31.3171 65.175 31.6611 64.9369 31.7086C64.922 31.7117 64.9067 31.7132 64.8914 31.7131C64.8125 31.7131 64.6668 31.7131 63.8272 31.0156C63.4265 30.6817 63.0315 30.324 62.9287 30.224C62.852 30.1583 62.7321 30.0275 62.5249 29.7967C61.7603 28.9454 61.0533 28.0441 60.4086 27.0988C59.238 25.354 58.5835 23.3598 58.2252 20.4488L56.4329 20.2986C55.9171 20.2599 55.5686 19.8238 55.4641 19.4352L54.9138 17.2694L54.9158 17.2414C54.9301 17.0428 55.0809 16.8814 55.2527 16.8814C55.2951 16.8814 55.3368 16.8919 55.374 16.9121C55.4113 16.9322 55.4429 16.9613 55.4661 16.9968L55.4942 17.0367C56.8294 18.9668 57.0703 19.315 59.7459 19.6385C60.1407 19.6755 60.139 19.9619 60.139 20.0998V20.1167C60.2031 23.6142 61.0508 25.9956 63.0646 28.3337C63.0972 28.3688 63.1643 28.4604 63.3785 28.7549L63.4602 28.8672L63.577 29.0279C63.6192 29.084 63.6613 29.1402 63.7009 29.1901C63.6562 29.0366 63.5984 28.8762 63.5487 28.7389C63.3973 28.3177 63.296 28.0411 63.5046 27.9286C63.6077 27.8742 63.7231 27.8473 63.8396 27.8505C64.5306 27.8505 65.7209 28.6381 65.9714 29.0635C66.2184 29.4701 66.3187 29.8093 66.4069 30.1086C66.4392 30.2173 66.4692 30.3198 66.5049 30.4209C66.6422 30.7839 66.898 31.4567 67.1072 31.8529C67.2913 32.1771 67.4922 32.4915 67.7089 32.7949L67.7114 32.7983C67.7935 32.9148 67.885 33.0242 67.9852 33.1254C68.0793 33.2035 68.2752 33.393 68.2345 33.5823C68.2241 33.6272 68.2015 33.6684 68.169 33.7012C68.1366 33.7341 68.0957 33.7572 68.0509 33.7682C68.0174 33.7798 67.9822 33.7856 67.9467 33.7853L67.9464 33.7884ZM7.936 33.1611C7.86943 33.1612 7.80457 33.1399 7.75096 33.1004L7.73412 33.0881L7.72064 33.0721C7.62208 32.9536 7.52408 32.8385 7.43002 32.7273C6.84906 32.0419 6.34729 31.45 5.95137 30.5371L5.94576 30.5236C5.9117 30.4515 5.90185 30.3704 5.91768 30.2923V30.2869C5.93462 30.2122 5.97763 30.146 6.03898 30.1002C6.04466 30.0958 6.0501 30.0911 6.05526 30.0862C8.91737 27.112 9.24477 23.9958 9.17205 21.0713L9.16362 20.7237L9.44161 20.9324C9.54224 21.0058 9.66411 21.0443 9.78867 21.0421C10.0257 21.0421 10.261 20.9194 10.3606 20.7442C10.4286 20.6249 10.4263 20.4957 10.3542 20.3595C10.166 20.2147 9.9709 20.0717 9.78193 19.9333C9.3526 19.6185 8.94713 19.3215 8.63377 19.0162C8.13284 18.515 8.0691 18.3603 7.80066 17.7086L7.74984 17.5822L7.75265 17.5426C7.76641 17.3461 7.91242 17.1945 8.08482 17.1945C8.13115 17.1951 8.17672 17.2062 8.21808 17.2271C8.25944 17.248 8.29549 17.278 8.3235 17.3149L9.87515 18.8312L9.88357 18.8396C9.70752 18.0377 9.84679 17.4413 10.3048 16.9637C10.4668 16.7966 10.6493 16.7109 10.8475 16.7109C11.2246 16.7109 11.6163 17.0251 11.9502 17.5954C12.2433 18.0961 12.4447 18.7186 12.4885 19.2602C12.5657 20.2234 12.2459 21.2732 11.6924 21.8716C11.3945 22.1945 11.0466 22.3652 10.6878 22.3652C10.5793 22.3649 10.4714 22.3498 10.3671 22.3203C10.3003 24.2449 10.2084 25.8442 9.82517 27.2752C9.4183 28.7934 8.69751 30.0659 7.4932 31.3901C7.62404 31.8613 7.86777 32.1999 8.14744 32.5886L8.19658 32.6571C8.23085 32.7039 8.2514 32.7594 8.25591 32.8173C8.26042 32.8752 8.24873 32.9332 8.22213 32.9848C8.19447 33.0367 8.15328 33.0802 8.10291 33.1107C8.05253 33.1411 7.99486 33.1574 7.936 33.1577V33.1611ZM10.7793 18.4875C10.763 18.9286 10.9837 19.477 11.2053 19.9833C11.3457 19.5478 11.4319 19.1519 11.4479 18.9505V18.9477C11.4891 18.5265 11.2165 18.1037 11.1129 18.052C11.0957 18.0422 11.0765 18.0367 11.0567 18.036C10.9486 18.036 10.7961 18.2483 10.7793 18.4875ZM17.4981 32.1511L18.3593 31.25L18.5713 27.0317H19.5021L19.6852 29.9783C19.7341 29.9639 19.7849 29.9567 19.8359 29.9567C19.9665 29.9567 20.1002 30.0028 20.2445 30.0971L20.9642 30.5787L21.0765 28.3138H22.0592L22.1359 30.9252L22.609 30.452L22.8337 26.6147H23.7763L23.9756 30.3894L24.7209 30.9998L24.2522 31.5749L23.2846 30.7586L22.0402 32.0831L19.8452 30.7073L17.9765 32.6933L17.4981 32.1511ZM59.6401 30.7491L60.6605 29.7135L61.746 30.7404L60.7256 31.8057L59.6401 30.7491ZM47.3501 31.7372C46.8871 31.7372 46.5327 31.3256 46.3626 31.0802C46.118 30.7272 45.9217 30.2327 46.02 29.9707L46.0576 29.8699L46.1649 29.8621C46.2093 29.8587 46.255 29.857 46.3011 29.857C46.768 29.857 47.2634 30.0283 47.6228 30.2782C47.5262 29.991 47.5104 29.6818 47.5891 29.4457L47.6278 29.3311H47.7486C48.0647 29.3311 48.4174 29.4825 48.6872 29.702C48.6252 29.2247 48.6794 28.6201 48.8319 28.2037C48.7371 28.3394 48.6162 28.4548 48.4764 28.5432C48.3854 28.6094 48.2766 28.6468 48.1641 28.6505V28.6505C48.1117 28.6509 48.0597 28.6414 48.0108 28.6224C47.9912 28.7867 47.8946 28.9358 47.73 29.05C47.5806 29.1536 47.4296 29.2062 47.2808 29.2062C47.1874 29.206 47.0954 29.1847 47.0115 29.1438C47.0278 29.2921 46.9932 29.5521 46.6223 29.7335C46.5095 29.7885 46.3856 29.8173 46.2601 29.8177V29.8177C45.9473 29.8177 45.6423 29.631 45.3776 29.278C45.1248 28.9428 44.8954 28.4006 44.9659 28.1588L44.9976 28.0499L45.085 28.0409C44.7646 27.9864 44.4582 27.7685 44.2092 27.4141C43.9904 27.103 43.8124 26.6684 43.8947 26.4392L43.9267 26.3502L44.0197 26.3314C44.1161 26.3122 44.2142 26.3028 44.3125 26.3033C44.7598 26.3033 45.195 26.4971 45.5059 26.7557C45.3995 26.4555 45.3792 26.1245 45.4638 25.8572L45.5008 25.7392H45.6244C45.8984 25.7392 46.2261 25.9099 46.4757 26.1528C46.4067 25.5868 46.4934 24.8514 46.683 24.4192L46.7672 24.2274L46.9357 24.3507C47.3611 24.6596 47.8623 25.2324 47.8777 25.828C47.8792 25.8794 47.8769 25.9309 47.871 25.9821L47.9875 25.7886L48.1397 25.9571C48.5746 26.4367 49.0761 27.1409 48.9953 27.7724C48.9878 27.8305 48.9755 27.8879 48.9585 27.944L49.0618 27.7842L49.2076 27.9038C49.2997 27.9794 50.1061 28.6645 50.0861 29.4555C50.0769 29.8146 49.8994 30.1243 49.5588 30.3759C49.4485 30.4571 49.3395 30.4978 49.2348 30.4978C49.1994 30.4978 49.1642 30.4932 49.1301 30.484C49.1222 30.6705 49.0259 30.8361 48.8493 30.9569L48.8462 30.9589C48.7364 31.0341 48.6069 31.0751 48.4738 31.0768V31.0768C48.3567 31.0756 48.2419 31.0433 48.1414 30.983C48.1622 31.1644 48.1099 31.4359 47.7132 31.6482C47.6012 31.7069 47.4766 31.7375 47.3501 31.7372V31.7372ZM45.4098 28.0389C45.7954 28.0777 46.2065 28.247 46.5159 28.4705C46.437 28.1956 46.4316 27.8909 46.5159 27.6433L46.5544 27.5281H46.6757C46.9845 27.5281 47.3282 27.6652 47.5894 27.8651C47.5242 27.4512 47.552 26.9385 47.6626 26.5086C47.576 26.6266 47.4739 26.7325 47.3591 26.8234C47.2417 26.9211 47.1252 26.9708 47.0123 26.9708C46.9615 26.9708 46.9112 26.9606 46.8643 26.9407C46.8628 27.0251 46.8443 27.1083 46.8101 27.1855C46.7758 27.2627 46.7265 27.3322 46.665 27.39L46.6509 27.4038L46.6341 27.4139C46.5382 27.4733 46.4279 27.5053 46.3151 27.5062V27.5062C46.1814 27.5041 46.0516 27.4603 45.9439 27.381C45.9456 27.3886 45.9473 27.3962 45.9487 27.4035C45.9984 27.6615 45.874 27.8772 45.6165 27.9805C45.5498 28.007 45.4805 28.0266 45.4098 28.0392V28.0389ZM3.06063 28.6446L3.86257 28.5168L3.61968 27.3021L4.95709 27.1025L5.27888 28.6533L4.48368 28.7914L4.7493 30.0042L3.42565 30.2353L3.06063 28.6446ZM51.7156 29.5872C51.2972 29.5872 50.8606 29.2452 50.6132 28.9065C50.4989 28.7499 50.3742 28.5261 50.4307 28.3503L50.456 28.2714L50.5337 28.2433C50.6009 28.2191 50.6699 28.2003 50.7401 28.1872C50.2709 28.1414 49.834 27.7202 49.645 27.4321C49.5498 27.2861 49.4513 27.0772 49.5234 26.9129L49.5515 26.8461L49.6203 26.8217C49.6748 26.8028 49.7304 26.7873 49.7868 26.7753C49.3937 26.7102 49.0062 26.4022 48.7743 26.0967C48.6639 25.9512 48.5424 25.742 48.5901 25.5722L48.6134 25.4879L48.6948 25.4584C48.7981 25.4216 48.9055 25.3977 49.0146 25.3871H48.9992C48.5679 25.3871 48.1512 25.0532 47.9041 24.7413C47.7918 24.5984 47.611 24.3268 47.6632 24.1104L47.6848 24.0205L47.7724 23.9905C47.9355 23.9368 48.1062 23.9103 48.2779 23.9121C48.6375 23.9121 49.0565 24.0227 49.3499 24.2171C49.2592 23.8644 49.2938 23.3868 49.4591 22.992C49.3952 23.0526 49.323 23.1038 49.2446 23.1441C49.1608 23.1918 49.0666 23.2183 48.9703 23.2211C48.9164 23.2214 48.8631 23.2103 48.8139 23.1885C48.8288 23.3306 48.7906 23.5218 48.5685 23.7029C48.4242 23.8253 48.2413 23.8927 48.0521 23.893V23.893C47.3291 23.893 46.683 22.9307 46.6116 22.821L44.8266 20.1197L45.0948 19.8522L47.0303 22.3793C47.1551 22.3428 47.2846 22.3248 47.4147 22.3259C47.7929 22.3259 48.2425 22.4733 48.5292 22.7151C48.459 22.2591 48.5963 21.6113 48.6937 21.2968L47.187 18.8539L47.4914 18.6257L49.2258 20.9467C49.4577 21.187 49.8155 21.8851 49.7259 22.466C49.7188 22.5135 49.7085 22.5604 49.695 22.6064C49.7135 22.5848 49.7326 22.5643 49.7512 22.5444L49.8003 22.495H49.8702C50.1544 22.495 50.4197 22.9055 50.5346 23.3093C50.6188 23.6091 50.6208 23.8866 50.5447 24.1193C50.5836 24.0631 50.6277 24.0107 50.6764 23.9627L50.7255 23.9146H50.7943C51.0939 23.9146 51.3887 24.4664 51.4865 24.8648C51.5313 25.0356 51.5451 25.2129 51.5272 25.3885C51.5356 25.3792 51.5443 25.3703 51.553 25.3604L51.6024 25.311H51.6723C51.9719 25.311 52.2539 25.8341 52.3502 26.1879C52.424 26.4589 52.4271 26.7051 52.3639 26.9129C52.4079 26.85 52.457 26.7908 52.5108 26.736L52.5605 26.6858H52.631C52.928 26.6858 53.1734 27.1892 53.2661 27.5281C53.4262 28.1136 53.2855 28.6027 52.8898 28.8364C52.7986 28.8941 52.6934 28.9261 52.5855 28.929V28.929C52.5256 28.9292 52.4663 28.9173 52.4111 28.8939C52.4367 29.0217 52.4209 29.2095 52.2112 29.3951C52.0747 29.5203 51.896 29.5893 51.7108 29.5883L51.7156 29.5872ZM51.0445 28.1599C51.3949 28.1599 51.8052 28.2694 52.0871 28.4607C51.9879 28.1217 52.0183 27.6444 52.1924 27.2325C52.129 27.3043 52.0546 27.3656 51.9719 27.4139C51.8826 27.4726 51.7787 27.5054 51.6718 27.5085V27.5085C51.6268 27.5084 51.582 27.5013 51.5392 27.4874C51.5673 27.6214 51.5491 27.8277 51.2961 28.026C51.2212 28.0864 51.1354 28.1319 51.0434 28.1599H51.0445ZM50.1996 26.7433C50.5365 26.7562 50.91 26.8596 51.1787 27.0325C51.0962 26.7349 51.1071 26.3323 51.2155 25.9726C51.1745 26.0044 51.1308 26.0326 51.0849 26.0568C51.0016 26.1031 50.9082 26.1284 50.8128 26.1304V26.1304C50.7402 26.1304 50.6686 26.1127 50.6042 26.079C50.6441 26.1978 50.6677 26.4213 50.4077 26.6285C50.3444 26.6774 50.2739 26.7162 50.1987 26.7433H50.1996ZM49.1904 25.3795C49.5807 25.3795 50.0362 25.5121 50.3285 25.7308C50.1982 25.3846 50.2162 24.8466 50.3908 24.4147C50.323 24.4997 50.2409 24.5722 50.1482 24.629C50.0608 24.6885 49.9582 24.7218 49.8525 24.7247V24.7247C49.8064 24.7246 49.7606 24.7169 49.7169 24.702C49.7377 24.834 49.7121 25.021 49.4993 25.2029C49.3886 25.2997 49.2519 25.3618 49.1062 25.3815C49.1331 25.3801 49.1612 25.3795 49.1896 25.3795H49.1904ZM54.4578 27.9409C54.1489 27.9409 53.8358 27.7269 53.5727 27.338C53.3942 27.0744 53.1647 26.5909 53.2639 26.3404L53.2998 26.25L53.3964 26.2362L53.4245 26.2326C53.0836 26.2185 52.7253 25.9355 52.4614 25.4691C52.4032 25.3663 52.1213 24.8407 52.2825 24.5723L52.3257 24.5001H52.3319C52.0301 24.4105 51.7914 24.1418 51.6639 23.9691C51.4393 23.6656 51.2495 23.2407 51.3188 23.0144L51.3528 22.9044L51.4676 22.8959C51.5075 22.8931 51.5488 22.8914 51.5901 22.8914C52.0196 22.8981 52.4366 23.037 52.7843 23.2893C52.7059 23.047 52.6807 22.7701 52.7641 22.5244L52.8031 22.4102H52.9235C53.1414 22.4102 53.3933 22.5267 53.6017 22.7011C53.5542 22.1864 53.6497 21.5439 53.8653 21.1865L53.9748 21.0051L54.1267 21.1525C54.4255 21.4423 54.9129 22.0055 54.9009 22.5845L54.9806 22.4385L55.1395 22.6154C55.5046 23.0212 55.9201 23.5611 55.8881 24.1404C55.8707 24.4538 55.7233 24.736 55.4498 24.9794C55.3465 25.0732 55.2398 25.1212 55.1337 25.1212C55.1102 25.1213 55.0867 25.1188 55.0637 25.1139C55.0595 25.1988 55.0359 25.2817 54.9948 25.3561C54.9536 25.4305 54.8959 25.4945 54.8262 25.5432C54.7179 25.6314 54.5831 25.6809 54.4435 25.6836V25.6836C54.3395 25.6823 54.2378 25.6532 54.1489 25.5994C54.1523 25.8108 54.0321 25.9992 53.8055 26.1306C53.7324 26.1749 53.6518 26.2055 53.5677 26.2208H53.5932C53.9616 26.2208 54.357 26.3578 54.6588 26.5603C54.5985 26.3075 54.6089 26.0453 54.6984 25.8378L54.7422 25.7359H54.8545C55.1137 25.7359 55.4043 25.8614 55.6337 26.0475C55.5753 25.514 55.6618 24.8076 55.8721 24.4055L55.9735 24.2117L56.135 24.3591C56.3812 24.5838 56.9507 25.179 56.9181 25.8333C56.9015 26.1677 56.7308 26.4586 56.4107 26.6978C56.3149 26.7706 56.2178 26.8079 56.1234 26.8079C56.0971 26.808 56.0708 26.8051 56.0451 26.7992C56.039 26.8778 56.0165 26.9543 55.9789 27.0237C55.9414 27.0931 55.8897 27.1538 55.8272 27.2019C55.7 27.3035 55.5658 27.3546 55.4276 27.3546C55.3379 27.3543 55.2496 27.3329 55.1696 27.2923C55.1721 27.5057 55.048 27.7 54.8141 27.8395C54.7068 27.9038 54.5843 27.9381 54.4592 27.9389L54.4578 27.9409ZM52.7396 24.4964C53.0695 24.5436 53.3833 24.6694 53.6544 24.8632C53.584 24.5998 53.5798 24.3209 53.6544 24.0972L53.6873 23.9992C53.6344 24.0207 53.5779 24.0318 53.5208 24.0317V24.0317C53.4036 24.0288 53.2905 23.9882 53.1982 23.916C53.2088 24.1143 53.1038 24.294 52.8977 24.4215C52.8481 24.453 52.7947 24.4782 52.7388 24.4964H52.7396ZM53.8139 23.982C54.0759 23.982 54.382 24.1238 54.6257 24.3285C54.5829 23.942 54.6027 23.5511 54.6844 23.1708C54.6042 23.2678 54.5106 23.3529 54.4064 23.4235C54.3246 23.4862 54.2252 23.5217 54.1222 23.5252V23.5252C54.0914 23.5251 54.0608 23.5211 54.031 23.5134C54.0198 23.6652 53.9492 23.8065 53.8344 23.9065C53.801 23.9363 53.7639 23.9618 53.7241 23.9823L53.8139 23.982ZM20.7308 26.7338C20.3425 26.7338 19.6186 26.6512 19.1368 26.0986C19.1266 26.0891 19.1157 26.0803 19.1042 26.0725C19.0542 26.036 18.9705 25.9745 18.9579 25.8591C18.9453 25.7437 19.0141 25.6488 19.0677 25.5882C19.1213 25.5275 19.1999 25.4947 19.3033 25.4947C19.3689 25.4967 19.4341 25.5049 19.4981 25.5191C19.5217 25.5239 19.5543 25.53 19.5653 25.5306C19.9834 25.5306 20.3211 25.4638 20.6483 25.3992C20.9608 25.3374 21.2843 25.2737 21.6616 25.2737C22.025 25.2737 22.4049 25.3335 22.823 25.4565C23.0243 25.5126 23.6272 25.7653 23.7679 26.0742C23.789 26.1167 23.8002 26.1634 23.8007 26.2108C23.8012 26.2582 23.7909 26.3051 23.7707 26.348L23.7614 26.3674L23.7474 26.3839C23.648 26.5021 23.5062 26.5619 23.3262 26.5619C23.1577 26.5619 22.9769 26.5094 22.8179 26.4631C22.7879 26.4544 22.7584 26.4457 22.7301 26.4378C22.574 26.3903 22.4119 26.3652 22.2488 26.3631C21.9742 26.3631 21.7658 26.4474 21.5454 26.537C21.3073 26.6338 21.0616 26.7332 20.73 26.7332L20.7308 26.7338ZM10.9278 24.8561L11.7183 24.7281L11.4869 23.5134L12.8083 23.3135L13.1593 24.864L12.35 25.0027L12.6151 26.202L11.2785 26.4477L10.9278 24.8561ZM44.4456 26.0147C43.8018 26.0147 43.1778 25.2742 42.992 24.9364L41.0798 21.5487L41.5049 21.4083L43.3682 24.4639C43.4724 24.4412 43.5788 24.43 43.6855 24.4305C43.7029 24.4305 43.7206 24.4305 43.738 24.4305L41.9379 21.2679L42.1563 20.9397L44.5711 24.4467H43.9337C44.4894 24.5223 45.0137 24.8398 45.1453 25.2077C45.2268 25.4354 45.1569 25.657 44.9488 25.828C44.8097 25.9499 44.6306 26.0164 44.4456 26.0147V26.0147ZM45.3972 25.2004C45.338 25.2004 45.2797 25.1857 45.2276 25.1577C45.1754 25.1298 45.131 25.0893 45.0982 25.0401C44.9561 24.8382 44.9474 24.4524 44.9906 24.0769L44.9117 24.4319L42.7084 20.8332L42.9768 20.5642L45.0928 23.51C45.1119 23.432 45.1319 23.3615 45.1507 23.3014L43.5681 20.5336L43.7894 20.1652L45.6825 22.9552C45.9127 23.1739 46.2222 23.7262 46.1854 24.2682C46.1774 24.432 46.1309 24.5916 46.0496 24.7341C45.9683 24.8766 45.8546 24.9978 45.7176 25.0881C45.6005 25.1642 45.4961 25.2009 45.3972 25.2009V25.2004ZM19.4768 25.0232L17.7154 24.9072L17.7266 24.5703C19.9645 24.5703 22.6761 22.7682 23.7973 21.8152C23.9355 21.6972 24.0756 21.5667 24.2109 21.44L24.257 21.3971C24.0105 21.2286 23.8004 21.1348 23.555 21.1348C23.2038 21.1348 22.7969 21.3426 22.3086 21.7697L21.2584 22.7047C19.9645 23.8515 19.4004 24.221 18.9368 24.221C18.7577 24.221 18.603 24.1674 18.4396 24.1109C18.3553 24.0828 18.2686 24.0519 18.168 24.0247L17.7331 23.9065L18.1391 23.7099C19.4195 23.0922 19.4588 23.0549 19.948 22.6149C20.1108 22.4677 20.313 22.2846 20.6219 22.0252L21.6608 21.1472C22.3591 20.5648 23.0156 20.2697 23.6134 20.2697C24.1966 20.2697 24.6299 20.5409 24.9517 20.8082C25.1278 20.6784 25.3202 20.5723 25.5239 20.4926L25.4043 20.4749L28.3953 19.2288L26.8524 18.8028L26.8599 18.4763L28.6935 18.0607L25.203 16.5894L25.2839 16.2664L28.7982 16.588L27.7941 15.7321L27.95 15.442L29.446 15.8719L27.1834 13.0747L27.396 12.822L30.8081 14.7131L29.84 12.3848L31.9816 14.0218L31.4585 11.6778L31.7522 11.5329L33.426 13.5338L33.5223 11.3672L34.6174 13.0354L35.1183 10.351L35.446 10.3359L36.2145 13.0463L37.3172 11.1209L37.6055 13.3735L38.8579 11.1771L39.1718 11.2776L38.8888 14.0575L40.2823 12.9548L39.8836 14.6701L42.0457 13.3347L42.2723 13.5745L40.9312 15.496L42.9189 14.8501L41.529 16.5411L44.4338 15.9343L44.5579 16.2431L42.0536 17.8156L43.6201 18.1595L42.0592 18.9997L44.8598 19.3647L44.8879 19.6924L43.5569 20.1085L42.1782 19.8946C42.094 19.8818 42.009 19.8756 41.9238 19.8757C41.2819 19.8757 40.5729 20.1958 40.0914 20.4654L39.4998 20.7939L38.0784 20.1967L39.8474 19.3773C40.0677 19.2745 40.2954 19.1885 40.5286 19.1198C40.3056 16.5958 38.0363 14.489 35.5055 14.489C32.8633 14.489 30.5664 16.5312 30.3139 19.0713C30.4605 19.1033 30.6158 19.1443 30.7843 19.1959L33.1974 19.9184L31.6233 20.4954L31.4997 20.4488L31.1768 21.2912L31.0625 21.3333C30.8222 21.4223 30.6321 21.4925 30.572 21.5605L30.5484 21.5869L30.5158 21.6018C30.1101 21.7865 29.788 21.8587 29.3666 21.8587C28.8755 21.8587 28.2448 21.7562 27.2 21.5869C26.9287 21.5428 26.6291 21.4942 26.2958 21.4414C26.2387 21.4328 26.1809 21.4284 26.1231 21.4282C25.6458 21.4282 25.3111 21.7671 24.8034 22.2807C24.7144 22.3708 24.622 22.4641 24.5226 22.5615C23.4958 23.6004 22.087 25.0243 19.4835 25.0243L19.4768 25.0232ZM27.2314 20.6148C28.0901 20.8324 28.6306 20.9503 29.0846 20.9503C29.6833 20.9503 30.1533 20.7448 31.0611 20.2837L30.8003 20.1852C30.4072 20.0338 29.9037 19.9473 29.4191 19.9473C29.054 19.9473 28.7311 19.9982 28.511 20.0905L27.2314 20.6148ZM51.8605 22.6848C51.266 22.6848 50.6772 22.019 50.4489 21.6672L48.2487 18.3305L48.5294 18.0498L50.8623 21.1486C50.9673 21.1234 51.0749 21.1107 51.1829 21.1107L49.1163 17.9245L49.4813 17.7156L52.0084 21.1413H51.5159C51.9964 21.2336 52.4367 21.5153 52.5577 21.8376C52.6082 21.9721 52.6501 22.2349 52.3634 22.4857C52.226 22.613 52.0453 22.6833 51.8579 22.6822L51.8605 22.6848ZM47.2493 22.2291L45.6847 19.6351L45.9231 19.3172L48.0824 22.2279L47.2493 22.2291ZM46.5398 19.242L46.8169 18.9649L48.6446 21.3002L48.4716 22.2153L46.5398 19.242ZM52.8856 21.8837C52.8282 21.8841 52.7715 21.8708 52.7203 21.8447C52.669 21.8187 52.6248 21.7807 52.5914 21.734C52.3914 21.4684 52.4468 20.8714 52.5254 20.4278L52.2727 20.9492L49.9648 17.3379L50.3518 17.1445L52.5782 20.1686C52.5967 20.0844 52.6138 20.013 52.6265 19.9642L50.7171 16.9791L50.9765 16.6548L53.1322 19.6188C53.3484 19.8434 53.7196 20.5134 53.6376 21.107C53.596 21.4094 53.4377 21.6458 53.1796 21.791C53.074 21.8534 52.9777 21.8834 52.8865 21.8834L52.8856 21.8837ZM60.2474 18.7849L60.9679 17.5238L62.2652 18.2393L61.5596 19.5309L60.2474 18.7849ZM14.2698 17.635L14.3934 17.5455C16.1393 16.2796 16.1744 15.8284 16.3053 14.1479C16.3333 13.7955 16.3637 13.3959 16.4156 12.9262C16.4465 12.6782 16.5942 12.3988 16.9163 12.3505H16.921C19.5588 12.0352 22.2931 11.0898 25.0485 9.54093C25.3871 9.3492 25.7121 9.13445 26.0212 8.8982C25.7312 8.54693 25.6604 8.01652 25.7275 7.62622C25.8145 7.15786 26.1613 6.42471 26.8535 5.89233C26.9874 5.78616 27.144 5.71245 27.3112 5.67696H27.3162H27.3213C27.3913 5.66503 27.4622 5.65893 27.5333 5.65871C27.9118 5.65871 28.2392 5.84095 28.4804 6.18548C28.569 6.31644 28.6354 6.46112 28.6769 6.61368L28.6795 6.62183L28.6811 6.63025C28.7059 6.75352 28.7255 7.01578 28.7247 7.25726C28.7586 7.23451 28.7867 7.21458 28.8019 7.20279C28.8404 7.17021 28.8945 7.12079 28.9572 7.06379C29.3197 6.7333 29.6982 6.40478 30.0242 6.29443C30.333 5.35883 31.069 4.71104 31.739 4.17501L31.7437 4.17108C32.2433 3.77629 32.6044 3.49072 33.1168 3.40199C33.1638 3.39213 33.2117 3.38724 33.2597 3.38739C33.4625 3.38739 33.7163 3.46798 34.0142 3.62663L34.0193 3.62944C34.3175 3.80212 34.3596 4.16153 34.3001 4.31092C34.1001 4.83234 33.7896 5.06624 33.6944 5.12802C33.6062 5.19287 33.5 5.22878 33.3906 5.23079C33.2305 5.23079 33.1022 5.15189 32.9781 5.07579C32.8714 5.01037 32.7709 4.94859 32.6541 4.93708H32.6496C32.4362 4.93708 32.0113 5.21506 31.8044 5.56044L31.7977 5.57111C31.7364 5.6691 31.6525 5.80304 31.6806 5.83393L31.6845 5.83842L31.6884 5.84319C31.7648 5.94063 31.885 5.99903 31.981 6.04592C32.011 6.06053 32.0394 6.074 32.0652 6.08889L32.0731 6.0931L32.0804 6.09843C32.3331 6.27674 32.4673 6.5536 32.4401 6.83888C32.4092 7.29573 32.0725 7.69838 31.5388 7.91684C31.4307 7.96282 31.3147 7.98697 31.1973 7.98788C30.8528 7.98788 30.5975 7.77504 30.3926 7.60404C30.3022 7.52878 30.1786 7.42573 30.1267 7.42573H30.1241C29.8967 7.49537 29.7229 7.63717 29.5168 7.84299C29.309 8.06425 28.6494 8.57136 27.8862 9.15822C27.3645 9.55947 26.8251 9.97448 26.4067 10.3168C25.6009 10.9842 24.7136 11.5326 23.5306 12.0945L23.4183 12.1489C22.0241 12.8242 20.1223 13.7458 17.3038 14.4657C17.301 14.5415 17.2984 14.6207 17.2959 14.7016C17.2583 15.8582 17.2089 16.6952 16.9109 16.9364C16.3244 17.3955 15.2284 17.7886 14.6273 17.9821L14.4984 18.0236L14.2698 17.635ZM26.9433 7.91543C26.9613 7.93172 27.0424 7.96345 27.1885 7.96345C27.3544 7.96345 27.506 7.92161 27.583 7.87388C27.5114 7.75707 27.2884 7.5504 27.1618 7.5504C27.1562 7.55022 27.1507 7.55117 27.1455 7.55321C27.0051 7.61779 26.9377 7.71888 26.9209 7.79245C26.915 7.81186 26.9135 7.83235 26.9167 7.85239C26.9199 7.87242 26.9275 7.89148 26.9391 7.90813L26.943 7.91263L26.9433 7.91543ZM57.4875 17.334C57.1073 17.334 56.7575 17.2371 56.5508 17.0748L56.3467 16.9148L56.5761 16.7935C56.769 16.6916 56.9442 16.5947 57.1295 16.4922C57.7155 16.1679 58.3212 15.8329 59.5227 15.3205C59.6263 15.2778 59.7698 15.2567 59.9512 15.2567C60.1632 15.257 60.3744 15.2836 60.5799 15.3359C60.7936 15.3968 60.9213 15.524 60.9247 15.6765C60.9261 15.7408 60.9034 15.8978 60.6647 15.9798C60.5611 16.0227 60.4375 16.0839 60.3067 16.1482C60.1983 16.2019 60.0863 16.2572 59.9722 16.3088C59.6858 16.447 59.4258 16.5764 59.1745 16.702C58.8569 16.86 58.5287 17.0235 58.1356 17.2099C57.971 17.2897 57.74 17.3337 57.4867 17.3337L57.4875 17.334ZM14.1696 16.0609C13.9638 15.8694 13.7484 15.6796 13.542 15.4957C13.072 15.0795 12.5873 14.6491 12.1482 14.1549C11.8112 13.7809 11.6079 13.0719 11.5534 12.6838C11.5282 12.5434 11.5554 12.4134 11.6293 12.3244C11.6555 12.2919 11.6886 12.2655 11.7262 12.2472C11.7639 12.229 11.805 12.2193 11.8469 12.2188C11.9092 12.2188 12.0277 12.241 12.1251 12.389C12.1788 12.4657 12.2271 12.5505 12.2739 12.6324C12.3526 12.7706 12.434 12.9132 12.5435 13.023L14.0208 14.4655C14.3372 14.7693 14.5975 15.5173 14.4445 15.9893L14.363 16.242L14.1696 16.0609ZM55.4942 15.3028C55.3956 15.3033 55.2971 15.2971 55.1994 15.2842C54.8818 15.2438 54.6004 15.111 54.3289 14.9824C54.0307 14.842 53.7491 14.7083 53.4444 14.7083C53.1709 14.7083 52.9176 14.7825 52.6495 14.8608C52.3729 14.942 52.0879 15.0256 51.7698 15.0256C51.684 15.0257 51.5983 15.0195 51.5134 15.0068C51.0922 14.9481 50.9462 14.7561 50.5947 14.2928C50.4568 14.1111 50.2858 13.8848 50.0457 13.5961L50.0437 13.5939C49.9505 13.4771 49.8618 13.2623 49.8789 13.128C49.8817 13.0999 49.8902 13.0726 49.9039 13.0479C49.9176 13.0232 49.9362 13.0015 49.9587 12.9843C50.0228 12.9343 50.102 12.9075 50.1833 12.9082C50.3869 12.9082 50.6831 13.0609 51.503 13.5897C51.904 13.8525 52.2735 13.9743 52.6675 13.9743C52.7913 13.9733 52.915 13.9639 53.0375 13.9463C53.4307 13.8766 54.2309 13.7497 54.61 13.6919H54.6142C54.6549 13.6869 54.6959 13.6843 54.7369 13.6843C55.0519 13.6843 55.2589 13.8443 55.4591 13.9993C55.4937 14.0263 55.5292 14.0534 55.5655 14.0808C55.7941 14.2422 55.9808 14.3144 56.1701 14.3144C56.3427 14.3144 56.5194 14.2568 56.7429 14.1841L56.7816 14.1715C56.8496 14.1512 56.9201 14.1407 56.9911 14.1403C57.1641 14.1403 57.2924 14.2122 57.3438 14.3368C57.4151 14.5053 57.3244 14.7123 57.1363 14.8063C57.0832 14.8344 57.0318 14.8625 56.9776 14.8939C56.9234 14.9254 56.8653 14.9594 56.8035 14.9903C56.2885 15.2621 55.7623 15.3028 55.4942 15.3028ZM45.9855 13.2839L44.8556 13.5139L44.5706 12.074L46.0464 11.776L46.2087 12.6465L47.3383 12.4499L47.6236 13.8618L46.1469 14.16L45.9855 13.2839ZM57.7978 13.9993C57.4957 13.9993 57.1933 13.768 56.6446 13.3482C56.5624 13.2853 56.4741 13.218 56.3795 13.1463C56.3565 13.1326 56.3369 13.1138 56.3223 13.0914C56.3077 13.0689 56.2985 13.0434 56.2953 13.0168C56.2812 12.902 56.3745 12.843 56.4141 12.8178L56.427 12.8093L56.4374 12.799L56.4567 12.788C56.5241 12.7501 56.6002 12.7308 56.6774 12.7318C56.7546 12.733 56.8309 12.7489 56.9021 12.7787L56.9066 12.7804L56.9108 12.7824C56.9502 12.8022 56.9878 12.8254 57.0231 12.8517C57.0097 12.8072 57.0034 12.7607 57.0046 12.7142C57.0077 12.6032 57.0576 12.4409 57.2772 12.2975L57.2817 12.2947C57.4045 12.2145 57.5478 12.1713 57.6945 12.1703C57.8315 12.1703 57.9753 12.2068 58.1437 12.2854L58.1482 12.2876C58.155 12.291 58.8306 12.7015 58.8746 12.9652L58.8901 13.0581L58.819 13.1199C58.7377 13.1927 58.6322 13.2327 58.5231 13.2322C58.4274 13.2297 58.3335 13.2056 58.2485 13.1617C58.3267 13.2454 58.3742 13.3531 58.3832 13.4672C58.388 13.5633 58.3611 13.7053 58.2052 13.8376L58.2027 13.8396C58.0707 13.9477 57.9374 14.0005 57.7956 14.0005L57.7978 13.9993ZM48.6474 11.819C48.5424 11.8194 48.4375 11.8115 48.3337 11.7951H48.3306C48.17 11.7604 48.0286 11.666 47.935 11.5309C47.8836 11.461 47.8359 11.3815 47.7752 11.281C47.6837 11.1285 47.5579 10.9199 47.347 10.6315C47.3369 10.618 47.308 10.579 47.1895 10.579C47.0407 10.579 46.8394 10.6394 46.6448 10.6978C46.4392 10.7593 46.2449 10.8174 46.0807 10.8174C45.9271 10.8174 45.8128 10.766 45.7403 10.6647L45.7373 10.6602C45.6311 10.5012 45.8063 10.3061 45.876 10.2505C46.0029 10.1472 46.3533 9.96774 46.9202 9.71699L46.9382 9.70913C47.3875 9.49095 47.7707 9.3806 48.081 9.3806C48.286 9.3806 48.459 9.42974 48.5954 9.52689C48.9571 9.76894 49.225 10.1553 49.2749 10.2303L49.2766 10.2328C49.3575 10.3589 49.5479 10.5136 49.7413 10.5507C49.7516 10.5518 49.7619 10.5523 49.7722 10.5521C49.8972 10.5521 50.1547 10.5049 50.4034 10.4591C50.7084 10.403 51.0237 10.3451 51.2284 10.3451C51.3309 10.3451 51.4578 10.3572 51.5314 10.4507C51.5552 10.4805 51.572 10.5153 51.5804 10.5525C51.5889 10.5897 51.5888 10.6283 51.5802 10.6655C51.5376 10.8472 51.3216 10.9606 50.9437 11.1451L50.8033 11.2139C50.2555 11.4927 49.3611 11.8193 48.6465 11.8193L48.6474 11.819ZM30.1255 10.9629L30.7994 9.52577L31.5093 9.96802L32.0664 8.88079L33.2274 9.61394L32.5373 11.0387L31.8319 10.5992L31.2877 11.7109L30.1255 10.9629ZM38.0638 9.74732C37.9635 9.74731 37.8634 9.7361 37.7656 9.7139C37.4042 9.62714 37.1478 9.44125 36.9976 9.1613C36.8603 8.90298 36.8241 8.56547 36.8878 8.17994C36.424 8.59635 36.112 8.84064 35.8461 8.85159H35.8391C35.4788 8.85159 34.9215 8.56238 34.589 8.28215C34.3363 8.0825 34.2975 7.96822 34.293 7.891C34.2908 7.85966 34.2954 7.82822 34.3065 7.79881C34.3175 7.7694 34.3348 7.74271 34.3571 7.72056C34.3829 7.69508 34.4136 7.67512 34.4474 7.6619C34.4812 7.64867 34.5173 7.64246 34.5536 7.64363C34.5792 7.6438 34.6048 7.64605 34.63 7.65037C34.7793 7.67169 34.9299 7.68211 35.0807 7.68153C35.7453 7.68153 36.3364 7.50801 36.6618 7.21739C36.9465 6.96327 37.1316 6.77205 37.4385 6.4556L37.5508 6.33907C37.5963 6.28741 37.6381 6.23883 37.6766 6.19418C37.8967 5.93922 38.0073 5.81146 38.1595 5.81146C38.205 5.80928 38.2504 5.81665 38.2928 5.83309C38.3352 5.84954 38.3737 5.87469 38.4058 5.90693C38.5833 6.08439 38.449 6.39242 38.2789 6.78216C38.1581 7.0593 38.0211 7.37379 38.0161 7.60067C38.0093 7.88511 38.1963 7.98226 38.5215 8.05443L38.5282 8.05583C38.5728 8.063 38.6179 8.06629 38.663 8.06566C38.9539 8.06566 39.2555 7.96822 39.2956 7.86152C39.5203 7.22918 40.1313 5.43605 40.2382 5.06905C40.3208 4.75597 41.0278 4.19411 41.3403 4.19411H41.3614H41.3665C41.3992 4.19727 41.4308 4.2079 41.4588 4.22518C41.4868 4.24246 41.5104 4.26593 41.5279 4.29379C41.6077 4.41874 41.5495 4.59171 41.4931 4.75906L41.4844 4.78461C41.2429 5.54555 40.6092 7.22019 40.393 7.69866C40.1666 8.23329 39.2527 9.74732 38.0638 9.74732V9.74732ZM41.6158 8.80638C41.661 8.66122 41.7037 8.52279 41.7455 8.3852C41.9606 7.68603 42.1636 7.02561 42.6581 5.67865V5.67556C42.7673 5.39477 43.1781 5.07214 43.437 4.93146C43.5131 4.88416 43.6002 4.85773 43.6897 4.85481C43.7368 4.8533 43.7835 4.86352 43.8257 4.88454C43.8678 4.90557 43.9041 4.93675 43.9312 4.97527C43.9744 5.03901 44.0112 5.1516 43.9416 5.32541L43.9396 5.33019L43.9377 5.33468C43.8803 5.46789 43.8313 5.60452 43.7908 5.74379C43.7588 5.84376 43.7262 5.94709 43.6894 6.04817C43.5895 6.33317 43.5019 6.59178 43.4171 6.84197C43.2983 7.1924 43.1756 7.55434 43.0195 7.98816C42.8642 8.40261 42.2855 8.95464 41.7983 9.02231L41.5352 9.05882L41.6158 8.80638ZM20.6842 8.24003L21.166 6.69062L21.9242 6.9936L22.3384 5.82017L23.5848 6.29751L23.0872 7.834L22.3358 7.533L21.9427 8.73282L20.6842 8.24003ZM48.1456 7.3078L47.0606 7.72309L46.551 6.35901L47.953 5.79209L48.2545 6.64991L49.3364 6.23546L49.8478 7.58887L48.446 8.14063L48.1456 7.3078Z" fill="url(#paint0_linear_293_2436)" />
    </g>
    <defs>
        <linearGradient id="paint0_linear_293_2436" x1="35.2674" y1="0.232422" x2="35.2674" y2="70.7672" gradientUnits="userSpaceOnUse">
            <stop stop-color="#BF953F" />
            <stop offset="1" stop-color="#AA771C" />
        </linearGradient>
        <clipPath id="clip0_293_2436">
            <rect width="70.5348" height="70.5348" fill="white" transform="translate(0 0.232422)" />
        </clipPath>
    </defs>
</svg>
    